<svg width="48" height="45" viewBox="0 0 48 45" fill="none" xmlns="http://www.w3.org/2000/svg">
<g clip-path="url(#clip0_1968_2446)">
<path d="M47.0689 0.300293C46.1924 0.300293 45.4532 2.6064 45.4532 4.45064V44.8807L40.0897 41.6932L34.7262 44.8807L29.3627 41.6932L23.9992 44.8807L18.6357 41.6932L13.2724 44.8807L7.90888 41.6932L2.54541 44.8807V4.44997C2.54541 2.60575 1.80615 0.300293 0.929688 0.300293H47.0689Z" fill="#538CEE"/>
</g>
<path d="M17.9716 18.6662C17.2109 18.6662 16.5351 18.5287 15.9443 18.2537C15.3534 17.9786 14.8865 17.6 14.5435 17.1178C14.2039 16.6356 14.0273 16.082 14.0138 15.4572H16.4587C16.4791 15.8409 16.6353 16.15 16.9273 16.3843C17.2194 16.6152 17.5675 16.7306 17.9716 16.7306C18.2874 16.7306 18.5675 16.661 18.812 16.5218C19.0565 16.3826 19.2484 16.1873 19.3876 15.936C19.5268 15.6813 19.5947 15.3893 19.5914 15.0599C19.5947 14.7237 19.5251 14.43 19.3825 14.1787C19.2433 13.9274 19.0497 13.7321 18.8018 13.5929C18.5573 13.4503 18.2755 13.379 17.9563 13.379C17.654 13.3756 17.3671 13.4418 17.0954 13.5776C16.8272 13.7135 16.6234 13.8985 16.4842 14.1329L14.2582 13.7152L14.7116 8.09172H21.4047V10.1241H16.7847L16.5453 12.5844H16.6064C16.7796 12.2957 17.0581 12.058 17.4418 11.8712C17.8289 11.6811 18.2687 11.586 18.7611 11.586C19.3859 11.586 19.9428 11.732 20.4318 12.0241C20.9242 12.3127 21.3113 12.7134 21.5932 13.2262C21.8784 13.7389 22.021 14.3264 22.021 14.9886C22.021 15.7051 21.8513 16.3401 21.5117 16.8936C21.1755 17.4472 20.7035 17.8818 20.0956 18.1976C19.4912 18.51 18.7832 18.6662 17.9716 18.6662ZM29.2477 16.5676V16.0175C29.2477 15.5896 29.3394 15.194 29.5228 14.8307C29.7096 14.4673 29.9795 14.1753 30.3327 13.9546C30.6859 13.7338 31.1171 13.6235 31.6265 13.6235C32.146 13.6235 32.5824 13.7338 32.9356 13.9546C33.2921 14.1719 33.5604 14.4622 33.7404 14.8256C33.9237 15.1855 34.0154 15.5829 34.0154 16.0175V16.5676C34.0154 16.9955 33.9237 17.3911 33.7404 17.7545C33.557 18.1178 33.287 18.4099 32.9305 18.6306C32.5739 18.8513 32.1393 18.9617 31.6265 18.9617C31.1103 18.9617 30.6757 18.8513 30.3225 18.6306C29.9693 18.4099 29.7011 18.1178 29.5177 17.7545C29.3377 17.3911 29.2477 16.9955 29.2477 16.5676ZM30.8726 16.0175V16.5676C30.8726 16.785 30.9253 16.9938 31.0305 17.1942C31.1392 17.3945 31.3378 17.4947 31.6265 17.4947C31.9219 17.4947 32.1206 17.3979 32.2225 17.2044C32.3243 17.0074 32.3753 16.7952 32.3753 16.5676V16.0175C32.3753 15.79 32.326 15.5761 32.2275 15.3757C32.1325 15.172 31.9321 15.0701 31.6265 15.0701C31.3412 15.0701 31.1443 15.172 31.0356 15.3757C30.927 15.5761 30.8726 15.79 30.8726 16.0175ZM23.8382 10.5978V10.0477C23.8382 9.61304 23.9316 9.21573 24.1184 8.85578C24.3085 8.49243 24.5802 8.20209 24.9334 7.98476C25.2865 7.76403 25.7144 7.65367 26.217 7.65367C26.7365 7.65367 27.1729 7.76403 27.5261 7.98476C27.8826 8.20209 28.1526 8.49243 28.336 8.85578C28.5193 9.21573 28.611 9.61304 28.611 10.0477V10.5978C28.611 11.0325 28.5176 11.4298 28.3309 11.7898C28.1475 12.1497 27.8775 12.4367 27.521 12.6506C27.1644 12.8645 26.7297 12.9715 26.217 12.9715C25.7042 12.9715 25.2696 12.8628 24.913 12.6455C24.5598 12.4282 24.2916 12.1395 24.1082 11.7796C23.9282 11.4196 23.8382 11.0257 23.8382 10.5978ZM25.4784 10.0477V10.5978C25.4784 10.8253 25.531 11.0376 25.6363 11.2345C25.745 11.4281 25.9385 11.5249 26.217 11.5249C26.5158 11.5249 26.7145 11.4281 26.8129 11.2345C26.9148 11.0376 26.9658 10.8253 26.9658 10.5978V10.0477C26.9658 9.82019 26.9182 9.60625 26.8231 9.4059C26.728 9.20215 26.526 9.10028 26.217 9.10028C25.9317 9.10028 25.7365 9.20385 25.6312 9.41099C25.5293 9.61814 25.4784 9.83037 25.4784 10.0477ZM24.6074 18.5236L31.7793 8.09172H33.1699L25.998 18.5236H24.6074ZM20.7839 29.3077C20.7839 30.4555 20.5632 31.4283 20.1217 32.2264C19.6803 33.0244 19.0826 33.6305 18.3288 34.0448C17.5783 34.4591 16.7361 34.6662 15.8023 34.6662C14.865 34.6662 14.0212 34.4574 13.2707 34.0397C12.5202 33.622 11.9243 33.0159 11.4828 32.2213C11.0448 31.4233 10.8257 30.4521 10.8257 29.3077C10.8257 28.1599 11.0448 27.187 11.4828 26.389C11.9243 25.591 12.5202 24.9848 13.2707 24.5705C14.0212 24.1562 14.865 23.9491 15.8023 23.9491C16.7361 23.9491 17.5783 24.1562 18.3288 24.5705C19.0826 24.9848 19.6803 25.591 20.1217 26.389C20.5632 27.187 20.7839 28.1599 20.7839 29.3077ZM18.2065 29.3077C18.2065 28.6285 18.1097 28.0546 17.9162 27.586C17.726 27.1174 17.4509 26.7625 17.091 26.5214C16.7344 26.2803 16.3049 26.1598 15.8023 26.1598C15.3031 26.1598 14.8735 26.2803 14.5136 26.5214C14.1536 26.7625 13.8769 27.1174 13.6833 27.586C13.4931 28.0546 13.3981 28.6285 13.3981 29.3077C13.3981 29.9868 13.4931 30.5607 13.6833 31.0293C13.8769 31.498 14.1536 31.8528 14.5136 32.0939C14.8735 32.335 15.3031 32.4556 15.8023 32.4556C16.3049 32.4556 16.7344 32.335 17.091 32.0939C17.4509 31.8528 17.726 31.498 17.9162 31.0293C18.1097 30.5607 18.2065 29.9868 18.2065 29.3077ZM22.256 34.5236V24.0917H29.377V26.1394H24.7774V28.2787H28.9236V30.3315H24.7774V34.5236H22.256ZM30.6466 34.5236V24.0917H37.7676V26.1394H33.168V28.2787H37.3142V30.3315H33.168V34.5236H30.6466Z" fill="white"/>
<defs>
<clipPath id="clip0_1968_2446">
<rect width="46.2191" height="44.6253" fill="white" transform="translate(0.929688 0.300293)"/>
</clipPath>
</defs>
</svg>
