<svg width="16" height="16" viewBox="0 0 16 16" fill="none" xmlns="http://www.w3.org/2000/svg">
<path d="M14.1973 6.36568H9.23995V1.4083C9.23995 0.724179 8.68595 0.16893 8.00058 0.16893C7.3152 0.16893 6.7612 0.724179 6.7612 1.4083V6.36568H1.80383C1.11845 6.36568 0.564453 6.92093 0.564453 7.60506C0.564453 8.28918 1.11845 8.84443 1.80383 8.84443H6.7612V13.8018C6.7612 14.4859 7.3152 15.0412 8.00058 15.0412C8.68595 15.0412 9.23995 14.4859 9.23995 13.8018V8.84443H14.1973C14.8827 8.84443 15.4367 8.28918 15.4367 7.60506C15.4367 6.92093 14.8827 6.36568 14.1973 6.36568Z" fill="black"/>
</svg>
