<svg width="37" height="37" viewBox="0 0 37 37" fill="none" xmlns="http://www.w3.org/2000/svg">
<g clip-path="url(#clip0_2798_3697)">
<path d="M16.0301 1.09589L14.2721 2.50214L12.5141 1.09589L10.7563 2.50214L8.99865 1.09589L7.24091 2.50214L5.48324 1.09589L5.1167 1.54167L7.32043 7.27396L10.7627 7.7935L14.2407 7.27396L16.4086 1.54167L16.0301 1.09589Z" fill="#9B9C9D"/>
<path d="M8.4024 5.62394L7.18501 2.45742L5.48324 1.09589L5.1167 1.54167L7.32043 7.27396H14.2407L14.8648 5.62394H8.4024Z" fill="#A2A4A7"/>
<path d="M6.01465 7.27399H15.5113V9.39082H6.01465V7.27399Z" fill="#F8E868"/>
<path d="M6.01465 7.27399H7.52264V9.39082H6.01465V7.27399Z" fill="#EED60F"/>
<path d="M13.9288 9.38641H7.59284C2.68369 14.8195 0.80775 21.5167 0.729492 28.5064V33.6721H20.6767V26.3054C20.2601 20.1266 18.309 14.2511 13.9288 9.38641Z" fill="#9B9C9D"/>
<path d="M2.31569 32.0203V28.7878C2.39402 21.798 4.04868 15.4949 9.33562 9.6678L7.59278 9.38641C2.68364 14.8195 0.779012 21.5167 0.700684 28.5064V33.6721H20.6767V32.0203H2.31569Z" fill="#A2A4A7"/>
<path d="M31.8979 30.4725C32.1594 28.4506 30.6882 26.5712 28.7201 26.2944C28.0575 22.0847 21.9833 22.0556 21.2765 26.2534C19.0332 26.2513 17.2582 28.2916 17.57 30.5143C15.7598 30.7889 14.3726 32.3516 14.3726 34.2384V35.8077H35.6174V34.2384C35.6174 32.1737 33.9563 30.4981 31.8979 30.4725Z" fill="#D09851"/>
<path d="M35.616 34.2522H15.8855C15.9131 32.3951 17.2897 31.074 19.0817 30.8021C18.7698 28.5795 20.5449 26.734 22.7881 26.736C22.8759 24.9613 24.3451 23.5299 25.7481 23.2627C23.847 22.9022 21.6813 23.9191 21.2765 26.3236C19.0332 26.3215 17.2582 28.3619 17.57 30.5845C15.7598 30.8591 14.3726 32.4218 14.3726 34.3086V35.8779H35.6174V34.3086C35.6174 34.2897 35.6163 34.2711 35.616 34.2522Z" fill="#B28246"/>
<path d="M6.5145 18.3653L7.4325 17.684C8.39198 17.0981 9.51958 16.7604 10.7261 16.7604C14.221 16.7604 17.0542 19.5936 17.0542 23.0886C17.0542 26.5835 14.221 29.4167 10.7261 29.4167C7.23112 29.4167 4.39795 26.5835 4.39795 23.0886C4.39795 21.2109 5.21568 19.5242 6.5145 18.3653Z" fill="#E5ECF5"/>
<path d="M11.8071 28.3356C8.31218 28.3356 5.479 25.5024 5.479 22.0074C5.479 20.566 5.96128 19.2376 6.77282 18.1736L6.5145 18.3653C5.21568 19.5242 4.39795 21.2109 4.39795 23.0885C4.39795 26.5835 7.23112 29.4166 10.7261 29.4166C12.749 29.4166 14.5502 28.4673 15.7086 26.99C14.6336 27.8329 13.2791 28.3356 11.8071 28.3356Z" fill="#CAD8EB"/>
<path d="M10.7298 20.4752L9.98861 21.2163C8.95432 22.2506 8.95432 23.9275 9.98861 24.9618L10.7298 25.703L11.4709 24.9618C12.5052 23.9275 12.5052 22.2506 11.4709 21.2163L10.7298 20.4752Z" fill="#E2FC85"/>
<path d="M11.7172 21.52C11.3567 21.7124 11.0233 21.9483 10.7221 22.2191C10.4208 21.9483 10.0874 21.7124 9.72703 21.52C9.17156 22.2734 9.06637 23.2544 9.41055 24.0944C9.40823 24.1002 10.2993 25.2756 10.7148 25.7029L10.7221 25.6956L10.7294 25.7029C11.1468 25.2732 12.0359 24.1002 12.0336 24.0944C12.3778 23.2544 12.2726 22.2735 11.7172 21.52Z" fill="#639447"/>
<path d="M14.4262 22.5935H13.378C11.9152 22.5935 10.7295 23.7793 10.7295 25.242V26.2902H11.7777C13.2404 26.2902 14.4262 25.1044 14.4262 23.6417V22.5935Z" fill="#639447"/>
<path d="M13.2245 24.8433H12.1764V23.7951C12.1764 23.4396 12.2469 23.1008 12.3739 22.7911C11.4092 23.1867 10.7295 24.1348 10.7295 25.242V26.2901H11.7776C12.8849 26.2901 13.8329 25.6104 14.2285 24.6457C13.9189 24.7728 13.58 24.8433 13.2245 24.8433Z" fill="#BDE62B"/>
<path d="M7.03271 22.5935H8.08093C9.54364 22.5935 10.7294 23.7793 10.7294 25.242V26.2902H9.68118C8.21846 26.2902 7.03271 25.1044 7.03271 23.6417V22.5935Z" fill="#639447"/>
<path d="M8.23098 22.598C8.18127 22.5952 8.13128 22.5935 8.08086 22.5935H7.03271V23.6417C7.03271 25.1044 8.21846 26.2901 9.68118 26.2901H10.7293V25.242C10.7293 25.1916 10.7276 25.1416 10.7248 25.0919C9.06081 25.0919 8.23098 24.4419 8.23098 22.598Z" fill="#BDE62B"/>
<path d="M8.37802 12.5019L7.54932 11.8494C7.61548 11.7655 7.69177 11.665 7.77122 11.5605C7.92141 11.3629 8.07673 11.1586 8.20927 11.0024L9.0135 11.6846C8.89925 11.8193 8.75264 12.0122 8.61082 12.1987C8.5275 12.3084 8.44742 12.4137 8.37802 12.5019Z" fill="white"/>
<path d="M7.22488 14.1757L6.31152 13.6484C6.46952 13.3748 6.72011 13.0134 6.90313 12.7496L6.91565 12.7316L7.78225 13.3327L7.76973 13.3507C7.60696 13.5854 7.36094 13.94 7.22488 14.1757Z" fill="white"/>
<path d="M7.56885 19.4205H8.62354V20.4752H7.56885V19.4205Z" fill="white"/>
<path d="M27.6318 31.0026C28.2143 31.0026 28.6865 30.5304 28.6865 29.9479C28.6865 29.3654 28.2143 28.8932 27.6318 28.8932C27.0493 28.8932 26.5771 29.3654 26.5771 29.9479C26.5771 30.5304 27.0493 31.0026 27.6318 31.0026Z" fill="#DB380E"/>
<path d="M8.12012 3.58075H9.1748V4.63544H8.12012V3.58075Z" fill="white"/>
<path d="M35.5941 19.4205H33.4913C30.8563 19.4205 28.7202 21.5566 28.7202 24.1916V26.2944H30.823C33.458 26.2944 35.5941 24.1583 35.5941 21.5232V19.4205Z" fill="#639447"/>
<path d="M32.33 24.7874H30.2272V22.6846C30.2272 21.7531 30.4952 20.8846 30.9568 20.15C29.6137 20.9941 28.7202 22.4881 28.7202 24.1916V26.2944H30.823C32.5264 26.2944 34.0204 25.4009 34.8645 24.0578C34.1301 24.5195 33.2616 24.7874 32.33 24.7874Z" fill="#BDE62B"/>
<path d="M30.823 26.3296H28.6851V24.1916C28.6851 22.529 29.5273 21.007 30.9381 20.1203L31.0684 20.0383L30.9865 20.1687C30.5128 20.9227 30.2623 21.7927 30.2623 22.6846V24.7522H32.3299C33.222 24.7522 34.092 24.5017 34.8458 24.028L34.9763 23.946L34.8942 24.0765C34.0076 25.4873 32.4856 26.3296 30.823 26.3296ZM28.7554 26.2592H30.823C32.4101 26.2592 33.8673 25.4802 34.7511 24.1677C34.0173 24.5966 33.1836 24.8225 32.3299 24.8225H30.192V22.6846C30.192 21.831 30.418 20.9973 30.8468 20.2634C29.5343 21.1472 28.7553 22.6045 28.7553 24.1916V26.2592H28.7554Z" fill="#BDE62B"/>
<path d="M32.123 22.1413L32.868 21.3964L33.6137 22.1421L32.8688 22.887L32.123 22.1413Z" fill="white"/>
<path d="M20.249 30.5342H22.1671C24.0202 30.5342 25.5225 32.0364 25.5225 33.8895V35.8076H23.6043C21.7513 35.8076 20.249 34.3054 20.249 32.4523V30.5342Z" fill="#E2FC85"/>
<path d="M23.4945 34.3002C22.5346 34.3002 21.7564 33.522 21.7564 32.5621V30.5341H20.249V32.4522C20.249 34.3053 21.7513 35.8076 23.6043 35.8076H25.5225V34.3002H23.4945Z" fill="#639447"/>
<path d="M30.7871 35.291H31.8426V36.3464H30.7871V35.291Z" fill="black"/>
<path d="M32.448 29.9949C32.4538 28.8152 31.9048 27.6208 31.0084 26.8218C33.8422 26.719 36.1162 24.3831 36.1162 21.5247V18.8928H33.4842C30.6376 18.8928 28.3087 21.1478 28.1878 23.9651C26.1508 21.8221 22.4281 22.1802 21.0815 25.0303C20.4775 19.1191 18.4541 14.0435 15.0543 9.9119H16.0191V6.73827H14.984L16.9933 1.4256L16.0814 0.351437L14.2515 1.81513L12.4922 0.407968L10.7333 1.81513L8.97434 0.407968L7.21541 1.81513L5.37955 0.346375L4.48679 1.43221L6.52677 6.73827H5.4602V9.91204H6.41195C2.35365 14.8307 0.222898 21.0796 0.139648 28.5097V34.2095H13.8252L13.8244 36.3464H29.7314V35.291H26.0374V33.8992C26.0374 31.7569 24.2945 30.014 22.152 30.014H19.7048V32.4611C19.7048 33.5759 20.1774 34.5818 20.932 35.291H14.8797V34.2483C14.8653 32.4356 16.3831 31.0463 18.1468 30.9652C17.6018 28.628 19.3031 26.5952 21.707 26.7861C21.9912 22.5847 28.1334 22.6295 28.182 26.8268C29.2423 26.7617 30.1966 27.3227 30.7841 28.1531C31.6038 29.4274 31.2903 31.0003 31.2903 31.0003C33.262 30.8034 35.089 32.2048 35.0842 34.2483V35.291H32.8978V36.3464H36.1396V34.2483C36.1396 32.0955 34.528 30.292 32.448 29.9949ZM20.7603 32.4611V31.0694H22.152C23.7124 31.0694 24.982 32.3389 24.982 33.8993V34.5447L22.8312 32.394L22.0848 33.1403L24.2356 35.2911H23.5902C22.0298 35.291 20.7603 34.0215 20.7603 32.4611ZM6.51566 7.79366H8.6687V6.73827H7.65746L5.87075 2.09104L7.21534 3.16668L8.97427 1.75952L10.7332 3.16668L12.4922 1.75952L14.2514 3.16668L15.6203 2.0717L13.8554 6.73827H9.72402V7.79366H14.9635V8.85665H6.51566V7.79366ZM18.05 27.2079C17.3421 28.0212 16.9682 29.0542 16.9897 30.1021C16.1734 30.325 15.4349 30.7874 14.8739 31.4342C14.4406 31.9338 14.1327 32.5233 13.9667 33.154H1.20102V28.5185C1.28532 20.9941 3.52365 14.7339 7.80294 9.90782L13.671 9.91605C17.4298 14.1696 19.5903 19.5425 20.0997 25.8953C19.3175 26.1213 18.6031 26.5724 18.05 27.2079ZM33.4842 19.9482H35.0608V21.5247C35.0608 23.8663 33.1557 25.7714 30.814 25.7714H29.9838L32.099 23.6562L31.3526 22.9099L29.2374 25.025V24.1948C29.2374 21.8534 31.1425 19.9482 33.4842 19.9482Z" fill="black"/>
<path d="M6.47949 23.6424C6.47949 25.3947 7.90515 26.8203 9.65755 26.8203H11.7554C13.5078 26.8203 14.9334 25.3947 14.9334 23.6424V22.0658H13.3568C13.0979 22.0658 12.8464 22.0977 12.6053 22.1564C12.4531 21.6672 12.1841 21.2175 11.8178 20.8512L10.703 19.7365L9.58815 20.8513C9.22231 21.2172 8.95344 21.6664 8.80121 22.1549C8.56208 22.0973 8.31275 22.0659 8.05618 22.0659H6.47949V23.6424ZM13.878 23.1212V23.6424C13.878 24.8127 12.9258 25.7649 11.7554 25.7649H11.2342V25.2437C11.2342 24.0734 12.1863 23.1212 13.3568 23.1212H13.878ZM10.3344 21.5975L10.703 21.229L11.0716 21.5975C11.3435 21.8694 11.535 22.21 11.6283 22.579C11.2621 22.8174 10.9479 23.1287 10.7065 23.4928C10.4638 23.1268 10.1474 22.8141 9.7787 22.5753C9.87235 22.2077 10.0635 21.8685 10.3344 21.5975ZM7.53488 23.1212H8.05611C9.22653 23.1212 10.1787 24.0734 10.1787 25.2437V25.7649H9.65755C8.48712 25.7649 7.53495 24.8127 7.53495 23.6424L7.53488 23.1212Z" fill="black"/>
<path d="M15.269 17.971L14.5663 18.7585C15.8003 19.8596 16.508 21.4386 16.508 23.0911C16.508 26.2918 13.9039 28.8957 10.7031 28.8957C7.50226 28.8957 4.89823 26.2917 4.89823 23.0911C4.89823 19.8904 7.50226 17.2864 10.7031 17.2864C11.7722 17.2864 12.8168 17.5793 13.7239 18.1333L14.2741 17.2326C13.2012 16.5774 11.9663 16.231 10.7031 16.231C6.92028 16.231 3.84277 19.3085 3.84277 23.0911C3.84277 26.8737 6.92028 29.9511 10.7031 29.9511C14.4859 29.9511 17.5634 26.8737 17.5634 23.0911C17.5634 21.1383 16.7271 19.2721 15.269 17.971Z" fill="black"/>
<path d="M26.0376 29.955C26.0376 30.828 26.7478 31.5381 27.6208 31.5381C28.4937 31.5381 29.2039 30.8279 29.2039 29.955C29.2039 29.0822 28.4937 28.3719 27.6208 28.3719C26.7478 28.3719 26.0376 29.0822 26.0376 29.955ZM28.1484 29.955C28.1484 30.2461 27.9117 30.4827 27.6208 30.4827C27.3298 30.4827 27.0931 30.246 27.0931 29.955C27.0931 29.6641 27.3298 29.4273 27.6208 29.4273C27.9117 29.4273 28.1484 29.6641 28.1484 29.955Z" fill="black"/>
<path d="M22.8711 27.8442H23.9266V28.8996H22.8711V27.8442Z" fill="black"/>
<path d="M17.0908 33.1541H18.1463V34.2094H17.0908V33.1541Z" fill="black"/>
<path d="M31.8325 33.1541H32.888V34.2095H31.8325V33.1541Z" fill="black"/>
</g>
<defs>
<clipPath id="clip0_2798_3697">
<rect width="36" height="36" fill="white" transform="translate(0.139648 0.346375)"/>
</clipPath>
</defs>
</svg>
