<svg width="25" height="25" viewBox="0 0 25 25" fill="none" xmlns="http://www.w3.org/2000/svg">
<path d="M16.1237 18.2157C16.1157 18.2367 16.1367 18.1977 16.1237 18.2157V18.2157ZM3.00175 10.9617C2.98875 10.9797 3.00975 10.9407 3.00175 10.9617V10.9617ZM23.5527 3.10467H20.9207L22.2257 0.855669C22.3647 0.616669 22.2827 0.310669 22.0437 0.171669C21.8037 0.0316694 21.4987 0.114669 21.3597 0.353669L20.0518 2.60867L18.7447 0.353669C18.6067 0.115669 18.3017 0.0336694 18.0607 0.171669C17.8217 0.310669 17.7407 0.616669 17.8787 0.855669L19.1838 3.10467H16.5518C16.2758 3.10467 16.0517 3.32867 16.0517 3.60467C16.0517 3.88067 16.2758 4.10467 16.5518 4.10467H19.1838L17.8787 6.35367C17.7397 6.59267 17.8217 6.89867 18.0607 7.03767C18.2997 7.17567 18.6047 7.09467 18.7447 6.85567L20.0527 4.60067L21.3608 6.85567C21.4538 7.01567 21.6217 7.10467 21.7937 7.10467C21.8787 7.10467 21.9647 7.08367 22.0437 7.03767C22.2827 6.89867 22.3638 6.59267 22.2257 6.35367L20.9207 4.10467H23.5527C23.8287 4.10467 24.0527 3.88067 24.0527 3.60467C24.0527 3.32867 23.8287 3.10467 23.5527 3.10467ZM15.5537 11.9057L12.8337 13.3867C12.9757 13.7657 13.0527 14.1767 13.0527 14.6047C13.0527 15.0327 12.9757 15.4427 12.8337 15.8227L15.5537 17.3037C15.7767 17.0757 16.0567 16.9097 16.3737 16.8227L18.5187 16.2317C18.7847 16.1577 19.0607 16.3147 19.1337 16.5807C19.2067 16.8467 19.0508 17.1227 18.7847 17.1957L16.6397 17.7867C16.4427 17.8407 16.2337 18.0457 16.1237 18.2157C16.0407 18.4007 16.0087 18.6377 16.0707 18.8337L16.7377 20.9557C16.8207 21.2187 16.6747 21.4997 16.4107 21.5827C16.1458 21.6647 15.8667 21.5187 15.7837 21.2557L15.1167 19.1337C15.0177 18.8207 15.0057 18.4947 15.0757 18.1837L12.3537 16.7017C11.8097 17.4277 10.9907 17.9357 10.0517 18.0707V21.1677C10.3587 21.2547 10.6387 21.4207 10.8667 21.6577L12.4107 23.2587C12.6027 23.4577 12.5967 23.7737 12.3977 23.9657C12.3007 24.0597 12.1757 24.1057 12.0507 24.1057C11.9197 24.1057 11.7887 24.0547 11.6907 23.9527L10.1467 22.3517C10.0047 22.2047 9.74075 22.0887 9.54175 22.0977C9.32475 22.0977 9.09775 22.2047 8.95575 22.3517L7.41175 23.9527C7.22075 24.1517 6.90475 24.1577 6.70475 23.9657C6.50575 23.7737 6.49975 23.4577 6.69175 23.2587L8.23575 21.6577C8.46475 21.4207 8.74375 21.2547 9.05075 21.1677V18.0707C8.11275 17.9357 7.29275 17.4277 6.74875 16.7017L4.02675 18.1837C4.09775 18.4947 4.08475 18.8207 3.98575 19.1337L3.31875 21.2557C3.23575 21.5177 2.95575 21.6637 2.69175 21.5827C2.42775 21.4997 2.28175 21.2187 2.36475 20.9557L3.03175 18.8337C3.09275 18.6397 3.04175 18.3727 2.96075 18.1887C2.84975 18.0207 2.65875 17.8407 2.46275 17.7877L0.417749 17.2247C0.151749 17.1517 -0.00425115 16.8757 0.0687488 16.6097C0.141749 16.3437 0.416749 16.1867 0.683749 16.2607L2.72875 16.8237C3.04575 16.9107 3.32575 17.0767 3.54875 17.3047L6.26875 15.8237C6.12675 15.4447 6.04975 15.0337 6.04975 14.6057C6.04975 14.1777 6.12675 13.7677 6.26875 13.3877L3.54875 11.9067C3.32575 12.1347 3.04575 12.3007 2.72875 12.3877L0.683749 12.9507C0.415749 13.0227 0.141749 12.8677 0.0687488 12.6017C-0.00425115 12.3357 0.151749 12.0597 0.417749 11.9867L2.46275 11.4237C2.65975 11.3697 2.88875 11.1317 2.99875 10.9627C3.08175 10.7777 3.09375 10.5727 3.03175 10.3777L2.36475 8.25567C2.28175 7.99267 2.42775 7.71167 2.69175 7.62867C2.95675 7.54467 3.23475 7.69267 3.31875 7.95567L3.98575 10.0777C4.08475 10.3907 4.09675 10.7167 4.02675 11.0277L6.74875 12.5097C7.29275 11.7837 8.11175 11.2757 9.05075 11.1407V8.04367C8.74375 7.95667 8.46375 7.79067 8.23575 7.55367L6.69175 5.95267C6.49975 5.75367 6.50575 5.43767 6.70475 5.24567C6.90475 5.05467 7.22075 5.05967 7.41175 5.25867L8.95575 6.85967C9.09775 7.00667 9.34775 7.09567 9.54875 7.11167C9.75075 7.09567 10.0047 7.00667 10.1467 6.85967L11.6907 5.25867C11.8827 5.05967 12.1987 5.05467 12.3977 5.24567C12.5967 5.43767 12.6027 5.75367 12.4107 5.95267L10.8667 7.55367C10.6377 7.79067 10.3587 7.95667 10.0517 8.04367V11.1407C10.9897 11.2757 11.8097 11.7837 12.3537 12.5097L15.0757 11.0277C15.0047 10.7167 15.0177 10.3907 15.1167 10.0777L15.7837 7.95567C15.8667 7.69267 16.1447 7.54367 16.4107 7.62867C16.6747 7.71167 16.8207 7.99267 16.7377 8.25567L16.0707 10.3777C16.0107 10.5697 16.0597 10.8337 16.1407 11.0187L16.1427 11.0237C16.2537 11.1917 16.4447 11.3717 16.6407 11.4247L18.7857 12.0157C19.0518 12.0887 19.2078 12.3647 19.1348 12.6307C19.0618 12.8967 18.7867 13.0517 18.5197 12.9797L16.3748 12.3887C16.0578 12.3017 15.7777 12.1357 15.5547 11.9077L15.5537 11.9057ZM12.0527 14.6047C12.0527 13.2267 10.9307 12.1047 9.55275 12.1047C8.17475 12.1047 7.05275 13.2267 7.05275 14.6047C7.05275 15.9827 8.17475 17.1047 9.55275 17.1047C10.9307 17.1047 12.0527 15.9827 12.0527 14.6047Z" fill="#323232"/>
</svg>
