<svg width="25" height="25" viewBox="0 0 25 25" fill="none" xmlns="http://www.w3.org/2000/svg">
<g clip-path="url(#clip0_337_2350)">
<path d="M13.4609 22.1094C13.2022 22.1094 12.9922 22.3194 12.9922 22.5781C12.9922 22.8369 13.2022 23.0469 13.4609 23.0469C13.7197 23.0469 13.9297 22.8369 13.9297 22.5781C13.9297 22.3194 13.7197 22.1094 13.4609 22.1094Z" fill="black"/>
<path d="M6.875 10.3438C6.61611 10.3438 6.40625 10.5536 6.40625 10.8125V19.7656C6.40625 20.0245 6.61611 20.2344 6.875 20.2344C7.13389 20.2344 7.34375 20.0245 7.34375 19.7656V10.8125C7.34375 10.5536 7.13389 10.3438 6.875 10.3438Z" fill="black"/>
<path d="M10.625 10.3438C10.3661 10.3438 10.1562 10.5536 10.1562 10.8125V19.7656C10.1562 20.0245 10.3661 20.2344 10.625 20.2344C10.8839 20.2344 11.0938 20.0245 11.0938 19.7656V10.8125C11.0938 10.5536 10.8839 10.3438 10.625 10.3438Z" fill="black"/>
<path d="M20.0469 8.50195H17.7031V7.08356C18.4379 6.53273 18.7871 5.6017 18.58 4.68244C18.3863 3.82041 17.6747 3.11691 16.8096 2.93189C16.3497 2.83322 15.8866 2.86814 15.4646 3.02859C15.0414 2.36142 14.2982 1.93945 13.4844 1.93945C13.1776 1.93945 12.8779 1.99894 12.6007 2.11341C11.8161 1.3733 10.7817 0.955078 9.71094 0.955078C8.29456 0.955078 6.97363 1.67662 6.19391 2.85722C3.74375 2.72166 1.71875 4.66552 1.71875 7.06242V12.6874C1.71875 13.4628 2.36009 14.0937 3.14844 14.0937C3.32136 14.0937 3.48706 14.0622 3.64062 14.0049V22.6113C3.64062 23.9037 4.69203 24.9551 5.98438 24.9551H15.3594C16.6517 24.9551 17.7031 23.9037 17.7031 22.6113V21.2051H20.0469C21.3392 21.2051 22.3906 20.1537 22.3906 18.8613V10.8457C22.3906 9.55336 21.3392 8.50195 20.0469 8.50195ZM16.7656 22.1426H15.3355C15.0766 22.1426 14.8667 22.3524 14.8667 22.6113C14.8667 22.8702 15.0766 23.0754 15.3355 23.0754H16.685C16.4915 23.621 15.9704 24.0176 15.3594 24.0176H5.98438C5.37331 24.0176 4.85225 23.6257 4.65875 23.0801H11.5864C11.8453 23.0801 12.0552 22.8702 12.0552 22.6113C12.0552 22.3524 11.8453 22.1426 11.5864 22.1426H4.57812V12.6771V9.36942C5.63108 9.21047 6.54284 8.54733 7.02219 7.5645C7.11997 7.5645 7.20613 7.59834 7.27105 7.66205C7.80008 8.18227 8.50011 8.46872 9.24219 8.46872C10.0113 8.46872 10.7293 8.16427 11.2641 7.61114C11.2927 7.58152 11.3332 7.5645 11.375 7.5645C12.1047 7.5645 12.5822 7.72036 12.7942 8.02767C12.969 8.28103 12.9689 8.63306 12.9688 8.91595V10.8125C12.9688 11.4235 13.3607 11.9446 13.9062 12.1381V19.7656C13.9062 20.0245 14.1161 20.2343 14.375 20.2343C14.6339 20.2343 14.8438 20.0245 14.8438 19.7656V12.138C15.3893 11.9445 15.7812 11.4235 15.7812 10.8124V7.50942C16.1096 7.57495 16.4447 7.57537 16.7656 7.50975V22.1426ZM15.525 6.43697C15.3797 6.36305 15.2064 6.36994 15.0674 6.4552C14.9284 6.54042 14.8437 6.69173 14.8437 6.85477V10.8124C14.8437 11.0709 14.6334 11.2812 14.375 11.2812C14.1165 11.2812 13.9062 11.0709 13.9062 10.8124V8.91623C13.9063 8.54705 13.9066 7.98909 13.5658 7.49522C13.1684 6.91908 12.4313 6.62695 11.375 6.62695C11.0802 6.62695 10.7939 6.74831 10.5899 6.95972C10.2335 7.32825 9.75491 7.53117 9.24219 7.53117C8.74752 7.53117 8.28092 7.34025 7.92805 6.99319C7.68744 6.75698 7.36573 6.62695 7.02219 6.62695C6.66692 6.62695 6.33673 6.83306 6.18097 7.15205C5.78806 7.95661 4.99269 8.46112 4.10534 8.46872C3.84805 8.47092 3.64058 8.68013 3.64058 8.93747V12.6652C3.62408 12.9412 3.40944 13.1562 3.14844 13.1562C2.88167 13.1562 2.65625 12.9415 2.65625 12.6874V7.06242C2.65625 5.25323 4.13666 3.78811 5.95658 3.78811C6.098 3.78811 6.24017 3.79711 6.38225 3.81534C6.57186 3.83967 6.75716 3.74639 6.85067 3.57975C7.43455 2.53908 8.53053 1.89258 9.71094 1.89258C10.6358 1.89258 11.5274 2.29641 12.1572 3.00056C12.3098 3.17128 12.5635 3.20672 12.7572 3.08423C12.9715 2.94863 13.223 2.87695 13.4844 2.87695C14.0811 2.87695 14.6144 3.25481 14.8115 3.81712C14.8595 3.954 14.9682 4.06102 15.1058 4.10686C15.2434 4.1527 15.3945 4.13227 15.515 4.05145C15.8345 3.83723 16.2244 3.76519 16.6132 3.84862C17.1194 3.95691 17.5521 4.38431 17.6653 4.88827C17.9322 6.07252 16.7182 7.04395 15.525 6.43697ZM17.7031 11.3145H19.5781V18.3926H17.7031V11.3145ZM21.4531 18.8613C21.4531 19.6367 20.8223 20.2676 20.0469 20.2676H17.7031V19.3301H20.0469C20.3058 19.3301 20.5156 19.1202 20.5156 18.8613V10.8457C20.5156 10.5868 20.3058 10.377 20.0469 10.377H17.7031V9.43945H20.0469C20.8223 9.43945 21.4531 10.0703 21.4531 10.8457V18.8613Z" fill="black"/>
<path d="M22.5312 4.29688L1.48633 22.1958" stroke="black"/>
<path d="M23.2871 4.65625L2.24219 22.5552" stroke="white"/>
</g>
<defs>
<clipPath id="clip0_337_2350">
<rect width="24" height="24" fill="white" transform="translate(0.0546875 0.955078)"/>
</clipPath>
</defs>
</svg>
