<svg width="58" height="37" viewBox="0 0 58 37" fill="none" xmlns="http://www.w3.org/2000/svg">
<g id="amex.ccefa734.svg" clip-path="url(#clip0_465_2703)">
<path id="Vector" fill-rule="evenodd" clip-rule="evenodd" d="M5.07093 1.02246C4.57813 1.02246 4.09017 1.11952 3.63488 1.30811C3.1796 1.49669 2.76592 1.7731 2.41746 2.12156C1.71372 2.82531 1.31836 3.77979 1.31836 4.77503V31.7935C1.31836 32.7888 1.71372 33.7433 2.41746 34.447C2.76592 34.7955 3.1796 35.0719 3.63488 35.2605C4.09017 35.449 4.57813 35.5461 5.07093 35.5461H53.1038C54.0991 35.5461 55.0535 35.1507 55.7573 34.447C56.461 33.7433 56.8564 32.7888 56.8564 31.7935V4.77503C56.8564 4.28224 56.7593 3.79427 56.5707 3.33898C56.3822 2.8837 56.1057 2.47002 55.7573 2.12156C55.4088 1.7731 54.9951 1.49669 54.5399 1.30811C54.0846 1.11952 53.5966 1.02246 53.1038 1.02246H5.07093Z" fill="#1174B8" stroke="#E6E4EB" stroke-width="1.50103"/>
<path id="Vector_2" d="M16.8687 18.6444H19.0002L17.9494 15.5192L16.8987 18.6444H16.8687ZM46.5891 12.7078H41.1253L39.7894 14.4265L38.5886 12.7078H26.9931L25.9424 15.5192L24.8917 12.7078H20.201V13.9582L19.6681 12.7078H15.6679L11.8027 23.6428H16.4679L17.0008 21.9241H18.3337L18.8666 23.6428H24.0646V22.3924L24.4639 23.6428H27.1297L27.529 22.2363V23.6428H38.1908L39.5237 21.9241L40.7245 23.6428H46.1883L42.7209 18.1745L46.586 12.7063L46.5891 12.7078ZM30.4605 22.0817H28.994V15.9875L26.7275 22.0817H25.3945L23.128 15.9875V22.0817H20.0809L19.548 20.363H16.3508L15.818 22.0817H14.0678L16.8672 14.2704H19.1338L21.666 21.6134V14.2719H24.1982L26.1976 19.5855L28.0634 14.2719H30.5956V22.0832H30.4605V22.0817ZM43.6696 22.0817H41.6702L39.938 19.4249L37.9386 22.0817H31.9405V14.2719H38.0707L39.9365 16.7711L41.9359 14.2719H43.8016L40.8551 18.179L43.6545 22.0847L43.6696 22.0817ZM33.407 15.8329V17.2394H36.7393V18.8005H33.407V20.3615H37.1386L38.8708 18.0199L37.2722 15.8329H33.395H33.407Z" fill="white"/>
</g>
<defs>
<clipPath id="clip0_465_2703">
<rect width="57.0391" height="36.0247" fill="white" transform="translate(0.568359 0.271973)"/>
</clipPath>
</defs>
</svg>
