<svg width="18" height="17" viewBox="0 0 18 17" fill="none" xmlns="http://www.w3.org/2000/svg">
<path fill-rule="evenodd" clip-rule="evenodd" d="M7.02344 0.369759C6.57464 0.581895 6.26453 0.996313 6.21814 1.44602C6.20528 1.57041 6.25846 2.43927 6.33626 3.3768C6.41406 4.31437 6.46935 5.08977 6.45915 5.09996C6.4249 5.13421 4.0473 4.51949 3.876 4.43206C3.59269 4.28756 3.40702 4.05766 2.93954 3.27262C2.3642 2.30652 2.30296 2.23062 1.96419 2.06384C1.61656 1.89271 1.22283 1.87472 0.904673 2.01547C0.624722 2.13931 0.338833 2.4175 0.218866 2.68282C0.119769 2.90205 0.117188 2.93815 0.117188 4.11256C0.117188 5.44028 0.136508 5.57191 0.406002 6.07988C0.560006 6.3702 0.949639 6.78294 1.26767 6.99271C1.51371 7.15497 13.8517 12.0219 14.214 12.0996C14.3311 12.1247 14.8463 12.1375 15.4218 12.1297C16.4178 12.1162 16.4271 12.1152 16.6465 11.9995C16.8971 11.8673 17.1277 11.6188 17.2716 11.3259C17.4187 11.0263 17.4126 10.5224 17.2581 10.2013C17.0879 9.8476 15.7956 8.36862 15.4624 8.14612C15.1856 7.96126 15.1302 7.9385 13.1617 7.19951L11.9203 6.7335L10.6226 3.91699C9.09919 0.610553 9.21434 0.790503 8.42074 0.474966C8.03029 0.319715 7.88898 0.284646 7.60434 0.272555C7.3049 0.259818 7.2293 0.272469 7.02344 0.369759ZM7.30572 1.25673C7.2416 1.3072 7.17112 1.3958 7.14913 1.45372C7.12198 1.5251 7.16596 2.23802 7.28597 3.67121C7.45232 5.65763 7.45873 5.79218 7.39333 5.92932C7.34832 6.02368 7.26854 6.09825 7.16725 6.14055C7.01467 6.20432 6.97004 6.1958 5.39271 5.8013C4.2899 5.52553 3.68107 5.35194 3.4806 5.25629C3.01076 5.03198 2.72801 4.71627 2.18644 3.81135C1.93153 3.38536 1.68261 2.99328 1.63334 2.94001C1.50842 2.80511 1.28647 2.81027 1.14538 2.95136L1.0372 3.05954L1.0505 4.20998L1.06384 5.36042L1.17912 5.57884C1.2425 5.69902 1.41109 5.90535 1.55377 6.03745C1.79874 6.26426 1.87112 6.30036 2.85848 6.68888C3.4334 6.91513 6.24676 8.02391 9.11038 9.15288L14.317 11.2056L15.2206 11.2217C16.0604 11.2366 16.1338 11.2318 16.2596 11.1531C16.4439 11.038 16.5158 10.8184 16.4327 10.6245C16.3703 10.4787 15.2893 9.1864 15.0779 9.00477C14.8825 8.83683 14.6305 8.73007 12.9674 8.1107C12.0045 7.75205 11.3242 7.47546 11.2712 7.42098C11.2225 7.37098 10.5861 6.03728 9.85686 4.45727C9.12768 2.87722 8.51029 1.55953 8.48494 1.52898C8.41713 1.44726 7.68847 1.16503 7.54531 1.16503C7.47766 1.16503 7.36983 1.2063 7.30572 1.25673ZM1.24999 15.4385C1.00704 15.5892 0.966162 15.9407 1.1681 16.1427L1.29388 16.2684H8.83069H16.3675L16.4933 16.1427C16.632 16.004 16.6596 15.8022 16.5676 15.6003C16.4537 15.3502 16.9325 15.3647 8.82208 15.366C1.95232 15.367 1.35597 15.3727 1.24999 15.4385Z" fill="#679DFF"/>
</svg>
