<svg width="17" height="17" viewBox="0 0 17 17" fill="none" xmlns="http://www.w3.org/2000/svg">
<g clip-path="url(#clip0_795_12316)">
<path fill-rule="evenodd" clip-rule="evenodd" d="M8.61369 3.04846H7.58069V1.77246H7.97869C8.22969 1.77246 8.42169 1.56746 8.42169 1.29846C8.42169 1.02946 8.22969 0.824463 7.97869 0.824463H3.07669C2.82569 0.824463 2.63369 1.02946 2.63369 1.29846C2.63369 1.56746 2.82569 1.77246 3.07669 1.77246H3.47469V3.04846H2.44169C1.54169 3.04846 0.804688 3.83846 0.804688 4.80246V13.2325C0.804688 14.1965 1.54269 14.9865 2.44169 14.9865H2.45669V15.1295C2.45669 15.5085 2.75169 15.8245 3.10669 15.8245H3.43069C3.78469 15.8245 4.07969 15.5085 4.07969 15.1295V14.9865H6.93169V15.1295C6.93169 15.5085 7.22669 15.8245 7.58069 15.8245H7.90469C8.25969 15.8245 8.55469 15.5085 8.55469 15.1295V14.9865H8.56869C9.46869 14.9865 10.2067 14.1965 10.2067 13.2325V4.80246C10.2657 3.83846 9.52769 3.04846 8.61369 3.04846ZM6.69569 1.77246V3.04846H4.37469V1.77246H6.69569ZM3.57169 5.92446C3.57169 5.65646 3.69969 5.45046 3.86669 5.45046C4.02469 5.45046 4.16269 5.67246 4.16269 5.92446V12.0945C4.16269 12.3635 4.03469 12.5685 3.86669 12.5685C3.69969 12.5685 3.57169 12.3635 3.57169 12.0945V5.92446ZM5.61669 5.51246C5.44969 5.51246 5.32169 5.71746 5.32169 5.98646V12.1555C5.32169 12.4245 5.44969 12.6295 5.61669 12.6295C5.78469 12.6295 5.91269 12.4245 5.91269 12.1555V5.98546C5.91269 5.73346 5.78469 5.51246 5.61669 5.51246ZM7.07169 5.98646C7.07169 5.71746 7.19969 5.51246 7.36669 5.51246C7.53469 5.51246 7.66269 5.73246 7.66269 5.98646V12.1555C7.66269 12.4245 7.53469 12.6295 7.36669 12.6295C7.19969 12.6295 7.07169 12.4245 7.07169 12.1555V5.98546V5.98646Z" fill="#323232"/>
</g>
<defs>
<clipPath id="clip0_795_12316">
<rect width="16" height="16" fill="white" transform="translate(0.511719 0.824463)"/>
</clipPath>
</defs>
</svg>
