<svg width="33" height="33" viewBox="0 0 33 33" fill="none" xmlns="http://www.w3.org/2000/svg">
<g clip-path="url(#clip0_468_2874)">
<path d="M31.2447 19.034H27.101V13.7674H27.2191C27.4952 13.7674 27.7191 13.5436 27.7191 13.2674V11.6496H30.3105C30.5867 11.6496 30.8105 11.4257 30.8105 11.1496V11.133C30.8105 10.4947 30.8105 9.30655 30.807 8.6543C30.806 8.4753 30.7094 8.31055 30.5538 8.22218L16.6199 0.31299C16.4668 0.226053 16.2791 0.226053 16.126 0.313115L2.20767 8.22318C2.05592 8.30943 1.96011 8.46855 1.95492 8.64305C1.93555 9.29762 1.93555 10.5023 1.93555 11.1496C1.93555 11.4257 2.15942 11.6496 2.43555 11.6496H5.02698V13.2674C5.02698 13.5436 5.25086 13.7674 5.52698 13.7674H5.64511V22.0552H5.52698C5.25086 22.0552 5.02698 22.2791 5.02698 22.5552V23.9372H2.78923C2.51311 23.9372 2.28923 24.1611 2.28923 24.4372V26.3524H0.873047C0.596922 26.3524 0.373047 26.5762 0.373047 26.8524V29.2676C0.373047 29.5437 0.596922 29.7676 0.873047 29.7676H13.0114V31.1194C13.0114 31.7416 13.5175 32.2477 14.1397 32.2477H31.2447C31.8669 32.2477 32.373 31.7416 32.373 31.1194V20.1623C32.373 19.5401 31.8669 19.034 31.2447 19.034ZM31.373 20.1623V22.3714H14.0114V20.1623C14.0114 20.0927 14.0701 20.034 14.1397 20.034H31.2447C31.3143 20.034 31.373 20.0927 31.373 20.1623ZM10.2834 22.0552H10.1654V13.7674H10.2834C10.5595 13.7674 10.7834 13.5436 10.7834 13.2674V11.6496H13.4949V13.2674C13.4949 13.5436 13.7187 13.7674 13.9949 13.7674H14.113V19.0353C13.5032 19.0497 13.0114 19.5491 13.0114 20.1623V23.9372H10.7835V22.5553C10.7834 22.2791 10.5595 22.0552 10.2834 22.0552ZM22.4627 13.7674H22.5809V19.034H18.6332V13.7674H18.7514C19.0275 13.7674 19.2514 13.5436 19.2514 13.2674V11.6496H21.9628V13.2674C21.9627 13.5436 22.1865 13.7674 22.4627 13.7674ZM15.113 13.7674H17.6332V19.034H15.113V13.7674ZM18.2513 12.7674H14.4949V11.6496H18.2513V12.7674ZM14.0114 23.3714H31.373V24.3992H14.0114V23.3714ZM26.101 19.034H23.5808V13.7674H26.101V19.034ZM26.7191 12.7674H22.9627V11.6496H26.7191V12.7674ZM16.3732 1.3228L28.6832 8.3103H4.0783L16.3732 1.3228ZM2.94273 9.3103H29.7591C29.776 9.3103 29.7928 9.30943 29.8093 9.30774C29.8102 9.74218 29.8105 10.2352 29.8106 10.6496H2.93573C2.93623 10.2332 2.93773 9.74105 2.94273 9.3103ZM9.78342 11.6496V12.7674H6.02698V11.6496H9.78342ZM6.64511 13.7674H9.16536V22.0552H6.64511V13.7674ZM6.02698 23.0552H9.78342V23.9372H6.02698V23.0552ZM3.28923 24.9372H13.0114V26.3524H3.28923V24.9372ZM1.37305 28.7676V27.3524H13.0114V28.7676H1.37305ZM31.2447 31.2478H14.1397C14.0702 31.2478 14.0114 31.1891 14.0114 31.1195V25.3992H31.373V31.1195C31.373 31.1891 31.3143 31.2478 31.2447 31.2478ZM22.822 27.0278C22.822 27.3039 22.5982 27.5278 22.322 27.5278H15.751C15.4749 27.5278 15.251 27.3039 15.251 27.0278C15.251 26.7517 15.4749 26.5278 15.751 26.5278H22.322C22.5982 26.5278 22.822 26.7517 22.822 27.0278ZM29.4896 26.9906H25.9642C25.617 26.9906 25.3347 27.2729 25.3347 27.6201V29.8784C25.3347 30.2255 25.617 30.5079 25.9642 30.5079H29.4896C29.8367 30.5079 30.1191 30.2255 30.1191 29.8784V27.6201C30.1191 27.2729 29.8367 26.9906 29.4896 26.9906ZM29.1191 29.5079H26.3347V27.9906H29.1191V29.5079Z" fill="#777777"/>
</g>
<defs>
<clipPath id="clip0_468_2874">
<rect width="32" height="32" fill="white" transform="translate(0.373047 0.247803)"/>
</clipPath>
</defs>
</svg>
