<svg width="25" height="25" viewBox="0 0 25 25" fill="none" xmlns="http://www.w3.org/2000/svg">
<g clip-path="url(#clip0_318_1006)">
<path d="M23.3027 17.0645H22.9277V14.0645C22.9272 13.6668 22.769 13.2856 22.4878 13.0044C22.2066 12.7232 21.8254 12.565 21.4277 12.5645V6.18945C21.4272 5.79179 21.269 5.41056 20.9878 5.12937C20.7066 4.84818 20.3254 4.68997 19.9277 4.68945H4.17773C3.78007 4.68997 3.39884 4.84818 3.11765 5.12937C2.83646 5.41056 2.67826 5.79179 2.67773 6.18945V12.5645C2.28007 12.565 1.89884 12.7232 1.61765 13.0044C1.33646 13.2856 1.17826 13.6668 1.17773 14.0645V17.0645H0.802734C0.703278 17.0645 0.607895 17.104 0.537569 17.1743C0.467243 17.2446 0.427734 17.34 0.427734 17.4395V18.9395C0.427734 19.0389 0.467243 19.1343 0.537569 19.2046C0.607895 19.2749 0.703278 19.3145 0.802734 19.3145H1.17773V20.8145C1.17773 20.9139 1.21724 21.0093 1.28757 21.0796C1.3579 21.1499 1.45328 21.1895 1.55273 21.1895H2.67773C2.7644 21.1895 2.84841 21.1595 2.91542 21.1045C2.98243 21.0496 3.02831 20.973 3.04523 20.888L3.36023 19.3145H20.7452L21.0602 20.888C21.0772 20.973 21.123 21.0496 21.19 21.1045C21.2571 21.1595 21.3411 21.1895 21.4277 21.1895H22.5527C22.6522 21.1895 22.7476 21.1499 22.8179 21.0796C22.8882 21.0093 22.9277 20.9139 22.9277 20.8145V19.3145H23.3027C23.4022 19.3145 23.4976 19.2749 23.5679 19.2046C23.6382 19.1343 23.6777 19.0389 23.6777 18.9395V17.4395C23.6777 17.34 23.6382 17.2446 23.5679 17.1743C23.4976 17.104 23.4022 17.0645 23.3027 17.0645ZM3.42773 6.18945C3.42799 5.99062 3.5071 5.80001 3.64769 5.65941C3.78829 5.51881 3.9789 5.43971 4.17773 5.43945H19.9277C20.1266 5.43971 20.3172 5.51881 20.4578 5.65941C20.5984 5.80001 20.6775 5.99062 20.6777 6.18945V12.5645H19.9277V11.0645C19.9272 10.6668 19.769 10.2856 19.4878 10.0044C19.2066 9.72318 18.8254 9.56497 18.4277 9.56445H13.9277C13.5301 9.56497 13.1488 9.72318 12.8676 10.0044C12.5865 10.2856 12.4283 10.6668 12.4277 11.0645V12.5645H11.6777V11.0645C11.6772 10.6668 11.519 10.2856 11.2378 10.0044C10.9566 9.72318 10.5754 9.56497 10.1777 9.56445H5.67773C5.28007 9.56497 4.89884 9.72318 4.61765 10.0044C4.33646 10.2856 4.17826 10.6668 4.17773 11.0645V12.5645H3.42773V6.18945ZM19.1777 11.0645V12.5645H13.1777V11.0645C13.178 10.8656 13.2571 10.675 13.3977 10.5344C13.5383 10.3938 13.7289 10.3147 13.9277 10.3145H18.4277C18.6266 10.3147 18.8172 10.3938 18.9578 10.5344C19.0984 10.675 19.1775 10.8656 19.1777 11.0645ZM10.9277 11.0645V12.5645H4.92773V11.0645C4.92799 10.8656 5.0071 10.675 5.14769 10.5344C5.28829 10.3938 5.4789 10.3147 5.67773 10.3145H10.1777C10.3766 10.3147 10.5672 10.3938 10.7078 10.5344C10.8484 10.675 10.9275 10.8656 10.9277 11.0645ZM1.92773 14.0645C1.92799 13.8656 2.0071 13.675 2.14769 13.5344C2.28829 13.3938 2.4789 13.3147 2.67773 13.3145H21.4277C21.6266 13.3147 21.8172 13.3938 21.9578 13.5344C22.0984 13.675 22.1775 13.8656 22.1777 14.0645V17.0645H1.92773V14.0645ZM2.37023 20.4395H1.92773V19.3145H2.59523L2.37023 20.4395ZM22.1777 20.4395H21.7352L21.5102 19.3145H22.1777V20.4395ZM22.9277 18.5645H1.17773V17.8145H22.9277V18.5645Z" fill="#323232"/>
</g>
<defs>
<clipPath id="clip0_318_1006">
<rect width="24" height="24" fill="white" transform="translate(0.0527344 0.939453)"/>
</clipPath>
</defs>
</svg>
