<svg width="1920" height="311" viewBox="0 0 1920 311" fill="none" xmlns="http://www.w3.org/2000/svg">
<rect y="0.611816" width="1920" height="309.521" fill="#E0F5FD"/>
<path d="M202.796 185.003C202.796 188.312 199.658 190.995 195.788 190.995C191.917 190.995 188.779 188.312 188.779 185.003C188.779 181.694 191.917 179.011 195.788 179.011C199.658 179.011 202.796 181.694 202.796 185.003Z" fill="white"/>
<path d="M217.801 172.174C217.801 175.483 214.663 178.166 210.793 178.166C206.922 178.166 203.784 175.483 203.784 172.174C203.784 168.864 206.922 166.182 210.793 166.182C214.663 166.182 217.801 168.864 217.801 172.174Z" fill="white"/>
<path d="M1.14522 175.528L78.0272 127.577C93.3272 114.496 107.198 111.481 122.497 124.562C137.796 137.643 140.09 151.471 124.791 164.552L93.7111 191.126C86.9942 196.869 86.9942 206.18 93.7111 211.923C100.427 217.667 111.318 217.667 118.035 211.923L124.791 206.146C138.598 194.342 160.983 194.342 174.79 206.146C188.597 217.952 188.597 237.091 174.79 248.896L147.088 272.582C144.103 275.134 144.103 279.272 147.088 281.826C150.073 284.378 154.913 284.378 157.899 281.826L225.465 224.055C237.405 213.846 256.766 213.846 268.707 224.055C280.648 234.265 280.648 250.818 268.707 261.028L250.464 276.626C247.852 278.859 247.852 282.48 250.464 284.714C253.077 286.947 257.311 286.947 259.924 284.714L261.436 283.42C293.439 256.058 345.324 256.058 377.327 283.42L408.568 310.133H-97.501C-97.501 310.133 7.22617 180.728 1.14522 175.528Z" fill="#CEF0E6"/>
<path d="M-48.2988 263.982L48.1533 181.514" stroke="#CEF0E6" stroke-width="4" stroke-miterlimit="10" stroke-linecap="round"/>
<path d="M124.621 172.174C124.621 180.215 116.998 186.734 107.593 186.734C98.1879 186.734 90.5635 180.215 90.5635 172.174C90.5635 164.133 98.1879 157.614 107.593 157.614C116.998 157.614 124.621 164.133 124.621 172.174Z" fill="white"/>
<path d="M42.4376 304.602C43.6153 304.266 88.1152 265.805 105.137 251.067C108.741 247.947 114.621 247.936 118.248 251.036C121.858 254.123 121.858 259.127 118.248 262.214L104.259 274.175C102.448 275.723 102.448 278.234 104.259 279.783C106.07 281.331 109.006 281.331 110.817 279.783L116.647 274.798C120.605 271.414 127.021 271.414 130.979 274.798C134.936 278.182 134.936 283.668 130.979 287.052C129.302 288.486 129.302 290.811 130.979 292.245L147.375 306.264H40.9805" fill="#B8E3DB"/>
<path d="M1697.27 185.003C1697.27 188.312 1700.41 190.995 1704.28 190.995C1708.15 190.995 1711.29 188.312 1711.29 185.003C1711.29 181.694 1708.15 179.011 1704.28 179.011C1700.41 179.011 1697.27 181.694 1697.27 185.003Z" fill="white"/>
<path d="M1682.27 172.174C1682.27 175.483 1685.41 178.166 1689.28 178.166C1693.15 178.166 1696.29 175.483 1696.29 172.174C1696.29 168.864 1693.15 166.182 1689.28 166.182C1685.41 166.182 1682.27 168.864 1682.27 172.174Z" fill="white"/>
<path d="M1899.84 175.709L1822.04 127.577C1806.74 114.496 1792.87 111.481 1777.57 124.562C1762.27 137.643 1759.98 151.471 1775.28 164.552L1806.36 191.126C1813.07 196.869 1813.07 206.18 1806.36 211.923C1799.64 217.667 1788.75 217.667 1782.03 211.923L1775.28 206.146C1761.47 194.342 1739.09 194.342 1725.28 206.146C1711.47 217.952 1711.47 237.091 1725.28 248.896L1752.98 272.582C1755.97 275.134 1755.97 279.272 1752.98 281.826C1749.99 284.378 1745.16 284.378 1742.17 281.826L1674.6 224.055C1662.66 213.846 1643.3 213.846 1631.36 224.055C1619.42 234.265 1619.42 250.818 1631.36 261.028L1649.6 276.626C1652.22 278.859 1652.22 282.48 1649.6 284.714C1646.99 286.947 1642.76 286.947 1640.14 284.714L1638.63 283.42C1606.63 256.058 1554.74 256.058 1522.74 283.42L1491.5 310.133H1997.57C1997.57 310.133 1893.75 180.909 1899.84 175.709Z" fill="#CEF0E6"/>
<path d="M1948.37 263.982L1851.92 181.514" stroke="#CEF0E6" stroke-width="4" stroke-miterlimit="10" stroke-linecap="round"/>
<path d="M1805.89 227.078C1805.89 235.12 1813.51 241.639 1822.92 241.639C1832.32 241.639 1839.95 235.12 1839.95 227.078C1839.95 219.038 1832.32 212.519 1822.92 212.519C1813.51 212.519 1805.89 219.038 1805.89 227.078Z" fill="white"/>
<path d="M1857.63 304.602C1856.45 304.266 1811.95 265.805 1794.93 251.067C1791.33 247.947 1785.45 247.936 1781.82 251.036C1778.21 254.123 1778.21 259.127 1781.82 262.214L1795.81 274.175C1797.62 275.723 1797.62 278.234 1795.81 279.783C1794 281.331 1791.06 281.331 1789.25 279.783L1783.42 274.798C1779.46 271.414 1773.05 271.414 1769.09 274.798C1765.13 278.182 1765.13 283.668 1769.09 287.052C1770.77 288.486 1770.77 290.811 1769.09 292.245L1752.69 306.264H1859.09" fill="#B8E3DB"/>
</svg>
