<svg width="21" height="21" viewBox="0 0 21 21" fill="none" xmlns="http://www.w3.org/2000/svg">
<g clip-path="url(#clip0_318_1021)">
<path d="M10.2734 4.8125C7.21488 4.8125 4.72656 7.30082 4.72656 10.3594C4.72656 13.4179 7.21488 15.9062 10.2734 15.9062C13.332 15.9062 15.8203 13.4179 15.8203 10.3594C15.8203 7.30082 13.332 4.8125 10.2734 4.8125ZM10.2734 15.125C7.64566 15.125 5.50781 12.9871 5.50781 10.3594C5.50781 7.7316 7.64566 5.59375 10.2734 5.59375C12.9012 5.59375 15.0391 7.7316 15.0391 10.3594C15.0391 12.9871 12.9012 15.125 10.2734 15.125Z" fill="#323232"/>
<path d="M20.0661 0.405C19.9384 0.337266 19.7838 0.34543 19.6641 0.426289C17.7464 1.72203 16.6016 3.87734 16.6016 6.19176V11.2602C16.6016 11.8038 16.8133 12.3149 17.1977 12.6993L17.9297 13.4314V19.1875C17.9297 19.8337 18.4554 20.3594 19.1016 20.3594C19.7477 20.3594 20.2734 19.8337 20.2734 19.1875V0.75C20.2734 0.605508 20.1937 0.472813 20.0661 0.405ZM19.4922 19.1875C19.4922 19.4029 19.317 19.5781 19.1016 19.5781C18.8862 19.5781 18.7109 19.4029 18.7109 19.1875V13.2695C18.7109 13.1659 18.6698 13.0666 18.5965 12.9933L17.7501 12.1469C17.5132 11.91 17.3828 11.5952 17.3828 11.2602V6.19176C17.3828 4.39566 18.1594 2.70762 19.4922 1.54285V19.1875Z" fill="#323232"/>
<path d="M9.37824 7.26175C9.29355 7.06336 9.06395 6.97121 8.86559 7.05586C7.54008 7.62171 6.68359 8.91855 6.68359 10.3597C6.68359 10.5754 6.85848 10.7503 7.07422 10.7503C7.28996 10.7503 7.46484 10.5754 7.46484 10.3597C7.46484 9.23199 8.13508 8.21718 9.17234 7.77441C9.37074 7.68972 9.46293 7.46019 9.37824 7.26175Z" fill="#323232"/>
<path d="M10.273 6.76855L10.2533 6.76859C10.0375 6.77004 9.8638 6.94609 9.86524 7.16184C9.86669 7.37668 10.0413 7.54984 10.2558 7.54984C10.2567 7.54984 10.2576 7.54984 10.2585 7.54984L10.273 7.5498C10.4887 7.5498 10.6636 7.37492 10.6636 7.15918C10.6636 6.94344 10.4887 6.76855 10.273 6.76855Z" fill="#323232"/>
<path d="M15.6889 5.22227C14.9987 4.49508 14.1852 3.92289 13.271 3.52164C12.3242 3.10617 11.3159 2.89551 10.2739 2.89551C9.08331 2.89551 7.94518 3.16762 6.8912 3.70434C6.69897 3.80223 6.62245 4.03742 6.72034 4.22969C6.81827 4.42188 7.05346 4.49836 7.24573 4.40051C8.18886 3.92027 9.20768 3.67676 10.2739 3.67676C12.1253 3.67676 13.8472 4.4166 15.1222 5.76008C15.199 5.84102 15.3022 5.8818 15.4056 5.8818C15.5022 5.8818 15.5989 5.84621 15.6744 5.77449C15.8309 5.62598 15.8374 5.37875 15.6889 5.22227Z" fill="#323232"/>
<path d="M16.0683 14.4367C15.8991 14.303 15.6535 14.3317 15.5197 14.5009C14.2426 16.1161 12.3307 17.0425 10.2742 17.0425C8.98706 17.0425 7.73756 16.6759 6.66077 15.9824C6.47944 15.8656 6.23764 15.9179 6.12084 16.0993C6.00405 16.2807 6.05639 16.5224 6.23776 16.6392C7.44096 17.4141 8.83674 17.8237 10.2742 17.8237C12.571 17.8237 14.7063 16.7892 16.1325 14.9854C16.2663 14.8162 16.2376 14.5706 16.0683 14.4367Z" fill="#323232"/>
<path d="M5.5843 15.122L5.57855 15.1154C5.57648 15.1129 5.57441 15.1103 5.57226 15.1078C5.43332 14.9427 5.18691 14.9216 5.02187 15.0605C4.85684 15.1995 4.83566 15.4459 4.97465 15.611L4.97844 15.6155L4.97863 15.6153C4.98277 15.6205 4.98707 15.6258 4.99152 15.6309C5.06879 15.7209 5.17809 15.7671 5.28809 15.7671C5.37816 15.7671 5.46867 15.7361 5.54234 15.6729C5.70602 15.5323 5.7248 15.2857 5.5843 15.122Z" fill="#323232"/>
<path d="M5.11719 0.359375C4.90145 0.359375 4.72656 0.534258 4.72656 0.75V4.96875H4.02312C4.02316 4.96656 4.02344 4.96445 4.02344 4.96223V0.75C4.02344 0.534258 3.84855 0.359375 3.63281 0.359375C3.41707 0.359375 3.24219 0.534258 3.24219 0.75V4.96223C3.24219 4.96441 3.2425 4.96656 3.2425 4.96875H2.53875C2.53879 4.96656 2.53906 4.96445 2.53906 4.96223V0.75C2.53906 0.534258 2.36418 0.359375 2.14844 0.359375C1.9327 0.359375 1.75781 0.534258 1.75781 0.75V4.96223C1.75781 4.96441 1.75812 4.96656 1.75812 4.96875H1.05469V0.75C1.05469 0.534258 0.879805 0.359375 0.664062 0.359375C0.44832 0.359375 0.273438 0.534258 0.273438 0.75V5.51562C0.273438 6.47383 0.854844 7.33863 1.71875 7.71246V19.1875C1.71875 19.8337 2.24445 20.3594 2.89062 20.3594C3.5368 20.3594 4.0625 19.8337 4.0625 19.1875V7.71246C4.92641 7.33863 5.50781 6.47383 5.50781 5.51562V0.75C5.50781 0.534258 5.33293 0.359375 5.11719 0.359375ZM3.56344 7.06328C3.39633 7.11156 3.28125 7.26457 3.28125 7.43855V19.1875C3.28125 19.4029 3.10602 19.5781 2.89062 19.5781C2.67523 19.5781 2.5 19.4029 2.5 19.1875V7.43855C2.5 7.26457 2.38496 7.11156 2.21781 7.06328C1.6091 6.88738 1.16387 6.36488 1.07234 5.75H4.70887C4.61738 6.36488 4.17215 6.88738 3.56344 7.06328Z" fill="#323232"/>
</g>
<defs>
<clipPath id="clip0_318_1021">
<rect width="20" height="20" fill="white" transform="translate(0.273438 0.359375)"/>
</clipPath>
</defs>
</svg>
