<svg width="16" height="16" viewBox="0 0 16 16" fill="none" xmlns="http://www.w3.org/2000/svg">
<path fill-rule="evenodd" clip-rule="evenodd" d="M4.6774 0.133723C3.41076 0.328899 2.23569 0.72452 1.95371 1.0509C1.6893 1.35684 1.50616 1.96005 1.40418 2.8613C1.33081 3.51004 1.25278 3.69519 0.927784 3.99209C0.547843 4.33917 0.539062 4.37278 0.539062 5.48401C0.539062 6.50454 0.567411 6.64377 0.815395 6.84472C1.08709 7.06473 1.09173 7.12155 1.08934 10.2173C1.08646 13.86 1.12158 14.0248 1.91997 14.1248L2.42058 14.1875L2.45808 14.906C2.50061 15.7195 2.75511 16.0093 3.42067 16.0023C4.04922 15.9958 4.29156 15.7134 4.36369 14.9041L4.42753 14.1875L8.03377 14.1543L11.64 14.1209V14.8037C11.64 15.3918 11.6858 15.5224 11.9705 15.7463C12.4178 16.0983 12.9582 16.0793 13.339 15.6984C13.5836 15.4539 13.647 15.2619 13.647 14.7653V14.14L14.1173 14.101L14.5877 14.0621L14.6211 10.5684C14.6538 7.13535 14.6592 7.07088 14.9315 6.85036C15.1623 6.66347 15.2162 6.47193 15.2537 5.70302C15.3043 4.66517 15.144 4.0972 14.773 4.00024C14.5078 3.93088 14.4854 3.86803 14.2667 2.59011C14.1906 2.14469 14.0441 1.61761 13.9414 1.41893C13.6911 0.934873 12.7418 0.514919 11.3264 0.262168C9.75825 -0.0178018 6.11776 -0.0881705 4.6774 0.133723ZM4.13815 1.98902L4.17666 2.52212H7.81426H11.4519L11.4904 1.98902L11.529 1.45593H7.81426H4.09952L4.13815 1.98902ZM2.8596 5.78342V8.35483H7.81426H12.7689V5.78342V3.21201H7.81426H2.8596V5.78342ZM3.54385 11.1715C2.90651 11.8087 3.36322 12.8705 4.2745 12.8705C4.83507 12.8705 5.24286 12.4405 5.24286 11.8494C5.24286 10.9508 4.18607 10.5291 3.54385 11.1715ZM10.8725 10.9898C10.508 11.2028 10.3334 11.8142 10.5131 12.2481C10.6962 12.6903 10.979 12.8721 11.4749 12.8665C12.4132 12.8559 12.7995 11.6095 12.0428 11.0345C11.7918 10.8438 11.1635 10.8197 10.8725 10.9898Z" fill="#777777"/>
</svg>
