<svg width="19" height="16" viewBox="0 0 19 16" fill="none" xmlns="http://www.w3.org/2000/svg">
<path fill-rule="evenodd" clip-rule="evenodd" d="M6.79409 0.455242C6.68049 0.704308 6.58769 0.944308 6.58769 0.988575C6.58769 1.03284 7.94769 1.06911 9.60991 1.06911C11.2721 1.06911 12.6321 1.03284 12.6321 0.988575C12.6321 0.944308 12.5393 0.704308 12.4257 0.455242L12.2195 0.00244141H9.60991H7.00031L6.79409 0.455242ZM4.8988 1.99497C4.46644 2.24297 4.33809 2.40031 3.19035 4.09133C2.34822 5.33186 2.23391 5.43089 1.54911 5.51355C0.627331 5.62484 0.454175 6.1164 1.14342 6.66591L1.60564 7.03462L1.22235 8.00742C0.91622 8.78449 0.823064 9.47213 0.759775 11.4247L0.680664 13.8691H9.60991H18.5392L18.46 11.4247C18.3968 9.47213 18.3036 8.78449 17.9975 8.00742L17.6142 7.03462L18.0764 6.66591C18.7656 6.1164 18.5925 5.62484 17.6707 5.51355C16.9859 5.43089 16.8716 5.33186 16.0295 4.09133C14.8531 2.35835 14.7489 2.23249 14.2883 1.98697C13.7528 1.70182 5.39764 1.70893 4.8988 1.99497ZM4.3164 4.93577L3.07711 6.66911L6.3436 6.71746C8.14004 6.74413 11.0798 6.74413 12.8762 6.71746L16.1427 6.66911L14.9034 4.93577L13.6643 3.20244H9.60991H5.55551L4.3164 4.93577ZM2.07142 9.04155C2.02022 9.12422 1.92795 9.50822 1.86609 9.89471C1.71604 10.8334 1.90591 10.9523 3.77489 11.0894C5.04618 11.1827 5.36689 11.1534 5.59711 10.9232C6.21186 10.3084 5.94235 10.0026 4.21098 9.35089C2.96031 8.88013 2.23586 8.77542 2.07142 9.04155ZM14.9432 9.35533C13.5751 9.88529 13.2657 10.1448 13.4206 10.6328C13.5831 11.1445 13.8501 11.1996 15.5751 11.0778C17.3278 10.9541 17.5941 10.7248 17.3022 9.59089C17.1713 9.0828 17.057 8.97417 16.6218 8.94395C16.3342 8.92404 15.5788 9.10911 14.9432 9.35533ZM6.5324 12.5614C6.46502 12.6288 6.40991 12.7905 6.40991 12.921C6.40991 13.1098 7.06395 13.158 9.62289 13.158C12.5872 13.158 12.8314 13.134 12.7763 12.8469C12.7226 12.5674 12.4083 12.5308 9.68582 12.4872C8.0188 12.4606 6.59995 12.494 6.5324 12.5614ZM1.43213 15.2913V16.0024H2.4988H3.56546V15.2913V14.5802H2.4988H1.43213V15.2913ZM15.6544 15.2913V16.0024H16.721H17.7877V15.2913V14.5802H16.721H15.6544V15.2913Z" fill="#777777"/>
</svg>
