<svg width="17" height="17" viewBox="0 0 17 17" fill="none" xmlns="http://www.w3.org/2000/svg">
<path id="Vector" fill-rule="evenodd" clip-rule="evenodd" d="M3.80419 0.85155C3.65636 0.937597 3.58532 1.1337 3.58532 1.45501V1.93102L2.77587 2.00656C2.33076 2.04821 1.80434 2.16602 1.60636 2.26845C1.13785 2.51071 0.487997 3.25537 0.366555 3.6891C0.241862 4.13497 0.241862 14.5574 0.366555 15.0033C0.488872 15.4403 1.13423 16.1767 1.634 16.4495C2.21132 16.7646 7.32449 16.8444 7.78087 16.5454C8.1627 16.2951 8.17496 15.9251 7.80976 15.6693C7.57951 15.508 7.07773 15.4746 4.88028 15.4746H2.22883L1.84399 15.0897L1.45915 14.7049V9.3462V3.98752L1.84399 3.60268C2.17905 3.26762 2.31637 3.21785 2.90707 3.21785H3.58532V3.71374C3.58532 4.34972 3.93664 4.59485 4.40664 4.28693C4.63239 4.13898 4.71093 3.97539 4.71093 3.65271V3.21785H6.14922H7.58751V3.65271C7.58751 3.97539 7.66605 4.13898 7.8918 4.28693C8.36181 4.59485 8.71313 4.34972 8.71313 3.71374V3.21785H10.2139H11.7148L11.7166 3.62432C11.7193 4.17249 11.8705 4.37473 12.2776 4.37473C12.6847 4.37473 12.8359 4.17249 12.8385 3.62432L12.8404 3.21785H13.5186C14.1093 3.21785 14.2467 3.26762 14.5817 3.60268L14.9666 3.98752L14.9683 5.94772C14.9692 7.02581 15.0034 8.03273 15.0443 8.18519C15.1737 8.66771 16.0089 8.71436 16.1322 8.24597C16.163 8.12879 16.1886 9.10232 16.189 10.4093C16.1896 11.9871 16.1553 12.6109 16.087 12.2658C15.5081 9.3397 11.9739 8.23122 9.82599 10.3022C8.40371 11.6736 8.35981 14.0645 9.73093 15.4774C11.1764 16.9668 13.5405 17.0328 15.0128 15.6248C15.5765 15.0855 16.0804 14.0988 16.1113 13.4735C16.1278 13.1409 16.1532 13.2009 16.2172 13.7236C16.2636 14.1019 16.3107 12.0866 16.3219 9.24502C16.3354 5.8274 16.2999 4.10471 16.2172 4.15586C16.1484 4.19838 16.0922 4.11446 16.0922 3.96938C16.0922 3.42921 15.4393 2.584 14.7469 2.2278C14.5918 2.14801 14.0993 2.04858 13.6526 2.00681C12.8443 1.93139 12.8404 1.92914 12.8385 1.54255C12.8359 1.01239 12.6811 0.810277 12.2776 0.810277C11.8705 0.810277 11.7193 1.01251 11.7166 1.56069L11.7148 1.96716H10.2139H8.71313V1.47126C8.71313 0.835291 8.36181 0.590157 7.8918 0.898075C7.66605 1.04603 7.58751 1.20962 7.58751 1.5323V1.96716H6.14922H4.71093V1.53655C4.71093 1.23326 4.62864 1.04828 4.43291 0.911207C4.10973 0.684708 4.09322 0.683208 3.80419 0.85155ZM0.265625 9.3462C0.265625 12.2009 0.282009 13.3688 0.302145 11.9414C0.322156 10.5141 0.322156 8.17844 0.302145 6.75103C0.282009 5.32375 0.265625 6.49151 0.265625 9.3462ZM3.7354 6.86985C3.54242 7.06283 3.54242 7.50232 3.7354 7.6953C4.18977 8.14967 4.90229 7.5611 4.59437 6.98566C4.43791 6.69337 3.97441 6.63084 3.7354 6.86985ZM6.47753 6.83258C6.38298 6.89248 6.30556 7.09497 6.30556 7.28257C6.30556 7.63214 6.50467 7.8415 6.8371 7.8415C7.16953 7.8415 7.36864 7.63214 7.36864 7.28257C7.36864 6.93301 7.16953 6.72364 6.8371 6.72364C6.73392 6.72364 6.57208 6.77267 6.47753 6.83258ZM9.07983 6.98566C8.87897 7.36111 9.11472 7.84538 9.49843 7.84538C9.85925 7.84538 10.0889 7.62651 10.0889 7.28257C10.0889 6.71576 9.34197 6.49602 9.07983 6.98566ZM11.8649 6.86985C11.6719 7.06283 11.6719 7.50232 11.8649 7.6953C12.0578 7.88828 12.4973 7.88828 12.6903 7.6953C13.0411 7.34448 12.7769 6.71976 12.2776 6.71976C12.1331 6.71976 11.9474 6.7873 11.8649 6.86985ZM3.7354 9.62135C3.52804 9.82872 3.5473 10.2846 3.77129 10.4704C4.24368 10.8625 4.97658 10.1296 4.58449 9.65725C4.39864 9.43325 3.94276 9.41399 3.7354 9.62135ZM6.33232 9.72979C6.1576 10.0563 6.47227 10.5969 6.8371 10.5969C6.97155 10.5969 7.17116 10.4599 7.28084 10.2926C7.55712 9.87099 7.34113 9.47127 6.8371 9.47127C6.59472 9.47127 6.42387 9.55882 6.33232 9.72979ZM11.591 10.5113C10.9511 10.7151 10.168 11.5557 9.97469 12.2464C9.55634 13.7407 10.6245 15.3217 12.1373 15.4472C13.7579 15.5816 14.9567 14.5139 14.9638 12.9295C14.9673 12.171 14.7023 11.6017 14.0871 11.0459C13.3682 10.3964 12.5212 10.2151 11.591 10.5113ZM11.9693 11.339C11.7899 11.6742 11.8052 13.1387 11.9899 13.3234C12.0747 13.4082 12.4809 13.4735 12.9236 13.4735C13.5875 13.4735 13.7281 13.4341 13.8454 13.2149C14.0363 12.8583 13.7007 12.3478 13.2753 12.3478C13 12.3478 12.9655 12.2949 12.9655 11.8726C12.9655 11.6112 12.8979 11.3298 12.8154 11.2472C12.5856 11.0175 12.114 11.0686 11.9693 11.339ZM3.80419 12.2328C3.49139 12.415 3.51691 13.0529 3.84383 13.2278C4.04494 13.3354 4.17001 13.3219 4.40664 13.1668C4.7861 12.9182 4.79723 12.5476 4.43291 12.2924C4.10973 12.0659 4.09322 12.0644 3.80419 12.2328ZM6.46189 12.3478C6.32432 12.4854 6.21176 12.6543 6.21176 12.7231C6.21176 12.8853 6.67489 13.3484 6.8371 13.3484C6.99931 13.3484 7.46244 12.8853 7.46244 12.7231C7.46244 12.5608 6.99931 12.0977 6.8371 12.0977C6.76831 12.0977 6.59947 12.2103 6.46189 12.3478Z" fill="#679DFF"/>
</svg>
