<svg width="25" height="25" viewBox="0 0 25 25" fill="none" xmlns="http://www.w3.org/2000/svg">
<g clip-path="url(#clip0_1534_3045)">
<path fill-rule="evenodd" clip-rule="evenodd" d="M12.7461 0.630249C19.3725 0.630249 24.7461 6.00389 24.7461 12.6302C24.7461 19.2566 19.3725 24.6302 12.7461 24.6302C6.11973 24.6302 0.746094 19.2566 0.746094 12.6302C0.746094 6.00389 6.11973 0.630249 12.7461 0.630249ZM6.6809 16.9738L11.0244 12.6302L6.6809 8.28672C6.43173 8.03746 6.43173 7.63088 6.6809 7.38171L7.49756 6.56505C7.74672 6.31589 8.15331 6.31589 8.40257 6.56505L12.7461 10.9086L17.0896 6.56505C17.3389 6.31589 17.7455 6.31589 17.9946 6.56505L18.8113 7.38171C19.0605 7.63088 19.0605 8.03746 18.8113 8.28672L14.4678 12.6302L18.8113 16.9738C19.0605 17.223 19.0605 17.6296 18.8113 17.8788L17.9946 18.6954C17.7455 18.9446 17.3389 18.9446 17.0896 18.6954L12.7461 14.3519L8.40257 18.6954C8.15331 18.9446 7.74672 18.9446 7.49756 18.6954L6.6809 17.8788C6.43173 17.6296 6.43173 17.223 6.6809 16.9738Z" fill="#679DFF"/>
</g>
<defs>
<clipPath id="clip0_1534_3045">
<rect width="24" height="24" fill="white" transform="translate(0.746094 0.630249)"/>
</clipPath>
</defs>
</svg>
