<svg width="25" height="25" viewBox="0 0 25 25" fill="none" xmlns="http://www.w3.org/2000/svg">
<g clip-path="url(#clip0_298_8526)">
<path d="M3.31071 11.5912H20.793C21.0045 11.5912 21.176 11.4197 21.176 11.2082C21.176 10.9967 21.0045 10.8252 20.793 10.8252H3.31071C3.09921 10.8252 2.92773 10.9967 2.92773 11.2082C2.92773 11.4197 3.09921 11.5912 3.31071 11.5912Z" fill="#323232"/>
<path d="M23.7193 12.6138L22.7292 11.0549L22.3583 9.56513H23.1591C23.3706 9.56513 23.5421 9.39366 23.5421 9.18215C23.5421 8.97064 23.3706 8.79917 23.1591 8.79917H22.1676L21.1685 4.78581C20.9204 3.78935 19.9217 3.00879 18.8949 3.00879H5.21059C4.18375 3.00879 3.18504 3.78935 2.93697 4.78581L1.93786 8.79917H0.946351C0.734845 8.79917 0.563373 8.97064 0.563373 9.18215C0.563373 9.39366 0.734845 9.56513 0.946351 9.56513H1.74713L1.37626 11.0549L0.38613 12.6139C0.196071 12.9132 0.0527344 13.4064 0.0527344 13.7609V19.3084C0.0527344 19.5199 0.224207 19.6913 0.435713 19.6913H0.563373V22.4871C0.563373 22.6986 0.734845 22.8701 0.946351 22.8701H4.97585C5.18736 22.8701 5.35883 22.6986 5.35883 22.4871V20.8403C5.35883 20.6288 5.18736 20.4573 4.97585 20.4573C4.76434 20.4573 4.59287 20.6288 4.59287 20.8403V22.1041H1.32933V19.6913H6.79045C6.79153 19.6913 17.3206 19.6913 17.3206 19.6913C17.3241 19.6913 22.7761 19.6913 22.7761 19.6913V22.1041H19.5126V20.8403C19.5126 20.6288 19.3411 20.4573 19.1296 20.4573C18.9181 20.4573 18.7466 20.6288 18.7466 20.8403V22.4871C18.7466 22.6986 18.9181 22.8701 19.1296 22.8701H23.1591C23.3706 22.8701 23.5421 22.6986 23.5421 22.4871V19.6913H23.6698C23.8813 19.6913 24.0527 19.5199 24.0527 19.3084V13.7609C24.0527 13.4064 23.9094 12.9132 23.7193 12.6138ZM0.818692 13.7609C0.818692 13.5519 0.920717 13.2009 1.03275 13.0246L2.05617 11.4131C2.07823 11.3783 2.09457 11.3402 2.10453 11.3003L3.68026 4.97081C3.84167 4.32246 4.54247 3.77475 5.21059 3.77475H18.8949C19.563 3.77475 20.2638 4.32251 20.4252 4.97087L22.0009 11.3002C22.0108 11.3402 22.0272 11.3783 22.0492 11.413L23.0727 13.0245C23.1847 13.2009 23.2867 13.5519 23.2867 13.7609V18.9254H17.5812L16.6561 16.6108C16.598 16.4653 16.4572 16.3699 16.3005 16.3699H7.80494C7.64827 16.3699 7.50744 16.4653 7.44933 16.6108L6.52431 18.9254H0.818692V13.7609ZM16.7563 18.9254H7.34914L8.06434 17.1359H16.0411L16.7563 18.9254Z" fill="#323232"/>
<path d="M1.96696 17.0082H3.40798C4.54962 17.0082 5.47847 16.0794 5.47847 14.9377C5.47847 13.796 4.54967 12.8672 3.40798 12.8672H2.24981C2.0383 12.8672 1.86683 13.0387 1.86683 13.2502C1.86683 13.4617 2.0383 13.6331 2.24981 13.6331H3.40798C4.12727 13.6331 4.71251 14.2183 4.71251 14.9377C4.71251 15.657 4.12732 16.2422 3.40798 16.2422H1.96696C1.75546 16.2422 1.58398 16.4137 1.58398 16.6252C1.58398 16.8367 1.75546 17.0082 1.96696 17.0082Z" fill="#323232"/>
<path d="M18.627 14.9377C18.627 16.0794 19.5558 17.0082 20.6974 17.0082H22.1385C22.35 17.0082 22.5214 16.8367 22.5214 16.6252C22.5214 16.4137 22.35 16.2422 22.1385 16.2422H20.6974C19.9782 16.2422 19.3929 15.657 19.3929 14.9377C19.3929 14.2184 19.9781 13.6331 20.6974 13.6331H21.8557C22.0672 13.6331 22.2386 13.4617 22.2386 13.2502C22.2386 13.0387 22.0672 12.8672 21.8557 12.8672H20.6974C19.5558 12.8672 18.627 13.796 18.627 14.9377Z" fill="#323232"/>
</g>
<defs>
<clipPath id="clip0_298_8526">
<rect width="24" height="24" fill="white" transform="translate(0.0527344 0.939453)"/>
</clipPath>
</defs>
</svg>
