<svg width="95" height="39" viewBox="0 0 95 39" fill="none" xmlns="http://www.w3.org/2000/svg">
<g clip-path="url(#clip0_465_2769)">
<path fill-rule="evenodd" clip-rule="evenodd" d="M30.8822 23.877H30.3691L31.4939 22.267L30.4399 20.7361H30.9724L31.7741 21.9378L32.5697 20.7361H33.0762L32.0223 22.267L33.1276 23.877H32.5996L31.753 22.5852L30.8822 23.877ZM33.8035 23.877H33.29L34.4147 22.267L33.3608 20.7361H33.8933L34.695 21.9378L35.4906 20.7361H35.9971L34.9432 22.267L36.0485 23.877H35.5205L34.6738 22.5852L33.8035 23.877ZM36.724 23.877H36.2109L37.3356 22.267L36.2817 20.7361H36.8142L37.6159 21.9378L38.4114 20.7361H38.918L37.8637 22.267L38.9694 23.877H38.4414L37.5947 22.5852L36.724 23.877Z" fill="black"/>
<path d="M42.3255 5.99548H4.73779C3.12543 5.99548 1.81836 7.30256 1.81836 8.91492V30.0808C1.81836 31.6932 3.12543 33.0002 4.73779 33.0002H42.3255C43.9378 33.0002 45.2449 31.6932 45.2449 30.0808V8.91492C45.2449 7.30256 43.9378 5.99548 42.3255 5.99548Z" stroke="#524C61" stroke-width="2.18957"/>
<path fill-rule="evenodd" clip-rule="evenodd" d="M1.81836 11.4694H45.2449V16.5784H1.81836V11.4694Z" fill="#524C61"/>
<path d="M24.4445 19.4979H6.92786C5.71859 19.4979 4.73828 20.4782 4.73828 21.6875V22.4174C4.73828 23.6266 5.71859 24.6069 6.92786 24.6069H24.4445C25.6537 24.6069 26.634 23.6266 26.634 22.4174V21.6875C26.634 20.4782 25.6537 19.4979 24.4445 19.4979Z" fill="#777777"/>
<path d="M41.2305 15.4837L74.6215 2.52869M41.9603 28.986L73.5267 36.832" stroke="#524C61" stroke-width="1.09479" stroke-linecap="round" stroke-linejoin="round" stroke-dasharray="0.73 2.55"/>
<path d="M75.8997 36.6495C85.3723 36.6495 93.0514 28.9705 93.0514 19.4979C93.0514 10.0253 85.3723 2.34619 75.8997 2.34619C66.4271 2.34619 58.748 10.0253 58.748 19.4979C58.748 28.9705 66.4271 36.6495 75.8997 36.6495Z" stroke="#524C61" stroke-width="2.91943"/>
<path fill-rule="evenodd" clip-rule="evenodd" d="M63.9512 24.2419L66.6443 19.9905V19.9434L63.9691 15.7573H66.0564L67.8555 18.8147H67.903L69.7196 15.7573H71.7012L68.9259 19.9788V20.0201L71.6665 24.2419H69.6437L67.7855 21.2725H67.7384L65.8681 24.2419H63.9512ZM72.207 24.2419L74.9001 19.9905V19.9434L72.2248 15.7573H74.3122L76.1113 18.8147H76.1588L77.9754 15.7573H79.957L77.1817 19.9792V20.0204L79.9219 24.2419H77.8991L76.0409 21.2725H75.9938L74.1239 24.2419H72.207ZM80.4628 24.2419L83.1559 19.9905V19.9434L80.4806 15.7573H82.568L84.3671 18.8147H84.4146L86.2316 15.7573H88.2131L85.4375 19.9792V20.0204L88.1777 24.2419H86.1549L84.2967 21.2725H84.2496L82.3797 24.2419H80.4628Z" fill="black"/>
<path d="M42.1452 29.1321C45.9544 29.1321 49.0424 26.0441 49.0424 22.2349C49.0424 18.4257 45.9544 15.3378 42.1452 15.3378C38.336 15.3378 35.248 18.4257 35.248 22.2349C35.248 26.0441 38.336 29.1321 42.1452 29.1321Z" fill="white" stroke="#524C61" stroke-width="1.16777"/>
<path fill-rule="evenodd" clip-rule="evenodd" d="M37.7598 23.877L38.7392 22.3311V22.314L37.766 20.7915H38.525L39.1793 21.9034H39.1965L39.857 20.7915H40.5777L39.5684 22.3268V22.3417L40.565 23.877H39.8296L39.1542 22.7972H39.137L38.4568 23.877H37.7598ZM40.762 23.877L41.7411 22.3311V22.314L40.7682 20.7915H41.5273L42.1816 21.9034H42.1988L42.8593 20.7915H43.58L42.571 22.3268V22.3417L43.5672 23.877H42.8319L42.1561 22.7972H42.1389L41.4591 23.877H40.762ZM43.7639 23.877L44.7434 22.3311V22.314L43.7705 20.7915H44.5296L45.1839 21.9034H45.201L45.8616 20.7915H46.5823L45.5729 22.3268V22.3417L46.5692 23.877H45.8338L45.1583 22.7972H45.1412L44.461 23.877H43.7639Z" fill="black"/>
</g>
<defs>
<clipPath id="clip0_465_2769">
<rect width="93.7868" height="37.2228" fill="white" transform="translate(0.724609 0.886475)"/>
</clipPath>
</defs>
</svg>
