<svg width="13" height="25" viewBox="0 0 13 25" fill="none" xmlns="http://www.w3.org/2000/svg">
<path fill-rule="evenodd" clip-rule="evenodd" d="M2.80866 1.14428C2.4985 1.45444 2.43218 1.774 2.4288 2.97595C2.42485 4.43133 2.42467 4.43189 1.81862 4.71369C1.05514 5.06875 0.781987 5.78151 1.10793 6.56847C1.23906 6.88464 1.5062 7.19424 1.70177 7.25624C2.02114 7.35768 2.05739 7.5726 2.05833 9.3759C2.0589 10.4798 2.15283 11.721 2.26724 12.1343C2.53081 13.0862 4.02526 14.6226 4.84754 14.7871C5.31138 14.8797 5.43875 15.0013 5.43875 15.3515C5.43875 15.5968 5.61271 15.9716 5.82518 16.1841C6.10566 16.4646 6.19584 16.7608 6.15395 17.2643C6.1004 17.9088 6.04968 17.9618 5.43875 18.0118C4.42316 18.0948 3.75643 18.4302 3.45735 19.0084C3.01343 19.8668 3.11751 20.4649 3.83552 21.1829C4.35928 21.7067 4.60726 21.8224 5.1036 21.7747C5.93997 21.6943 5.9193 21.2077 5.07223 21.0345C4.35327 20.8876 3.93584 20.445 3.93584 19.8299C3.93584 19.2117 4.52085 18.8035 5.40662 18.8035C6.44269 18.8035 6.94166 18.315 6.94166 17.3005C6.94166 16.7995 7.06696 16.4238 7.31738 16.1734C7.52403 15.9667 7.69311 15.5968 7.69311 15.3515C7.69311 15.0013 7.82048 14.8797 8.28432 14.7871C9.1066 14.6226 10.6011 13.0862 10.8646 12.1343C10.979 11.721 11.073 10.4798 11.0735 9.3759C11.0745 7.5726 11.1107 7.35768 11.4301 7.25624C11.6257 7.19424 11.8928 6.88464 12.0239 6.56847C12.3499 5.78151 12.0767 5.06875 11.3132 4.71369C10.7072 4.43189 10.707 4.43133 10.7031 2.97595C10.6986 1.40579 10.372 0.768555 9.57175 0.768555C9.3651 0.768555 9.02694 0.937632 8.82029 1.14428C8.50712 1.45745 8.44457 1.77043 8.44457 3.02292V4.52583H6.56593H4.68729V3.02292C4.68729 1.77043 4.62474 1.45745 4.31157 1.14428C4.10492 0.937632 3.76676 0.768555 3.56011 0.768555C3.35346 0.768555 3.01531 0.937632 2.80866 1.14428ZM3.31364 1.64137C3.24244 1.71238 3.18439 2.39038 3.18439 3.14822C3.18439 4.4101 3.2167 4.52583 3.568 4.52583C3.9257 4.52583 3.94786 4.42832 3.89676 3.08491C3.84661 1.76743 3.65686 1.29795 3.31364 1.64137ZM9.32527 1.64137C9.25407 1.71238 9.19602 2.39038 9.19602 3.14822C9.19602 4.4101 9.22833 4.52583 9.57964 4.52583C9.93733 4.52583 9.9595 4.42832 9.9084 3.08491C9.85824 1.76743 9.6685 1.29795 9.32527 1.64137ZM1.91011 5.49952C1.60633 5.8033 1.62023 6.30752 1.93979 6.57279C2.12108 6.72327 3.52724 6.77211 6.66287 6.7366C10.6781 6.69133 11.1489 6.65319 11.3352 6.3575C11.4863 6.11778 11.4863 5.93969 11.3352 5.69997C11.1487 5.40428 10.6768 5.36614 6.63337 5.32105C3.29541 5.28367 2.07994 5.32969 1.91011 5.49952ZM2.80866 9.60566C2.80866 11.7854 3.05232 12.6505 3.87572 13.3952C4.84454 14.2712 6.8853 14.5589 8.20899 14.0058C9.85148 13.3195 10.3134 12.3443 10.3191 9.55118L10.3232 7.53164H6.56593H2.80866V9.60566ZM5.94034 9.36331C4.84303 11.1108 4.85844 11.2889 6.10736 11.2889C6.56631 11.2889 6.94166 11.3263 6.94166 11.3721C6.94166 11.4178 6.76112 11.7614 6.54038 12.1356C6.26028 12.6103 6.19847 12.8752 6.33617 13.0129C6.44457 13.1213 6.61985 13.1563 6.72599 13.0909C7.0632 12.8824 8.09852 10.9254 7.97622 10.7276C7.9116 10.6229 7.48346 10.5375 7.02451 10.5375C6.56556 10.5375 6.1902 10.5001 6.1902 10.4542C6.1902 10.4086 6.36604 10.0731 6.58077 9.70898C6.95124 9.08133 6.94166 8.65882 6.55729 8.65882C6.46129 8.65882 6.18363 8.97594 5.94034 9.36331ZM6.2259 15.3749C6.26084 15.5559 6.41376 15.7037 6.56593 15.7037C6.7181 15.7037 6.87102 15.5559 6.90596 15.3749C6.9503 15.1442 6.84885 15.0462 6.56593 15.0462C6.28301 15.0462 6.18156 15.1442 6.2259 15.3749ZM6.27399 21.262C6.08049 21.5754 6.51577 21.9346 6.77502 21.6753C6.99182 21.4585 6.85618 21.0578 6.56593 21.0578C6.47482 21.0578 6.3435 21.1497 6.27399 21.262ZM7.40117 21.262C7.23454 21.5318 7.49341 21.7627 8.04968 21.8403C8.29747 21.8748 8.59279 22.0511 8.70626 22.232C9.04855 22.7783 8.6236 23.2092 7.67433 23.2784C6.73801 23.3464 6.14737 23.7723 6.2289 24.3203C6.30612 24.8401 6.75736 24.9359 6.8821 24.4591C6.96119 24.1568 7.13309 24.0636 7.61233 24.0636C8.97002 24.0636 9.7985 23.1499 9.4348 22.0537C9.17179 21.2607 7.74515 20.7054 7.40117 21.262Z" fill="#2196F3"/>
</svg>
