<svg width="17" height="25" viewBox="0 0 17 25" fill="none" xmlns="http://www.w3.org/2000/svg">
<path fill-rule="evenodd" clip-rule="evenodd" d="M13.4661 4.18865H11.8133V2.14705H12.4501C12.8517 2.14705 13.1589 1.81905 13.1589 1.38865C13.1589 0.958249 12.8517 0.630249 12.4501 0.630249H4.60688C4.20528 0.630249 3.89808 0.958249 3.89808 1.38865C3.89808 1.81905 4.20528 2.14705 4.60688 2.14705H5.24368V4.18865H3.59088C2.15088 4.18865 0.97168 5.45265 0.97168 6.99505V20.483C0.97168 22.0254 2.15248 23.2894 3.59088 23.2894H3.61488V23.5182C3.61488 24.1246 4.08688 24.6302 4.65488 24.6302H5.17328C5.73968 24.6302 6.21168 24.1246 6.21168 23.5182V23.2894H10.7749V23.5182C10.7749 24.1246 11.2469 24.6302 11.8133 24.6302H12.3317C12.8997 24.6302 13.3717 24.1246 13.3717 23.5182V23.2894H13.3941C14.8341 23.2894 16.0149 22.0254 16.0149 20.483V6.99505C16.1093 5.45265 14.9285 4.18865 13.4661 4.18865ZM10.3973 2.14705V4.18865H6.68368V2.14705H10.3973ZM5.39888 8.79025C5.39888 8.36145 5.60368 8.03185 5.87088 8.03185C6.12368 8.03185 6.34448 8.38705 6.34448 8.79025V18.6623C6.34448 19.0927 6.13968 19.4206 5.87088 19.4206C5.60368 19.4206 5.39888 19.0927 5.39888 18.6623V8.79025ZM8.67088 8.13105C8.40368 8.13105 8.19888 8.45905 8.19888 8.88945V18.7598C8.19888 19.1902 8.40368 19.5182 8.67088 19.5182C8.93968 19.5182 9.14448 19.1902 9.14448 18.7598V8.88785C9.14448 8.48465 8.93968 8.13105 8.67088 8.13105ZM10.9989 8.88945C10.9989 8.45905 11.2037 8.13105 11.4709 8.13105C11.7397 8.13105 11.9445 8.48305 11.9445 8.88945V18.7598C11.9445 19.1902 11.7397 19.5182 11.4709 19.5182C11.2037 19.5182 10.9989 19.1902 10.9989 18.7598V8.88785V8.88945Z" fill="#679DFF"/>
</svg>
