<svg width="25" height="25" viewBox="0 0 25 25" fill="none" xmlns="http://www.w3.org/2000/svg">
<g clip-path="url(#clip0_337_2321)">
<path fill-rule="evenodd" clip-rule="evenodd" d="M12.0707 0.955078C5.44161 0.955078 0.0546875 6.342 0.0546875 12.9711C0.0546875 19.6 5.44161 24.9929 12.0707 24.9929C18.6996 24.9929 24.0925 19.6 24.0925 12.9711C24.0925 6.342 18.6996 0.955078 12.0707 0.955078ZM12.0707 2.45743C17.8879 2.45743 22.5902 7.15369 22.5902 12.9711C22.5902 18.7883 17.8879 23.4905 12.0707 23.4905C6.2533 23.4905 1.55704 18.7883 1.55704 12.9711C1.55704 7.15369 6.2533 2.45743 12.0707 2.45743ZM12.0604 4.69774C11.6533 4.7047 11.3222 5.04158 11.3222 5.44862C11.3222 5.45359 11.3222 5.45855 11.3224 5.46372V12.9711C11.3224 13.1708 11.4021 13.3626 11.544 13.5036L15.7913 17.7568C15.9326 17.8981 16.1242 17.9774 16.324 17.9774C16.7372 17.9774 17.077 17.6376 17.077 17.2244C17.077 17.0246 16.9977 16.833 16.8564 16.6917L12.8248 12.6615V5.46372C12.8248 5.45855 12.825 5.45359 12.825 5.44862C12.825 5.03661 12.4859 4.69774 12.0739 4.69774C12.0693 4.69774 12.065 4.69774 12.0604 4.69774Z" fill="black"/>
</g>
<defs>
<clipPath id="clip0_337_2321">
<rect width="24" height="24" fill="white" transform="translate(0.0546875 0.955078)"/>
</clipPath>
</defs>
</svg>
