<svg width="33" height="33" viewBox="0 0 33 33" fill="none" xmlns="http://www.w3.org/2000/svg">
<g clip-path="url(#clip0_354_13375)">
<path d="M24.207 14.5825C24.8974 14.5825 25.457 14.0229 25.457 13.3325C25.457 12.6422 24.8974 12.0825 24.207 12.0825C23.5167 12.0825 22.957 12.6422 22.957 13.3325C22.957 14.0229 23.5167 14.5825 24.207 14.5825Z" fill="#F6704D"/>
<path d="M27.082 2.70752H25.457V1.45752C25.457 0.767145 24.8974 0.20752 24.207 0.20752C23.5167 0.20752 22.957 0.767145 22.957 1.45752V2.70752H17.2695V1.45752C17.2695 0.767145 16.7099 0.20752 16.0195 0.20752C15.3292 0.20752 14.7695 0.767145 14.7695 1.45752V2.70752H9.14453V1.45752C9.14453 0.767145 8.58491 0.20752 7.89453 0.20752C7.20416 0.20752 6.64453 0.767145 6.64453 1.45752V2.70752H5.08203C2.32503 2.70752 0.0820312 4.95052 0.0820312 7.70752V27.2075C0.0820312 29.9645 2.32503 32.2075 5.08203 32.2075H14.6445C15.3349 32.2075 15.8945 31.6479 15.8945 30.9575C15.8945 30.2671 15.3349 29.7075 14.6445 29.7075H5.08203C3.70353 29.7075 2.58203 28.586 2.58203 27.2075V7.70752C2.58203 6.32902 3.70353 5.20752 5.08203 5.20752H6.64453V6.45752C6.64453 7.14789 7.20416 7.70752 7.89453 7.70752C8.58491 7.70752 9.14453 7.14789 9.14453 6.45752V5.20752H14.7695V6.45752C14.7695 7.14789 15.3292 7.70752 16.0195 7.70752C16.7099 7.70752 17.2695 7.14789 17.2695 6.45752V5.20752H22.957V6.45752C22.957 7.14789 23.5167 7.70752 24.207 7.70752C24.8974 7.70752 25.457 7.14789 25.457 6.45752V5.20752H27.082C28.4605 5.20752 29.582 6.32902 29.582 7.70752V14.8325C29.582 15.5229 30.1417 16.0825 30.832 16.0825C31.5224 16.0825 32.082 15.5229 32.082 14.8325V7.70752C32.082 4.95052 29.839 2.70752 27.082 2.70752Z" fill="#F6704D"/>
<path d="M24.5195 17.0825C20.3495 17.0825 16.957 20.475 16.957 24.645C16.957 28.815 20.3495 32.2075 24.5195 32.2075C28.6895 32.2075 32.082 28.815 32.082 24.645C32.082 20.475 28.6895 17.0825 24.5195 17.0825ZM24.5195 29.7075C21.7281 29.7075 19.457 27.4365 19.457 24.645C19.457 21.8535 21.7281 19.5825 24.5195 19.5825C27.311 19.5825 29.582 21.8535 29.582 24.645C29.582 27.4365 27.311 29.7075 24.5195 29.7075Z" fill="#F6704D"/>
<path d="M26.332 23.395H25.7695V22.0825C25.7695 21.3921 25.2099 20.8325 24.5195 20.8325C23.8292 20.8325 23.2695 21.3921 23.2695 22.0825V24.645C23.2695 25.3354 23.8292 25.895 24.5195 25.895H26.332C27.0224 25.895 27.582 25.3354 27.582 24.645C27.582 23.9546 27.0224 23.395 26.332 23.395Z" fill="#F6704D"/>
<path d="M18.7695 14.5825C19.4599 14.5825 20.0195 14.0229 20.0195 13.3325C20.0195 12.6422 19.4599 12.0825 18.7695 12.0825C18.0792 12.0825 17.5195 12.6422 17.5195 13.3325C17.5195 14.0229 18.0792 14.5825 18.7695 14.5825Z" fill="#F6704D"/>
<path d="M13.332 20.02C14.0224 20.02 14.582 19.4604 14.582 18.77C14.582 18.0797 14.0224 17.52 13.332 17.52C12.6417 17.52 12.082 18.0797 12.082 18.77C12.082 19.4604 12.6417 20.02 13.332 20.02Z" fill="#F6704D"/>
<path d="M7.89453 14.5825C8.58489 14.5825 9.14453 14.0229 9.14453 13.3325C9.14453 12.6422 8.58489 12.0825 7.89453 12.0825C7.20418 12.0825 6.64453 12.6422 6.64453 13.3325C6.64453 14.0229 7.20418 14.5825 7.89453 14.5825Z" fill="#F6704D"/>
<path d="M7.89453 20.02C8.58489 20.02 9.14453 19.4604 9.14453 18.77C9.14453 18.0797 8.58489 17.52 7.89453 17.52C7.20418 17.52 6.64453 18.0797 6.64453 18.77C6.64453 19.4604 7.20418 20.02 7.89453 20.02Z" fill="#F6704D"/>
<path d="M7.89453 25.4575C8.58489 25.4575 9.14453 24.8979 9.14453 24.2075C9.14453 23.5172 8.58489 22.9575 7.89453 22.9575C7.20418 22.9575 6.64453 23.5172 6.64453 24.2075C6.64453 24.8979 7.20418 25.4575 7.89453 25.4575Z" fill="#F6704D"/>
<path d="M13.332 25.4575C14.0224 25.4575 14.582 24.8979 14.582 24.2075C14.582 23.5172 14.0224 22.9575 13.332 22.9575C12.6417 22.9575 12.082 23.5172 12.082 24.2075C12.082 24.8979 12.6417 25.4575 13.332 25.4575Z" fill="#F6704D"/>
<path d="M13.332 14.5825C14.0224 14.5825 14.582 14.0229 14.582 13.3325C14.582 12.6422 14.0224 12.0825 13.332 12.0825C12.6417 12.0825 12.082 12.6422 12.082 13.3325C12.082 14.0229 12.6417 14.5825 13.332 14.5825Z" fill="#F6704D"/>
</g>
<defs>
<clipPath id="clip0_354_13375">
<rect width="32" height="32" fill="white" transform="translate(0.0820312 0.20752)"/>
</clipPath>
</defs>
</svg>
