<svg width="33" height="33" viewBox="0 0 33 33" fill="none" xmlns="http://www.w3.org/2000/svg">
<g clip-path="url(#clip0_989_4264)">
<path d="M22.1318 19.2877L17.6702 15.9415V9.12512C17.6702 8.43974 17.1162 7.88574 16.4308 7.88574C15.7454 7.88574 15.1914 8.43974 15.1914 9.12512V16.5612C15.1914 16.9516 15.3748 17.3197 15.6872 17.5527L20.6445 21.2708C20.8676 21.4381 21.1279 21.5187 21.3869 21.5187C21.7649 21.5187 22.1367 21.3489 22.3797 21.0217C22.7912 20.4751 22.6797 19.698 22.1318 19.2877Z" fill="#777777"/>
<path d="M16.4297 0.462158C7.60675 0.462158 0.429688 7.63922 0.429688 16.4622C0.429688 25.2851 7.60675 32.4622 16.4297 32.4622C25.2526 32.4622 32.4297 25.2851 32.4297 16.4622C32.4297 7.63922 25.2526 0.462158 16.4297 0.462158ZM16.4297 29.9835C8.975 29.9835 2.90838 23.9168 2.90838 16.4622C2.90838 9.00747 8.975 2.94085 16.4297 2.94085C23.8856 2.94085 29.951 9.00747 29.951 16.4622C29.951 23.9168 23.8844 29.9835 16.4297 29.9835Z" fill="#777777"/>
</g>
<defs>
<clipPath id="clip0_989_4264">
<rect width="32" height="32" fill="white" transform="translate(0.429688 0.462158)"/>
</clipPath>
</defs>
</svg>
