<svg width="33" height="33" viewBox="0 0 33 33" fill="none" xmlns="http://www.w3.org/2000/svg">
<g id="Capa_1" clip-path="url(#clip0_468_2892)">
<g id="Group">
<g id="Group_2">
<path id="Vector" d="M30.4511 5.56128H2.29109C1.23253 5.56128 0.371094 6.42272 0.371094 7.48128V25.4013C0.371094 26.4598 1.23253 27.3213 2.29109 27.3213H30.4511C31.5097 27.3213 32.3711 26.4598 32.3711 25.4013V7.48128C32.3711 6.42272 31.5097 5.56128 30.4511 5.56128ZM31.0911 25.4013C31.0911 25.7533 30.8031 26.0413 30.4511 26.0413H2.29109C1.93784 26.0413 1.65109 25.7533 1.65109 25.4013V7.48128C1.65109 7.12797 1.93784 6.84128 2.29109 6.84128H30.4511C30.8031 6.84128 31.0911 7.12797 31.0911 7.48128V25.4013Z" fill="#777777"/>
</g>
</g>
<g id="Group_3">
<g id="Group_4">
<path id="Vector_2" d="M31.7317 11.321H1.01172V13.881H31.7317V11.321Z" fill="#777777"/>
</g>
</g>
<g id="Group_5">
<g id="Group_6">
<path id="Vector_3" d="M31.7311 10.6812H1.01109C0.657844 10.6812 0.371094 10.9678 0.371094 11.3212V13.8812C0.371094 14.2345 0.657844 14.5212 1.01109 14.5212H31.7311C32.0843 14.5212 32.3711 14.2345 32.3711 13.8812V11.3212C32.3711 10.9678 32.0843 10.6812 31.7311 10.6812ZM31.0911 13.2412H1.65109V11.9612H31.0911V13.2412Z" fill="#777777"/>
</g>
</g>
<g id="Group_7">
<g id="Group_8">
<path id="Vector_4" d="M17.6502 18.3611H6.13023C5.77698 18.3611 5.49023 18.6478 5.49023 19.0011C5.49023 19.3543 5.77698 19.6411 6.13023 19.6411H17.6502C18.0035 19.6411 18.2902 19.3543 18.2902 19.0011C18.2902 18.6478 18.0035 18.3611 17.6502 18.3611Z" fill="#777777"/>
</g>
</g>
<g id="Group_9">
<g id="Group_10">
<path id="Vector_5" d="M12.5302 20.9211H6.13023C5.77698 20.9211 5.49023 21.2079 5.49023 21.5611C5.49023 21.9144 5.77698 22.2011 6.13023 22.2011H12.5302C12.8835 22.2011 13.1702 21.9144 13.1702 21.5611C13.1702 21.2079 12.8835 20.9211 12.5302 20.9211Z" fill="#777777"/>
</g>
</g>
</g>
<defs>
<clipPath id="clip0_468_2892">
<rect width="32" height="32" fill="white" transform="translate(0.371094 0.441162)"/>
</clipPath>
</defs>
</svg>
