<svg width="26" height="25" viewBox="0 0 26 25" fill="none" xmlns="http://www.w3.org/2000/svg">
<path fill-rule="evenodd" clip-rule="evenodd" d="M5.89028 0.895288C5.54213 1.0359 5.61394 1.73801 6.03089 2.27101C6.56839 2.95812 6.50109 3.61018 5.82672 4.25136C4.56068 5.45498 4.38894 6.90101 5.36103 8.17549C6.26055 9.35474 7.47861 8.77112 6.63064 7.56712C5.92834 6.57011 5.95327 6.32976 6.86892 5.257C7.71558 4.26504 7.81626 3.99207 7.72833 2.92775C7.67359 2.26726 7.44186 1.77457 6.91223 1.19301C6.52921 0.772676 6.33479 0.71587 5.89028 0.895288ZM10.3898 0.895288C10.0418 1.03571 10.1078 1.72676 10.5304 2.36475C11.049 3.14767 10.9987 3.61187 10.3262 4.25136C9.58963 4.95159 9.21804 5.66345 9.21804 6.374C9.21804 7.56393 10.0508 8.8328 10.8317 8.8328C11.4901 8.8328 11.5672 8.20905 11.0098 7.38902C10.7462 7.00093 10.5304 6.57667 10.5304 6.44637C10.5304 6.31588 10.8135 5.89255 11.1596 5.5056C12.0182 4.54533 12.2629 4.02638 12.2513 3.19004C12.2406 2.41012 12.0008 1.83981 11.4117 1.19301C11.0287 0.772676 10.8343 0.71587 10.3898 0.895288ZM14.6724 1.11351C14.5346 1.37092 14.6013 1.63827 14.9412 2.19152C15.5421 3.1696 15.5198 3.45382 14.7757 4.28586C13.9352 5.22588 13.7175 5.67845 13.7175 6.4863C13.7175 8.07744 15.196 9.45354 15.8276 8.45034C15.9602 8.23999 15.8766 7.96589 15.5196 7.43982C15.2504 7.04293 15.0299 6.60366 15.0299 6.46362C15.0299 6.32376 15.313 5.89255 15.6591 5.5056C16.5185 4.5442 16.7172 4.113 16.7172 3.20841C16.7172 1.58746 15.2328 0.0664406 14.6724 1.11351ZM1.16298 11.4451C1.05631 11.6446 0.97063 12.636 0.972693 13.648C0.981129 17.8584 1.64068 19.6963 3.9643 21.9858L5.45645 23.4562H3.42305C1.18567 23.4562 0.74978 23.6337 1.15005 24.3816C1.35496 24.7646 1.45245 24.7686 10.7016 24.7686C20.6564 24.7686 20.6031 24.7734 20.4333 23.887C20.3763 23.5902 20.1164 23.5436 18.2617 23.4969C17.1029 23.4678 16.1548 23.3692 16.1548 23.2779C16.1548 23.1866 16.4458 22.932 16.8014 22.7123C17.434 22.3212 18.569 21.0617 19.2141 20.0347C19.5116 19.5611 19.6342 19.5191 20.7188 19.5191C22.3917 19.5191 23.7522 18.8127 24.3296 17.6443C25.0278 16.2317 25.1553 15.5459 25.1165 13.4127L25.079 11.3638L24.9663 13.5198C24.9043 14.7056 24.8368 15.4818 24.8161 15.2446C24.7322 14.2757 23.6763 12.9793 22.6575 12.5944C22.3673 12.4847 21.7555 12.3949 21.2983 12.3949C20.5557 12.3949 20.4668 12.3488 20.4668 11.9637C20.4668 11.7265 20.3656 11.4313 20.2418 11.3075C20.0729 11.1386 17.6936 11.0826 10.6869 11.0826C1.65474 11.0826 1.35084 11.0942 1.16298 11.4451ZM1.04056 13.801C1.04094 15.0384 1.07131 15.5202 1.10787 14.8717C1.14461 14.2232 1.14442 13.2108 1.1073 12.6219C1.07018 12.0331 1.04019 12.5636 1.04056 13.801ZM2.49934 14.8771C2.56796 17.1784 2.61614 17.4539 3.14708 18.5851C3.94743 20.2899 5.29634 21.6167 7.10084 22.4736C8.40307 23.0919 8.74953 23.1731 10.3695 23.2382C13.004 23.3439 14.7037 22.741 16.5642 21.0405C18.4203 19.3442 19.2844 16.8243 19.1177 13.5942L19.0607 12.4886L10.743 12.4399L2.42528 12.391L2.49934 14.8771ZM20.4229 15.5352C20.3749 16.5405 20.2716 17.5107 20.1937 17.6912C20.069 17.9795 20.1685 18.0193 21.0158 18.0193C22.1116 18.0193 22.7867 17.665 23.1948 16.8759C23.962 15.3923 22.8319 13.7073 21.0696 13.7073H20.5105L20.4229 15.5352Z" fill="#2196F3"/>
</svg>
