<svg width="21" height="17" viewBox="0 0 21 17" fill="none" xmlns="http://www.w3.org/2000/svg">
<path fill-rule="evenodd" clip-rule="evenodd" d="M5.44999 0.333216C4.30891 0.586969 3.71637 1.82729 4.23792 2.87021C4.29876 2.99189 4.86501 3.60004 5.67784 4.41673L7.01744 5.76267L5.8468 6.4305C4.03208 7.46581 4.19806 7.42712 2.78664 7.14365C1.67444 6.92024 1.41908 6.91215 1.0717 7.0894C0.774721 7.24089 0.60513 7.40374 0.446858 7.6895C0.320933 7.91686 0.302734 7.99892 0.302734 8.34001C0.302734 8.91055 0.39641 9.05092 1.51593 10.1581C2.5204 11.1516 2.80952 11.3605 3.38348 11.5076C3.72647 11.5956 4.57623 11.609 4.91331 11.5318C5.18853 11.4689 17.8494 6.60482 18.2815 6.39605C18.6837 6.20182 19.7842 5.15442 19.9814 4.7784C20.1527 4.45166 20.1639 3.87185 20.0056 3.52701C19.8752 3.24305 19.554 2.91773 19.289 2.80112C19.1777 2.75214 18.5377 2.62075 17.8668 2.50912C16.136 2.22111 16.1391 2.22087 14.4269 2.79317L13.0849 3.24173L9.73432 1.80543C6.74525 0.524129 6.03449 0.248713 5.77034 0.269498C5.74175 0.271742 5.59758 0.30043 5.44999 0.333216ZM5.39442 1.4582C5.16863 1.61164 5.04153 1.91262 5.08593 2.18862C5.11525 2.37051 5.25415 2.52473 6.69348 3.97338C7.56003 4.84548 8.29338 5.60699 8.32314 5.66558C8.39691 5.81068 8.3912 5.95178 8.3048 6.11888C8.24854 6.22763 7.85589 6.47402 6.56058 7.21337C4.29408 8.50706 4.32335 8.49999 2.63193 8.16559C1.547 7.95106 1.45255 7.95282 1.34477 8.18935C1.31496 8.25482 1.30345 8.35987 1.31921 8.4228C1.33502 8.48569 1.74948 8.93363 2.2402 9.41815C3.34372 10.5078 3.39192 10.5355 4.18147 10.5355H4.74255L11.1827 8.05323C14.7248 6.68791 17.7217 5.52078 17.8424 5.45959C18.1311 5.31323 19.111 4.31973 19.111 4.17341C19.111 4.00055 18.9799 3.79608 18.8327 3.73934C18.6269 3.65996 16.6168 3.33912 16.3253 3.33912C16.1333 3.33912 15.709 3.45909 14.6004 3.82701C13.7917 4.09535 13.0944 4.3149 13.0509 4.3149C13.0074 4.3149 11.4093 3.64527 9.4995 2.82683C5.68872 1.19371 5.75244 1.21493 5.39442 1.4582ZM1.41942 15.2913C1.2472 15.3612 1.10776 15.5814 1.10776 15.7832C1.10776 15.9245 1.14308 16.0033 1.25788 16.1181L1.408 16.2683H9.89601C19.1273 16.2683 18.582 16.2847 18.7111 16.0013C18.8088 15.7869 18.7815 15.6002 18.6271 15.4274L18.4847 15.2681L10.0036 15.2588C5.33895 15.2536 1.47611 15.2683 1.41942 15.2913Z" fill="#679DFF"/>
</svg>
