<svg width="58" height="37" viewBox="0 0 58 37" fill="none" xmlns="http://www.w3.org/2000/svg">
<g clip-path="url(#clip0_465_2735)">
<path d="M52.5037 1.02246H5.97183C3.48485 1.02246 1.46875 3.03856 1.46875 5.52554V31.043C1.46875 33.53 3.48485 35.5461 5.97183 35.5461H52.5037C54.9907 35.5461 57.0068 33.53 57.0068 31.043V5.52554C57.0068 3.03856 54.9907 1.02246 52.5037 1.02246Z" fill="white" stroke="#E6E4EB" stroke-width="1.50103"/>
<path d="M33.6213 18.2664C33.6199 17.0832 33.26 15.9282 32.589 14.9536C31.918 13.9791 30.9675 13.2307 29.8627 12.8072V23.7256C30.9675 23.3021 31.918 22.5537 32.589 21.5792C33.26 20.6046 33.6199 19.4496 33.6213 18.2664ZM25.6733 23.7241V12.8117C24.5697 13.2364 23.6204 13.9849 22.9499 14.9589C22.2794 15.9329 21.9191 17.0869 21.9162 18.2694C21.9178 19.4522 22.2776 20.6067 22.9483 21.581C23.619 22.5552 24.569 23.3035 25.6733 23.7271V23.7241ZM27.7687 9.04108C26.1481 9.04083 24.5559 9.46726 23.1523 10.2775C21.7487 11.0877 20.5831 12.2532 19.7728 13.6567C18.9629 15.0597 18.5367 16.6512 18.5369 18.2711C18.5372 19.891 18.9639 21.4824 19.7743 22.8851C20.7898 24.6465 22.3584 26.0234 24.2365 26.802C26.1147 27.5807 28.1974 27.7174 30.1613 27.1911C32.1252 26.6648 33.8604 25.5049 35.0976 23.8914C36.3347 22.2779 37.0045 20.3011 37.0031 18.2679C37.0015 15.8201 36.0278 13.4732 34.2961 11.7432C32.5644 10.0132 30.2165 9.04028 27.7687 9.04108ZM27.7447 28.3638C22.1654 28.3908 17.5723 23.8727 17.5723 18.3745C17.5723 12.3629 22.1654 8.20801 27.7447 8.20801H30.3595C35.8743 8.20801 40.9057 12.3614 40.9057 18.3745C40.9057 23.8712 35.8743 28.3638 30.3595 28.3638H27.7447Z" fill="#184977"/>
</g>
<defs>
<clipPath id="clip0_465_2735">
<rect width="57.0391" height="36.0247" fill="white" transform="translate(0.71875 0.271973)"/>
</clipPath>
</defs>
</svg>
