<svg width="58" height="37" viewBox="0 0 58 37" fill="none" xmlns="http://www.w3.org/2000/svg">
<g clip-path="url(#clip0_465_2739)">
<path d="M52.5506 1.02246H6.01871C3.53172 1.02246 1.51562 3.03856 1.51562 5.52554V31.043C1.51562 33.53 3.53172 35.5461 6.01871 35.5461H52.5506C55.0376 35.5461 57.0537 33.53 57.0537 31.043V5.52554C57.0537 3.03856 55.0376 1.02246 52.5506 1.02246Z" fill="white" stroke="#E6E4EB" stroke-width="1.50103"/>
<path fill-rule="evenodd" clip-rule="evenodd" d="M56.3037 20.1111C50.9795 28.2917 39.4742 33.1955 21.7891 34.8272H53.3016C54.0978 34.8272 54.8614 34.5109 55.4244 33.9479C55.9874 33.3849 56.3037 32.6213 56.3037 31.8251V20.1111Z" fill="#E6772F"/>
<path d="M11.8352 19.7178C11.4105 20.108 10.8686 20.2761 10.001 20.2761H9.64075V15.6425H10.001C10.8686 15.6425 11.3894 15.8001 11.8352 16.2069C12.0707 16.4316 12.2576 16.7022 12.3846 17.0019C12.5116 17.3016 12.576 17.6241 12.5738 17.9496C12.5738 18.625 12.2961 19.296 11.8352 19.7133V19.7148V19.7178ZM10.2697 14.4567H8.29883V21.4605H10.2562C11.2964 21.4605 12.0469 21.2053 12.7058 20.6499C13.0957 20.3183 13.4091 19.9061 13.6245 19.4418C13.8398 18.9774 13.952 18.4719 13.9532 17.9601C13.9532 15.8931 12.4372 14.4567 10.2682 14.4567H10.2697ZM14.5716 14.4567H15.9075V21.4605H14.5716V14.4567ZM19.1828 17.1435C18.3767 16.8433 18.1411 16.6407 18.1411 16.2624C18.1411 15.8226 18.5614 15.4879 19.1408 15.4879C19.5415 15.4879 19.8733 15.653 20.2245 16.0523L20.9195 15.1216C20.3703 14.6172 19.6508 14.339 18.9051 14.3426C17.6893 14.3426 16.7631 15.2072 16.7631 16.3465C16.7631 17.3116 17.1939 17.8025 18.4503 18.2708C18.9756 18.4569 19.2413 18.586 19.3764 18.67C19.4997 18.7457 19.6014 18.852 19.6716 18.9784C19.7418 19.1049 19.7782 19.2474 19.7772 19.392C19.7772 19.9624 19.3344 20.3797 18.737 20.3797C18.1005 20.3797 17.5857 20.054 17.275 19.4446L16.4134 20.2972C17.0288 21.2203 17.7688 21.6331 18.788 21.6331C20.1765 21.6331 21.1596 20.6844 21.1596 19.332C21.1596 18.2167 20.7063 17.7109 19.1828 17.145M21.5799 17.9631C21.5707 18.4431 21.6578 18.9202 21.8363 19.3659C22.0148 19.8117 22.281 20.217 22.619 20.558C22.9571 20.899 23.3601 21.1687 23.8043 21.351C24.2485 21.5334 24.7248 21.6247 25.2049 21.6196C25.7813 21.6196 26.2706 21.5025 26.8801 21.2113V19.6022C26.3427 20.1531 25.8714 20.3677 25.2634 20.3677C23.9155 20.3677 22.9594 19.371 22.9594 17.9541C22.9594 16.6121 23.9455 15.5479 25.2034 15.5479C25.8383 15.5479 26.3232 15.7776 26.8786 16.3375V14.7268C26.2781 14.4266 25.8128 14.3006 25.2304 14.3006C24.7495 14.299 24.273 14.3926 23.8284 14.5761C23.3839 14.7596 22.9801 15.0293 22.6403 15.3697C22.3005 15.71 22.0314 16.1143 21.8487 16.5591C21.6659 17.004 21.573 17.4806 21.5754 17.9616M37.7235 19.1624L35.8922 14.4597H34.4317L37.3437 21.6391H38.0597L41.0272 14.4597H39.5787L37.7235 19.1624ZM41.6337 21.4635H45.4313V20.2626H42.9756V18.3713H45.3382V17.1705H42.9771V15.6425H45.4328V14.4417H41.6382V21.4439M48.0475 17.6614H47.6573V15.5449H48.0686C48.9061 15.5449 49.3519 15.9022 49.3519 16.5851C49.3519 17.2861 48.9046 17.6629 48.046 17.6629L48.0475 17.6614ZM50.7344 16.5101C50.7344 15.1967 49.8533 14.4432 48.3072 14.4432H46.3169V21.4454H47.6603V18.6445H47.8329L49.6822 21.4605H51.3288L49.1673 18.5094C50.1775 18.2993 50.7314 17.5938 50.7314 16.5236L50.7329 16.5251L50.7344 16.5101Z" fill="#1A1919"/>
<path d="M34.6254 17.9796C34.6254 19.9955 33.0238 21.6301 31.0454 21.6301C29.0671 21.6301 27.4805 19.9955 27.4805 17.9796C27.4805 15.9637 29.0821 14.3291 31.0589 14.3291C33.0358 14.3291 34.6389 15.9652 34.6389 17.9796" fill="#E6772F"/>
</g>
<defs>
<clipPath id="clip0_465_2739">
<rect width="57.0391" height="36.0247" fill="white" transform="translate(0.765625 0.271973)"/>
</clipPath>
</defs>
</svg>
