<svg width="17" height="16" viewBox="0 0 17 16" fill="none" xmlns="http://www.w3.org/2000/svg">
<path fill-rule="evenodd" clip-rule="evenodd" d="M14.4913 0.147456C14.3539 0.220142 13.4547 1.09212 12.493 2.08524L10.7446 3.8909L6.74812 2.57893L2.75165 1.26697L1.97109 2.03878C1.54172 2.46316 1.19053 2.84882 1.19053 2.89565C1.19053 2.94249 2.58143 3.83632 4.28155 4.88215C5.98167 5.92797 7.44438 6.85028 7.53218 6.93171C7.65881 7.04936 7.35046 7.43501 6.03325 8.80668L4.37484 10.5335L3.27369 10.3697L2.17241 10.2059L1.42507 10.9533L0.677734 11.7006L2.27195 12.2548L3.86617 12.8089L4.42729 14.4056L4.9883 16.0024L5.73352 15.2572L6.47861 14.5121L6.31463 13.4107L6.15065 12.3093L7.88037 10.6537C9.23717 9.35507 9.64131 9.03198 9.75509 9.15499C9.83489 9.24142 10.6919 10.6046 11.6593 12.1844C12.6268 13.7643 13.5024 15.1693 13.6052 15.3067C13.7858 15.5482 13.819 15.5295 14.6063 14.7447L15.4207 13.9329L14.1031 9.93643L12.7857 5.93996L14.5977 4.19151C15.5943 3.22986 16.4699 2.32029 16.5433 2.17029C17.1223 0.987463 15.6489 -0.465003 14.4913 0.147456Z" fill="#679DFF"/>
</svg>
