<svg width="25" height="25" viewBox="0 0 25 25" fill="none" xmlns="http://www.w3.org/2000/svg">
<g clip-path="url(#clip0_337_2395)">
<path d="M18.2402 12.1187C18.2402 13.2587 18.0137 14.3237 17.5605 15.3137C17.1074 16.3037 16.4941 17.17 15.7207 17.9125C14.9473 18.655 14.0449 19.2437 13.0137 19.6787C11.9668 20.1137 10.8574 20.3312 9.68555 20.3312C8.7168 20.3312 7.79883 20.185 6.93164 19.8925C6.06445 19.6 5.27148 19.1987 4.55273 18.6887L3.7793 19.4087C4.5918 20.0237 5.50195 20.5037 6.50977 20.8487C7.51758 21.1937 8.57617 21.3662 9.68555 21.3662C11.0137 21.3662 12.2637 21.1187 13.4355 20.6237C14.6074 20.1437 15.627 19.4875 16.4941 18.655C17.3613 17.8225 18.0449 16.8437 18.5449 15.7187C19.0605 14.5937 19.3184 13.3937 19.3184 12.1187C19.3184 11.0537 19.1387 10.0375 18.7793 9.06996C18.4199 8.10246 17.9199 7.22871 17.2793 6.44871L16.5059 7.19121C17.0527 7.88121 17.4785 8.64246 17.7832 9.47496C18.0879 10.3075 18.2402 11.1887 18.2402 12.1187ZM18.1699 3.97371L17.3262 3.16371L15.5918 4.82871C14.7793 4.21371 13.8691 3.73371 12.8613 3.38871C11.8535 3.04371 10.7949 2.87121 9.68555 2.87121C8.35742 2.87121 7.10742 3.11871 5.93555 3.61371C4.76367 4.09371 3.74414 4.74996 2.87695 5.58246C2.00977 6.41496 1.32617 7.39371 0.826172 8.51871C0.310547 9.64371 0.0527344 10.8437 0.0527344 12.1187C0.0527344 13.1837 0.232422 14.2 0.591797 15.1675C0.951172 16.135 1.45117 17.0087 2.0918 17.7887L0.357422 19.4537L1.20117 20.2637L9.68555 12.1187L18.1699 3.97371ZM6.26367 13.7837L2.86523 17.0462C2.31836 16.3562 1.89258 15.595 1.58789 14.7625C1.2832 13.93 1.13086 13.0487 1.13086 12.1187C1.13086 10.9787 1.35742 9.91371 1.81055 8.92371C2.26367 7.93371 2.87695 7.06746 3.65039 6.32496C4.42383 5.58246 5.32617 4.99371 6.35742 4.55871C7.38867 4.12371 8.49805 3.90621 9.68555 3.90621C10.6543 3.90621 11.5723 4.05246 12.4395 4.34496C13.3066 4.63746 14.0996 5.04621 14.8184 5.57121L11.7715 8.49621C11.7559 8.49621 11.7363 8.49621 11.7129 8.49621C11.6895 8.49621 11.6699 8.49621 11.6543 8.49621C11.4355 8.49621 11.2246 8.51496 11.0215 8.55246C10.8184 8.58996 10.6309 8.65371 10.459 8.74371C10.2871 8.81871 10.1309 8.91246 9.99023 9.02496C9.84961 9.13746 9.72461 9.26871 9.61523 9.41871C9.52148 9.55371 9.44727 9.70371 9.39258 9.86871C9.33789 10.0337 9.31836 10.2062 9.33398 10.3862C9.33398 10.4462 9.33398 10.5137 9.33398 10.5887C9.33398 10.6637 9.34961 10.7312 9.38086 10.7912L7.36523 12.7037V8.58621H6.28711L4.45898 9.73371V10.7687L6.2168 9.66621H6.26367V13.7837ZM9.12305 14.2787C9.1543 14.3687 9.18945 14.455 9.22852 14.5375C9.26758 14.62 9.31836 14.6987 9.38086 14.7737C9.49023 14.9237 9.62305 15.0587 9.7793 15.1787C9.93555 15.2987 10.1074 15.4037 10.2949 15.4937C10.498 15.5687 10.7129 15.6287 10.9395 15.6737C11.166 15.7187 11.4043 15.7412 11.6543 15.7412C11.9199 15.7412 12.166 15.7187 12.3926 15.6737C12.6191 15.6287 12.8262 15.5687 13.0137 15.4937C13.2168 15.4037 13.3926 15.2987 13.541 15.1787C13.6895 15.0587 13.8262 14.9237 13.9512 14.7737C14.0605 14.6237 14.1426 14.4662 14.1973 14.3012C14.252 14.1362 14.2793 13.9562 14.2793 13.7612C14.2793 13.6112 14.2637 13.4687 14.2324 13.3337C14.2012 13.1987 14.1465 13.0712 14.0684 12.9512C14.0059 12.8162 13.9316 12.6962 13.8457 12.5912C13.7598 12.4862 13.6621 12.3962 13.5527 12.3212C13.4434 12.2312 13.3262 12.16 13.2012 12.1075C13.0762 12.055 12.9434 12.0137 12.8027 11.9837V11.9387C12.9746 11.9087 13.1348 11.845 13.2832 11.7475C13.4316 11.65 13.5605 11.5262 13.6699 11.3762C13.7793 11.2412 13.8613 11.0875 13.916 10.915C13.9707 10.7425 13.998 10.5662 13.998 10.3862C13.998 10.2662 13.9902 10.15 13.9746 10.0375C13.959 9.92496 13.9277 9.82371 13.8809 9.73371L12.9199 10.6562C12.9043 10.7312 12.8848 10.8025 12.8613 10.87C12.8379 10.9375 12.8027 11.0012 12.7559 11.0612C12.709 11.1362 12.6465 11.2075 12.5684 11.275C12.4902 11.3425 12.4043 11.3987 12.3105 11.4437C12.2637 11.4737 12.209 11.5 12.1465 11.5225C12.084 11.545 12.0215 11.5562 11.959 11.5562L10.8809 12.6137C10.8809 12.6137 10.8887 12.6062 10.9043 12.5912C11.0137 12.5462 11.1309 12.5087 11.2559 12.4787C11.3809 12.4487 11.5137 12.4337 11.6543 12.4337C11.8105 12.4337 11.9512 12.4487 12.0762 12.4787C12.2012 12.5087 12.3184 12.5462 12.4277 12.5912C12.5371 12.6512 12.6348 12.7187 12.7207 12.7937C12.8066 12.8687 12.8887 12.9512 12.9668 13.0412C13.0293 13.1312 13.0762 13.2325 13.1074 13.345C13.1387 13.4575 13.1543 13.5737 13.1543 13.6937C13.1543 13.8137 13.1387 13.9262 13.1074 14.0312C13.0762 14.1362 13.0293 14.2337 12.9668 14.3237C12.9043 14.3987 12.8301 14.4737 12.7441 14.5487C12.6582 14.6237 12.5605 14.6837 12.4512 14.7287C12.3418 14.7737 12.2207 14.8075 12.0879 14.83C11.9551 14.8525 11.8105 14.8637 11.6543 14.8637C11.5137 14.8637 11.377 14.8525 11.2441 14.83C11.1113 14.8075 10.9824 14.7737 10.8574 14.7287C10.748 14.6837 10.6504 14.6237 10.5645 14.5487C10.4785 14.4737 10.4043 14.3987 10.3418 14.3237C10.2793 14.2337 10.2363 14.1362 10.2129 14.0312C10.1895 13.9262 10.1777 13.8137 10.1777 13.6937C10.1777 13.6037 10.1855 13.5137 10.2012 13.4237C10.2168 13.3337 10.248 13.2512 10.2949 13.1762L9.12305 14.2787Z" fill="black"/>
</g>
<defs>
<clipPath id="clip0_337_2395">
<rect width="24" height="24" fill="white" transform="matrix(1 0 0 -1 0.0527344 24.1191)"/>
</clipPath>
</defs>
</svg>
