<svg width="20" height="25" viewBox="0 0 20 25" fill="none" xmlns="http://www.w3.org/2000/svg">
<path fill-rule="evenodd" clip-rule="evenodd" d="M8.87496 9.63025C8.77361 9.62963 8.67547 9.59466 8.59656 9.53105C8.10056 9.13745 3.74216 5.60305 3.74216 3.13105C3.74216 0.630249 7.99336 0.630249 9.80616 0.630249C11.6222 0.630249 15.8734 0.630249 15.8734 3.13105C15.8734 5.60145 11.515 9.13745 11.0174 9.53105C10.9389 9.59432 10.8414 9.62927 10.7406 9.63025H8.87496ZM17.8702 10.0782C17.7902 10.0365 17.6993 10.0202 17.6097 10.0316C17.5202 10.0431 17.4363 10.0817 17.3694 10.1422C17.2995 10.2056 17.2481 10.2865 17.2205 10.3767C17.1929 10.4668 17.1902 10.5627 17.2126 10.6542C17.443 11.603 17.555 12.5742 17.555 13.6318L17.5582 14.5326C17.5694 16.4158 17.5822 19.7598 17.1582 21.803C17.137 21.9007 17.1447 22.0025 17.1802 22.0959C17.2157 22.1893 17.2775 22.2704 17.3582 22.3294C17.4356 22.3847 17.5289 22.4135 17.624 22.4115C17.7192 22.4095 17.8111 22.3768 17.8862 22.3182C18.9182 21.5246 19.4222 20.8078 19.4222 20.1294V13.1326C19.4222 11.6462 18.899 10.6206 17.8702 10.0814V10.0782ZM2.05736 14.5326L2.06216 13.6318C2.06216 12.5758 2.17416 11.603 2.40296 10.6558C2.42572 10.5643 2.42315 10.4683 2.39553 10.3781C2.36791 10.2879 2.31627 10.2069 2.24616 10.1438C2.17901 10.0837 2.09516 10.0453 2.00572 10.0339C1.91628 10.0225 1.82548 10.0385 1.74536 10.0798C0.718159 10.6206 0.193359 11.6478 0.193359 13.131V20.131C0.193359 20.8094 0.697359 21.5262 1.72936 22.3198C1.80441 22.3784 1.89636 22.4111 1.9915 22.4131C2.08664 22.4151 2.17989 22.3863 2.25736 22.331C2.42056 22.2174 2.49896 22.0078 2.45736 21.8046C2.03336 19.7614 2.04616 16.4174 2.05736 14.5326ZM3.24936 8.20625C3.61096 7.34385 3.85096 6.71985 3.90536 5.93905C3.91306 5.83294 3.88852 5.72698 3.83496 5.63505L3.75816 5.51025L3.73736 5.47665C3.71176 5.43345 3.68616 5.39185 3.66376 5.34865C3.62166 5.26791 3.55673 5.20135 3.47707 5.15725C3.39741 5.11316 3.30653 5.09347 3.21576 5.10065C3.12464 5.11148 3.03864 5.14855 2.9682 5.20735C2.89775 5.26614 2.84591 5.34414 2.81896 5.43185C2.4968 6.40392 2.27537 7.40652 2.15816 8.42385C2.14184 8.53992 2.16688 8.65803 2.22889 8.75749C2.29091 8.85696 2.38595 8.93142 2.49736 8.96785C2.53783 8.98017 2.57986 8.98664 2.62216 8.98705C2.80296 8.98705 2.97416 8.87345 3.04936 8.68785L3.24776 8.20465L3.24936 8.20625ZM16.7934 5.43505C17.1086 6.37745 17.3294 7.38065 17.4526 8.41745C17.4683 8.53324 17.4433 8.6509 17.3816 8.75019C17.32 8.84948 17.2257 8.92419 17.115 8.96145C17.0739 8.97377 17.0314 8.98024 16.9886 8.98065C16.8959 8.97903 16.8057 8.94987 16.7297 8.89687C16.6536 8.84388 16.595 8.76944 16.5614 8.68305L16.3662 8.20785C16.0046 7.34385 15.7646 6.71985 15.7102 5.93905C15.7018 5.83309 15.7258 5.72708 15.779 5.63505L15.9502 5.35185C15.9929 5.27208 16.0577 5.20637 16.1369 5.16265C16.2161 5.11893 16.3063 5.09906 16.3966 5.10545C16.579 5.12465 16.7326 5.25105 16.7934 5.43505ZM16.8094 13.6318C16.8094 11.267 16.2206 9.85745 15.7022 8.61585L15.7006 8.61265C15.571 8.30385 15.4446 8.00465 15.3326 7.69745C15.3061 7.62103 15.2607 7.55259 15.2005 7.49857C15.1403 7.44455 15.0674 7.40673 14.9886 7.38865C14.9105 7.373 14.8296 7.37838 14.7542 7.40424C14.6789 7.43011 14.6118 7.47553 14.5598 7.53585C13.6441 8.55055 12.6455 9.48713 11.5742 10.3358C11.4635 10.4216 11.3405 10.4901 11.2094 10.539V12.723C11.7502 12.931 11.7502 13.4302 11.2078 13.635C11.2078 13.635 10.9982 13.7278 10.7406 13.7278H8.87176C8.61576 13.7278 8.40456 13.6366 8.40456 13.6366C7.86536 13.4286 7.86536 12.9294 8.40776 12.723V10.5374C8.27565 10.4891 8.15159 10.4212 8.03976 10.3358C7.39976 9.82545 6.16296 8.78705 5.05576 7.53425C5.00333 7.47445 4.93617 7.42941 4.86095 7.40358C4.78573 7.37776 4.70506 7.37206 4.62696 7.38705C4.54797 7.40516 4.47485 7.44298 4.41442 7.49697C4.35399 7.55097 4.30821 7.61939 4.28136 7.69585C4.17576 7.98705 4.05736 8.27185 3.93576 8.56305L3.91656 8.61105L3.91496 8.61425C3.39656 9.85585 2.80776 11.2654 2.80776 13.6302L2.80456 14.539C2.78536 17.7294 2.76296 21.699 4.50536 23.5758C5.15496 24.275 5.99656 24.6302 7.00776 24.6302H12.6078C13.6206 24.6302 14.4622 24.275 15.1118 23.5758C16.8542 21.699 16.8302 17.7294 16.8126 14.539L16.8078 13.6302L16.8094 13.6318ZM10.275 10.6302H9.34216V12.6302H10.2766L10.275 10.6302Z" fill="#679DFF"/>
</svg>
