<svg width="17" height="17" viewBox="0 0 17 17" fill="none" xmlns="http://www.w3.org/2000/svg">
<path fill-rule="evenodd" clip-rule="evenodd" d="M4.64932 2.45209C2.75568 3.59561 1.0523 4.6773 0.863986 4.85574L0.521484 5.18028L0.564596 10.2461L0.607559 15.3119L1.09646 15.8011L1.58551 16.2903L3.67436 16.339C5.73895 16.387 5.76754 16.3833 6.14177 16.009C6.50913 15.6417 6.5205 15.5701 6.5205 13.6325C6.5205 12.2784 6.57843 11.5769 6.70014 11.4552C6.81914 11.3362 7.46523 11.2755 8.61623 11.2755C9.76723 11.2755 10.4133 11.3362 10.5323 11.4552C10.654 11.5769 10.712 12.2784 10.712 13.6325C10.712 15.5701 10.7233 15.6417 11.0907 16.009C11.4649 16.3833 11.4935 16.387 13.5581 16.339L15.6469 16.2903L16.136 15.8011L16.6249 15.3119L16.6683 10.4202C16.6969 7.2037 16.6572 5.39659 16.5524 5.1436C16.3213 4.58569 9.23821 0.342743 8.56743 0.360407C8.23555 0.369089 7.05446 0.999603 4.64932 2.45209Z" fill="#777777"/>
</svg>
