<svg width="17" height="16" viewBox="0 0 17 16" fill="none" xmlns="http://www.w3.org/2000/svg">
<path fill-rule="evenodd" clip-rule="evenodd" d="M8.22948 0.286996C8.12049 0.456542 7.92787 0.815509 7.80128 1.0847C7.58945 1.53558 7.50861 1.5852 6.77573 1.71433C5.57878 1.92509 5.32039 2.27125 5.89946 2.88781L6.18959 3.19648H5.35321C4.41037 3.19648 3.90053 3.42552 3.55997 4.00219C3.39176 4.28686 3.34174 4.72586 3.34174 5.91828V7.46514H2.59526C1.74726 7.46514 1.22088 7.71419 0.892063 8.27084C0.704909 8.58766 0.673828 9.14112 0.673828 12.1612C0.673828 14.722 0.717448 15.7259 0.833903 15.8424C0.954759 15.9632 2.87925 16.0024 8.67755 16.0024C14.4759 16.0024 16.4003 15.9632 16.5212 15.8424C16.6377 15.7259 16.6813 14.722 16.6813 12.1612C16.6813 9.14112 16.6502 8.58766 16.463 8.27084C16.1342 7.71419 15.6078 7.46514 14.7598 7.46514H14.0134V5.91828C14.0134 4.72586 13.9633 4.28686 13.7951 4.00219C13.4546 3.42552 12.9447 3.19648 12.0019 3.19648H11.1655L11.4556 2.88781C12.0331 2.27299 11.7761 1.92509 10.5896 1.71606C9.81115 1.57893 9.80087 1.57119 9.40776 0.819777C8.95501 -0.0455586 8.55843 -0.224842 8.22948 0.286996ZM8.38368 2.26352C8.2092 2.56993 8.0618 2.6629 7.75005 2.6629C7.27703 2.6629 7.23808 2.79283 7.61039 3.12979C7.779 3.28239 7.87718 3.54064 7.87718 3.83171C7.87718 4.22123 7.9132 4.27605 8.11062 4.18748C8.40969 4.05315 8.94541 4.05315 9.24448 4.18748C9.44191 4.27605 9.47792 4.22123 9.47792 3.83171C9.47792 3.54064 9.5761 3.28239 9.74472 3.12979C10.117 2.79283 10.0781 2.6629 9.60505 2.6629C9.29331 2.6629 9.1459 2.56993 8.97142 2.26352C8.84656 2.04395 8.71424 1.86426 8.67755 1.86426C8.64087 1.86426 8.50854 2.04395 8.38368 2.26352ZM5.10869 7.08549C4.66542 7.52877 5.07254 8.03727 5.82009 7.97404C6.40316 7.92468 6.68929 7.594 6.46226 7.23169C6.28417 6.94743 5.34787 6.84631 5.10869 7.08549ZM8.04339 7.08549C7.60012 7.52877 8.00724 8.03727 8.75479 7.97404C9.33786 7.92468 9.62399 7.594 9.39695 7.23169C9.21887 6.94743 8.28257 6.84631 8.04339 7.08549ZM10.9781 7.08549C10.5348 7.52877 10.9419 8.03727 11.6895 7.97404C12.2726 7.92468 12.5587 7.594 12.3317 7.23169C12.1536 6.94743 11.2173 6.84631 10.9781 7.08549ZM1.90107 8.69237C1.78595 8.80749 1.74099 9.70618 1.74099 11.8939V14.9353H2.54136H3.34174V11.7338V8.5323H2.70144C2.34927 8.5323 1.98911 8.60433 1.90107 8.69237ZM14.0134 11.7338V14.9353H14.8137H15.6141V11.8939C15.6141 9.70618 15.5692 8.80749 15.454 8.69237C15.366 8.60433 15.0058 8.5323 14.6537 8.5323H14.0134V11.7338ZM5.10869 9.21982C4.66542 9.66309 5.07254 10.1716 5.82009 10.1084C6.40316 10.059 6.68929 9.72832 6.46226 9.36602C6.28417 9.08176 5.34787 8.98064 5.10869 9.21982ZM8.04339 9.21982C7.60012 9.66309 8.00724 10.1716 8.75479 10.1084C9.33786 10.059 9.62399 9.72832 9.39695 9.36602C9.21887 9.08176 8.28257 8.98064 8.04339 9.21982ZM10.9781 9.21982C10.5348 9.66309 10.9419 10.1716 11.6895 10.1084C12.2726 10.059 12.5587 9.72832 12.3317 9.36602C12.1536 9.08176 11.2173 8.98064 10.9781 9.21982ZM5.10869 11.3541C4.66542 11.7974 5.07254 12.3059 5.82009 12.2427C6.40316 12.1933 6.68929 11.8626 6.46226 11.5003C6.28417 11.2161 5.34787 11.115 5.10869 11.3541ZM7.84383 11.3443C7.64054 11.4627 7.61039 11.7032 7.61039 13.2078V14.9353H8.67755H9.74472V13.2278C9.74472 12.0777 9.69242 11.4681 9.58464 11.3603C9.39068 11.1663 8.16878 11.1551 7.84383 11.3443ZM10.9781 11.3541C10.5348 11.7974 10.9419 12.3059 11.6895 12.2427C12.2726 12.1933 12.5587 11.8626 12.3317 11.5003C12.1536 11.2161 11.2173 11.115 10.9781 11.3541Z" fill="#777777"/>
</svg>
