<svg width="25" height="25" viewBox="0 0 25 25" fill="none" xmlns="http://www.w3.org/2000/svg">
<g clip-path="url(#clip0_493_6822)">
<path d="M8.04919 5.32691C13.5295 -0.113144 20.178 -1.52502 22.8387 2.18292C25.4993 5.89086 23.1609 13.3853 17.6806 18.8253C12.2002 24.3057 5.55173 25.7155 2.85084 21.9673C0.232522 18.2211 2.57088 10.765 8.04919 5.32691Z" fill="#F06321"/>
<path d="M11.6756 2.42458C11.0714 2.86768 10.4672 3.39134 9.86295 3.9573C5.0674 8.71055 3.05129 15.2382 5.42994 18.503C7.88712 21.7659 13.7703 20.5574 18.6867 15.7619C21.3473 13.1838 23.1197 10.201 23.8447 7.42154C24.0461 5.36717 23.7642 3.55247 22.8377 2.18289C20.7431 -0.717398 16.2295 -0.477724 11.6756 2.42458Z" fill="#AE282E"/>
<path d="M18.6056 3.02873V3.14958C18.5655 3.83437 18.1626 4.68028 17.4375 5.40536C16.3499 6.45268 14.8997 6.8555 14.2935 6.25329C13.6087 5.60878 14.0135 4.1969 15.1011 3.06902C16.229 1.98141 17.6792 1.61887 18.2834 2.26338C18.4848 2.46479 18.6056 2.70648 18.6056 3.02873ZM14.4163 21.5241C11.8363 23.4576 9.17769 24.4264 6.59766 24.0236C7.68526 24.0639 8.57347 22.8534 9.29853 21.2421C10.0236 19.5906 10.4264 18.0599 10.789 16.6077C11.3126 14.3117 11.3529 12.7004 11.0709 12.3379C10.6278 11.7719 9.66107 11.8948 8.53117 12.5393C7.96722 12.8615 7.24216 12.6601 8.09008 11.6128C8.97629 10.5655 12.4002 8.06597 13.6087 7.66315C14.9803 7.30061 16.511 7.82428 15.9873 9.31471C15.6228 10.4023 10.8695 22.8131 14.4163 21.5241Z" fill="white"/>
</g>
<defs>
<clipPath id="clip0_493_6822">
<rect width="24" height="24" fill="white" transform="translate(0.859375 0.11377)"/>
</clipPath>
</defs>
</svg>
