<svg width="33" height="33" viewBox="0 0 33 33" fill="none" xmlns="http://www.w3.org/2000/svg">
<g clip-path="url(#clip0_354_13427)">
<path d="M25.9992 7.12793H22.1129C21.855 5.87088 21.3703 4.77951 20.6584 3.85532H25.954C26.166 3.85532 26.3405 3.7868 26.4766 3.65004C26.6129 3.51437 26.6811 3.34021 26.6811 3.12713V0.80913C26.6811 0.597841 26.6129 0.422979 26.4766 0.286219C26.3402 0.150613 26.166 0.0820312 25.954 0.0820312H7.04385C6.83152 0.0820312 6.65735 0.150613 6.52094 0.286277C6.38458 0.423037 6.31641 0.597899 6.31641 0.809187V3.83206C6.31641 4.0292 6.38816 4.1995 6.53226 4.34325C6.67606 4.48705 6.84671 4.5591 7.04385 4.5591H10.3394C13.5365 4.5591 15.5669 5.41586 16.4304 7.12764H7.04385C6.83152 7.12764 6.65735 7.19582 6.52094 7.33183C6.38458 7.46859 6.31641 7.64345 6.31641 7.85474V10.1727C6.31641 10.3858 6.38458 10.56 6.52094 10.6956C6.6573 10.8324 6.83152 10.9006 7.04385 10.9006H16.7488C16.4152 12.1435 15.6387 13.09 14.4191 13.7415C13.1991 14.393 11.5895 14.718 9.58942 14.718H7.04385C6.84671 14.718 6.67606 14.7908 6.53226 14.9346C6.38811 15.0784 6.31641 15.249 6.31641 15.4458V18.3319C6.31641 18.5291 6.38458 18.6951 6.52094 18.8319C9.43003 21.9233 13.203 26.2487 17.8397 31.8097C17.9761 31.991 18.1655 32.0821 18.4078 32.0821H22.8397C23.158 32.0821 23.3774 31.9454 23.499 31.673C23.6502 31.4006 23.6201 31.143 23.4081 30.9007C18.9837 25.4771 15.5062 21.4163 12.9759 18.7191C15.5518 18.4164 17.6426 17.5829 19.2488 16.2192C20.8545 14.8554 21.8321 13.0826 22.1805 10.9013H25.999C26.211 10.9013 26.3855 10.8331 26.5219 10.6963C26.6582 10.5603 26.7265 10.3865 26.7265 10.1734V7.85543C26.7265 7.64414 26.6582 7.46928 26.5219 7.33252C26.3854 7.19611 26.2112 7.12793 25.9992 7.12793Z" fill="#4CA5F5"/>
</g>
<defs>
<clipPath id="clip0_354_13427">
<rect width="32" height="32" fill="white" transform="translate(0.521484 0.0820312)"/>
</clipPath>
</defs>
</svg>
