<svg width="17" height="16" viewBox="0 0 17 16" fill="none" xmlns="http://www.w3.org/2000/svg">
<g clip-path="url(#clip0_343_11943)">
<path d="M16.416 12.1538C16.416 12.6435 16.2404 13.1131 15.9279 13.4593C15.6153 13.8055 15.1914 14 14.7493 14H11.416V2H14.7493C15.1914 2 15.6153 2.1945 15.9279 2.54073C16.2404 2.88695 16.416 3.35652 16.416 3.84615V12.1538Z" fill="#FF4452"/>
<path d="M2.08268 2C1.64065 2 1.21673 2.1945 0.904171 2.54073C0.59161 2.88695 0.416016 3.35652 0.416016 3.84615L0.416016 12.1538C0.416016 12.6435 0.59161 13.1131 0.904171 13.4593C1.21673 13.8055 1.64065 14 2.08268 14H5.41602V2H2.08268Z" fill="#009246"/>
<path d="M5.41602 2H10.416V14H5.41602V2Z" fill="#EEEEEE"/>
</g>
<defs>
<clipPath id="clip0_343_11943">
<rect width="16" height="16" fill="white" transform="translate(0.416016)"/>
</clipPath>
</defs>
</svg>
