<svg width="58" height="37" viewBox="0 0 58 37" fill="none" xmlns="http://www.w3.org/2000/svg">
<g clip-path="url(#clip0_465_2707)">
<path d="M52.4021 1.02246H5.87027C3.38329 1.02246 1.36719 3.03856 1.36719 5.52554V31.043C1.36719 33.53 3.38329 35.5461 5.87027 35.5461H52.4021C54.8891 35.5461 56.9052 33.53 56.9052 31.043V5.52554C56.9052 3.03856 54.8891 1.02246 52.4021 1.02246Z" fill="white" stroke="#E6E4EB" stroke-width="1.50103"/>
<path d="M36.4902 20.9863H38.5917C38.6756 20.9851 38.7591 20.975 38.8408 20.9562C39.2761 20.8362 39.5809 20.3708 39.5809 19.838C39.5809 19.3051 39.2731 18.8413 38.8408 18.7182C38.7589 18.7005 38.6755 18.691 38.5917 18.6897H36.4902V20.9863Z" fill="url(#paint0_linear_465_2707)"/>
<path d="M38.4914 7.22487C36.4245 7.21887 34.7434 8.873 34.7359 10.9174V14.757H40.0495L40.4188 14.772C41.6196 14.8321 42.5082 15.44 42.5082 16.4937C42.5082 17.3283 41.9018 18.0323 40.797 18.1929V18.2334C42.0174 18.3175 42.9495 18.9764 42.9495 20.0151C42.9495 21.1409 41.9243 21.8614 40.5599 21.8614H34.7344V29.3966H40.2431C42.3146 29.3966 43.9987 27.7424 43.9987 25.701V7.22487H38.4914Z" fill="url(#paint1_linear_465_2707)"/>
<path d="M39.5824 16.3978C39.5914 16.0256 39.2521 15.7029 38.7868 15.6473L38.5647 15.6323H36.4902V17.1604H38.5617C38.6367 17.1604 38.7088 17.1544 38.7838 17.1454C39.2461 17.0898 39.5869 16.7701 39.5794 16.3948L39.5824 16.3978Z" fill="url(#paint2_linear_465_2707)"/>
<path d="M17.6403 7.22487C16.6497 7.22187 15.695 7.60913 14.9895 8.30261C14.284 8.99608 13.8878 9.93873 13.8848 10.9204V20.0466C14.9385 20.5495 16.0267 20.8812 17.1345 20.8812C18.4314 20.8812 19.1459 20.1037 19.1459 19.053V14.757H22.3731V19.044C22.3731 20.7206 21.3269 22.067 17.7379 22.067C16.4399 22.0678 15.1464 21.9141 13.8848 21.6092V29.3966H19.3935C21.465 29.3966 23.1491 27.7424 23.1491 25.701V7.22487H17.6373H17.6403Z" fill="url(#paint3_linear_465_2707)"/>
<path d="M28.4477 7.22487C27.457 7.22187 26.5024 7.60913 25.7984 8.30261C25.0944 8.99608 24.6982 9.93873 24.6951 10.9189V15.7567C25.6483 14.9552 27.2919 14.4508 29.9608 14.5559C30.9544 14.6159 31.9421 14.766 32.9088 14.9957V16.5598C32.0226 16.0989 31.0527 15.8212 30.0568 15.7432C28.0304 15.5931 26.8086 16.5688 26.8086 18.295C26.8086 20.0211 28.0094 20.9968 30.0568 20.8467C31.0485 20.7641 32.0141 20.4866 32.8983 20.0301V21.5942C31.9301 21.8254 30.9439 21.9725 29.9502 22.0355C27.2784 22.1556 25.6333 21.6512 24.6816 20.8347V29.3665H30.1904C32.2618 29.3665 33.946 27.7124 33.946 25.671V7.22487H28.4312H28.4477Z" fill="url(#paint4_linear_465_2707)"/>
</g>
<defs>
<linearGradient id="paint0_linear_465_2707" x1="-116.675" y1="152.568" x2="784.286" y2="152.568" gradientUnits="userSpaceOnUse">
<stop stop-color="#00763C"/>
<stop offset="0.31" stop-color="#238B37"/>
<stop offset="0.77" stop-color="#53A831"/>
<stop offset="1" stop-color="#65B32E"/>
</linearGradient>
<linearGradient id="paint1_linear_465_2707" x1="435153" y1="661699" x2="507313" y2="661699" gradientUnits="userSpaceOnUse">
<stop stop-color="#00763C"/>
<stop offset="0.31" stop-color="#238B37"/>
<stop offset="0.77" stop-color="#53A831"/>
<stop offset="1" stop-color="#65B32E"/>
</linearGradient>
<linearGradient id="paint2_linear_465_2707" x1="145272" y1="43600.1" x2="169355" y2="43600.1" gradientUnits="userSpaceOnUse">
<stop stop-color="#00763C"/>
<stop offset="0.31" stop-color="#238B37"/>
<stop offset="0.77" stop-color="#53A831"/>
<stop offset="1" stop-color="#65B32E"/>
</linearGradient>
<linearGradient id="paint3_linear_465_2707" x1="28.3742" y1="1131.22" x2="975.181" y2="1131.22" gradientUnits="userSpaceOnUse">
<stop stop-color="#312B6B"/>
<stop offset="0.13" stop-color="#2A3577"/>
<stop offset="0.71" stop-color="#0C5FA7"/>
<stop offset="1" stop-color="#006FB9"/>
</linearGradient>
<linearGradient id="paint4_linear_465_2707" x1="39.273" y1="1129.81" x2="958.685" y2="1129.81" gradientUnits="userSpaceOnUse">
<stop stop-color="#6E2E2B"/>
<stop offset="0.39" stop-color="#A21A32"/>
<stop offset="0.8" stop-color="#D20738"/>
<stop offset="1" stop-color="#E4003A"/>
</linearGradient>
<clipPath id="clip0_465_2707">
<rect width="57.0391" height="36.0247" fill="white" transform="translate(0.617188 0.271973)"/>
</clipPath>
</defs>
</svg>
