<svg width="25" height="22" viewBox="0 0 25 22" fill="none" xmlns="http://www.w3.org/2000/svg">
<path fill-rule="evenodd" clip-rule="evenodd" d="M0.859375 11.1138C0.859375 5.41418 6.23172 0.792969 12.8596 0.792969C19.4875 0.792969 24.8594 5.41418 24.8594 11.1138C24.8594 16.8134 19.487 21.4346 12.8596 21.4346C6.23217 21.4346 0.859375 16.8141 0.859375 11.1138Z" fill="#003874"/>
<path fill-rule="evenodd" clip-rule="evenodd" d="M11.4044 4.10745L14.1924 3.18628L14.2061 18.2576L11.3945 19.1996L11.4044 4.10745Z" fill="#ED1C24"/>
<path fill-rule="evenodd" clip-rule="evenodd" d="M21.8844 12.1528C21.6228 14.3087 20.4135 16.4868 17.7729 16.4909C16.2313 16.4936 15.027 15.4381 14.193 14.1466V12.6508C15.2366 13.1689 16.212 13.7251 17.3955 13.742C18.8534 13.7635 20.1716 13.203 20.7168 12.1525H21.8847L21.8844 12.1528ZM13.0572 13.5065C11.8458 14.9666 10.6751 16.4582 8.48172 16.4582C5.38359 16.4582 3.91406 13.4628 3.91406 10.9586C3.91406 8.55229 5.0625 5.70386 8.08075 5.70386C9.38985 5.70386 10.65 6.50442 11.4011 7.35122L11.3988 9.39382C10.7713 8.97134 9.36559 8.55687 8.44785 8.54199C6.53386 8.50995 4.84645 9.33958 4.87575 11.2289C4.89566 12.5295 6.18439 13.4136 7.46648 13.4136C9.43013 13.4136 10.6198 11.6197 11.6139 10.2582C12.0125 9.73852 12.4066 9.21532 12.796 8.68869C13.9003 7.1457 15.178 5.73704 17.3715 5.73704C19.9553 5.73704 21.4059 7.8197 21.816 9.96369H20.6488C20.1796 9.26841 19.2772 8.84295 18.3883 8.84295C16.3583 8.84295 15.1453 10.7105 14.1301 12.0855L13.0544 13.5063" fill="white"/>
</svg>
