<svg width="25" height="26" viewBox="0 0 25 26" fill="none" xmlns="http://www.w3.org/2000/svg">
<path fill-rule="evenodd" clip-rule="evenodd" d="M1.21686 1.0441C0.30851 1.54745 0.273293 1.79959 0.266174 7.86356C0.259056 14.0248 0.306824 14.3501 1.28467 14.7956C2.04204 15.1407 9.85527 15.1043 10.5354 14.7525C11.4511 14.279 11.4992 13.9367 11.4992 7.90103C11.4992 1.86535 11.4511 1.5231 10.5354 1.04954C9.81724 0.678253 1.88543 0.673382 1.21686 1.0441ZM13.9551 1.0441C13.138 1.49687 13.0115 2.00228 13.0044 4.84816C12.9939 9.11453 12.8735 9.02499 18.6177 9.02499C24.3491 9.02499 24.2375 9.10685 24.2375 4.90379C24.2375 2.0493 24.0934 1.47346 23.2737 1.04954C22.5555 0.678253 14.6237 0.673382 13.9551 1.0441ZM1.38358 1.90656C1.0256 2.26454 1.00893 2.53092 1.00893 7.90103C1.00893 13.2711 1.0256 13.5375 1.38358 13.8955C1.73557 14.2475 2.00794 14.2702 5.87943 14.2702C9.75092 14.2702 10.0233 14.2475 10.3753 13.8955C10.7333 13.5375 10.7499 13.2711 10.7499 7.90103C10.7499 2.53092 10.7333 2.26454 10.3753 1.90656C10.0233 1.55457 9.75092 1.5319 5.87943 1.5319C2.00794 1.5319 1.73557 1.55457 1.38358 1.90656ZM14.1218 1.90656C13.7828 2.24562 13.7472 2.53092 13.7472 4.90379C13.7472 8.52857 13.3817 8.27568 18.6177 8.27568C23.8537 8.27568 23.4882 8.52857 23.4882 4.90379C23.4882 1.27901 23.8537 1.5319 18.6177 1.5319C14.7462 1.5319 14.4738 1.55457 14.1218 1.90656ZM13.9551 10.7851C13.0468 11.2885 13.0115 11.5406 13.0044 17.6046C12.9973 23.7658 13.0451 24.0912 14.0229 24.5366C14.6926 24.8418 22.53 24.8476 23.1973 24.5435C23.4592 24.4242 23.852 24.0241 24.0702 23.6541C24.4582 22.9966 24.4642 22.8615 24.3411 17.5487C24.2688 14.426 24.1292 11.8932 24.0127 11.5919C23.6349 10.6148 23.1649 10.523 18.5802 10.5302C15.4734 10.5352 14.2882 10.6004 13.9551 10.7851ZM14.1218 11.6476C13.7638 12.0056 13.7472 12.2719 13.7472 17.642C13.7472 23.0121 13.7638 23.2785 14.1218 23.6365C14.4738 23.9885 14.7462 24.0112 18.6177 24.0112C22.4892 24.0112 22.7615 23.9885 23.1135 23.6365C23.4715 23.2785 23.4882 23.0121 23.4882 17.642C23.4882 12.2719 23.4715 12.0056 23.1135 11.6476C22.7615 11.2956 22.4892 11.2729 18.6177 11.2729C14.7462 11.2729 14.4738 11.2956 14.1218 11.6476ZM1.28992 16.7344C0.50052 17.166 0.446945 17.4099 0.446945 20.566C0.446945 22.2379 0.499396 23.7423 0.563275 23.9091C0.845764 24.6453 1.56566 24.7605 5.87943 24.7605C11.6109 24.7605 11.4992 24.8423 11.4992 20.6393C11.4992 17.7848 11.3552 17.2089 10.5354 16.785C9.88468 16.4486 1.89255 16.4047 1.28992 16.7344ZM1.38358 17.642C1.04452 17.9811 1.00893 18.2664 1.00893 20.6393C1.00893 24.2641 0.643451 24.0112 5.87943 24.0112C11.1154 24.0112 10.7499 24.2641 10.7499 20.6393C10.7499 17.0145 11.1154 17.2674 5.87943 17.2674C2.00794 17.2674 1.73557 17.2901 1.38358 17.642Z" fill="#2196F3" stroke="#2196F3" stroke-width="0.5"/>
</svg>
