<svg width="21" height="17" viewBox="0 0 21 17" fill="none" xmlns="http://www.w3.org/2000/svg">
<path id="Vector" fill-rule="evenodd" clip-rule="evenodd" d="M6.11992 1.02865C4.97883 1.2824 4.38629 2.52272 4.90785 3.56564C4.96869 3.68732 5.53493 4.29548 6.34776 5.11216L7.68737 6.45811L6.51672 7.12593C4.702 8.16124 4.86799 8.12255 3.45656 7.83908C2.34436 7.61568 2.089 7.60758 1.74162 7.78483C1.44464 7.93632 1.27505 8.09918 1.11678 8.38494C0.990855 8.6123 0.972656 8.69436 0.972656 9.03544C0.972656 9.60598 1.06633 9.74635 2.18585 10.8536C3.19032 11.8471 3.47944 12.056 4.0534 12.2031C4.39639 12.291 5.24615 12.3045 5.58323 12.2273C5.85845 12.1643 18.5193 7.30026 18.9515 7.09149C19.3536 6.89726 20.4541 5.84985 20.6513 5.47383C20.8226 5.14709 20.8338 4.56728 20.6755 4.22244C20.5451 3.93849 20.2239 3.61316 19.9589 3.49655C19.8476 3.44757 19.2076 3.31618 18.5368 3.20455C16.806 2.91655 16.809 2.9163 15.0968 3.4886L13.7548 3.93717L10.4042 2.50086C7.41517 1.21956 6.70441 0.944148 6.44027 0.964932C6.41167 0.967176 6.2675 0.995864 6.11992 1.02865ZM6.06434 2.15363C5.83855 2.30707 5.71145 2.60805 5.75585 2.88406C5.78517 3.06594 5.92408 3.22016 7.36341 4.66881C8.22995 5.54092 8.9633 6.30242 8.99306 6.36102C9.06683 6.50612 9.06112 6.64721 8.97472 6.81432C8.91846 6.92307 8.52581 7.16945 7.2305 7.9088C4.964 9.2025 4.99328 9.19542 3.30185 8.86102C2.21693 8.6465 2.12247 8.64825 2.0147 8.88478C1.98489 8.95026 1.97337 9.0553 1.98913 9.11824C2.00494 9.18113 2.4194 9.62906 2.91012 10.1136C4.01364 11.2032 4.06184 11.231 4.8514 11.231H5.41247L11.8526 8.74866C15.3947 7.38335 18.3916 6.21621 18.5124 6.15503C18.8011 6.00866 19.7809 5.01517 19.7809 4.86885C19.7809 4.69599 19.6498 4.49151 19.5026 4.43477C19.2969 4.35539 17.2867 4.03455 16.9952 4.03455C16.8032 4.03455 16.379 4.15453 15.2703 4.52244C14.4616 4.79079 13.7644 5.01034 13.7208 5.01034C13.6773 5.01034 12.0792 4.3407 10.1694 3.52227C6.35864 1.88915 6.42236 1.91037 6.06434 2.15363ZM2.08934 15.9867C1.91712 16.0566 1.77768 16.2768 1.77768 16.4786C1.77768 16.62 1.813 16.6988 1.9278 16.8136L2.07793 16.9637H10.5659C19.7972 16.9637 19.2519 16.9802 19.3811 16.6967C19.4787 16.4823 19.4514 16.2957 19.297 16.1229L19.1546 15.9635L10.6735 15.9542C6.00887 15.9491 2.14604 15.9637 2.08934 15.9867Z" fill="#777777"/>
</svg>
