<svg width="21" height="21" viewBox="0 0 21 21" fill="none" xmlns="http://www.w3.org/2000/svg">
<g clip-path="url(#clip0_318_1012)">
<path d="M9.5652 20.0984C9.67387 20.2614 9.85684 20.3594 10.0527 20.3594C10.2486 20.3594 10.4316 20.2615 10.5403 20.0984C11.927 18.0185 13.9694 15.4497 15.3927 12.8371C16.5307 10.7482 17.084 8.96664 17.084 7.39062C17.084 3.51359 13.9298 0.359375 10.0527 0.359375C6.1757 0.359375 3.02148 3.51359 3.02148 7.39062C3.02148 8.96664 3.57473 10.7482 4.71277 12.8371C6.135 15.4477 8.18137 18.0228 9.5652 20.0984ZM10.0527 1.53125C13.2836 1.53125 15.9121 4.15977 15.9121 7.39062C15.9121 8.76578 15.4056 10.364 14.3636 12.2765C13.1368 14.5284 11.3861 16.8128 10.0527 18.7332C8.71957 16.813 6.96875 14.5286 5.74184 12.2765C4.69988 10.364 4.19336 8.76578 4.19336 7.39062C4.19336 4.15977 6.82188 1.53125 10.0527 1.53125Z" fill="#323232"/>
<path d="M10.0527 10.9062C11.9913 10.9062 13.5684 9.32914 13.5684 7.39062C13.5684 5.45211 11.9913 3.875 10.0527 3.875C8.11422 3.875 6.53711 5.45211 6.53711 7.39062C6.53711 9.32914 8.11422 10.9062 10.0527 10.9062ZM10.0527 5.04688C11.3451 5.04688 12.3965 6.09828 12.3965 7.39062C12.3965 8.68297 11.3451 9.73438 10.0527 9.73438C8.76039 9.73438 7.70898 8.68297 7.70898 7.39062C7.70898 6.09828 8.76039 5.04688 10.0527 5.04688Z" fill="#323232"/>
</g>
<defs>
<clipPath id="clip0_318_1012">
<rect width="20" height="20" fill="white" transform="translate(0.0527344 0.359375)"/>
</clipPath>
</defs>
</svg>
