<svg width="58" height="37" viewBox="0 0 58 37" fill="none" xmlns="http://www.w3.org/2000/svg">
<g clip-path="url(#clip0_465_2696)">
<path fill-rule="evenodd" clip-rule="evenodd" d="M5.02405 1.02246C4.53126 1.02246 4.04329 1.11952 3.58801 1.30811C3.13272 1.49669 2.71904 1.7731 2.37059 2.12156C1.66684 2.82531 1.27148 3.77979 1.27148 4.77503V31.7935C1.27148 32.7888 1.66684 33.7433 2.37059 34.447C2.71904 34.7955 3.13272 35.0719 3.58801 35.2605C4.04329 35.449 4.53126 35.5461 5.02405 35.5461H53.0569C54.0522 35.5461 55.0067 35.1507 55.7104 34.447C56.4142 33.7433 56.8095 32.7888 56.8095 31.7935V4.77503C56.8095 4.28224 56.7125 3.79427 56.5239 3.33898C56.3353 2.8837 56.0589 2.47002 55.7104 2.12156C55.362 1.7731 54.9483 1.49669 54.493 1.30811C54.0377 1.11952 53.5497 1.02246 53.0569 1.02246H5.02405Z" fill="white" stroke="#E6E4EB" stroke-width="1.50103"/>
<path d="M24.7656 10.8767H33.2825V25.7279H24.7656V10.8767Z" fill="#FF5F00"/>
<path d="M25.3078 18.2798C25.3048 15.3858 26.6767 12.6509 29.0304 10.8647C25.0376 7.82811 19.2992 8.26791 15.8543 11.8809C14.1963 13.5975 13.2695 15.8909 13.2695 18.2775C13.2695 20.6641 14.1963 22.9575 15.8543 24.6741C19.3007 28.2856 25.0361 28.7269 29.0304 25.6903C26.6797 23.8891 25.3078 21.1888 25.3078 18.2798Z" fill="#EB001B"/>
<path d="M44.7881 18.2798C44.7881 21.8883 42.6597 25.18 39.3034 26.7576C35.9471 28.3352 31.9844 27.9224 29.0273 25.6889C31.378 23.8876 32.7499 21.1708 32.7499 18.2768C32.7499 15.3828 31.378 12.6524 29.0273 10.8647C31.9844 8.63119 35.9471 8.21991 39.3034 9.79899C42.6597 11.3781 44.7881 14.6683 44.7881 18.2768V18.2813V18.2798Z" fill="#F79E1B"/>
</g>
<defs>
<clipPath id="clip0_465_2696">
<rect width="57.0391" height="36.0247" fill="white" transform="translate(0.521484 0.271973)"/>
</clipPath>
</defs>
</svg>
