<svg width="26" height="25" viewBox="0 0 26 25" fill="none" xmlns="http://www.w3.org/2000/svg">
<path fill-rule="evenodd" clip-rule="evenodd" d="M5.90102 0.756982C5.55287 0.897592 5.62468 1.5997 6.04163 2.13271C6.57914 2.81982 6.51183 3.47187 5.83747 4.11305C4.57142 5.31667 4.39969 6.7627 5.37177 8.03719C6.27129 9.21643 7.48935 8.63281 6.64138 7.42882C5.93908 6.4318 5.96402 6.19145 6.87967 5.11869C7.72632 4.12674 7.827 3.85377 7.73907 2.78945C7.68433 2.12896 7.4526 1.63626 6.92297 1.0547C6.53995 0.63437 6.34554 0.577564 5.90102 0.756982ZM10.4005 0.756982C10.0526 0.897404 10.1186 1.58845 10.5411 2.22645C11.0597 3.00936 11.0095 3.47356 10.337 4.11305C9.60037 4.81329 9.22878 5.52515 9.22878 6.2357C9.22878 7.42563 10.0616 8.69449 10.8424 8.69449C11.5008 8.69449 11.5779 8.07075 11.0205 7.25071C10.7569 6.86263 10.5411 6.43836 10.5411 6.30806C10.5411 6.17758 10.8242 5.75425 11.1703 5.36729C12.029 4.40702 12.2736 3.88808 12.262 3.05173C12.2513 2.27182 12.0115 1.7015 11.4225 1.0547C11.0395 0.63437 10.845 0.577564 10.4005 0.756982ZM14.6831 0.975208C14.5453 1.23262 14.6121 1.49996 14.952 2.05322C15.5528 3.0313 15.5305 3.31552 14.7864 4.14755C13.946 5.08757 13.7283 5.54015 13.7283 6.348C13.7283 7.93914 15.2068 9.31524 15.8384 8.31203C15.9709 8.10168 15.8873 7.82759 15.5303 7.30152C15.2611 6.90462 15.0406 6.46536 15.0406 6.32531C15.0406 6.18545 15.3237 5.75425 15.6698 5.36729C16.5292 4.4059 16.728 3.97469 16.728 3.0701C16.728 1.44916 15.2435 -0.071865 14.6831 0.975208ZM1.17373 11.3068C1.06705 11.5063 0.981373 12.4977 0.983435 13.5097C0.991871 17.7201 1.65142 19.558 3.97505 21.8475L5.4672 23.3179H3.43379C1.19641 23.3179 0.760522 23.4954 1.16079 24.2433C1.36571 24.6263 1.46319 24.6302 10.7123 24.6302C20.6671 24.6302 20.6139 24.6351 20.444 23.7487C20.387 23.4519 20.1272 23.4053 18.2724 23.3586C17.1136 23.3295 16.1655 23.2309 16.1655 23.1396C16.1655 23.0483 16.4565 22.7937 16.8121 22.574C17.4447 22.1829 18.5797 20.9234 19.2248 19.8964C19.5223 19.4228 19.645 19.3808 20.7295 19.3808C22.4024 19.3808 23.7629 18.6744 24.3404 17.506C25.0386 16.0934 25.166 15.4076 25.1272 13.2744L25.0897 11.2255L24.9771 13.3815C24.915 14.5673 24.8475 15.3435 24.8269 15.1063C24.7429 14.1374 23.687 12.841 22.6683 12.4561C22.378 12.3464 21.7663 12.2566 21.309 12.2566C20.5664 12.2566 20.4776 12.2105 20.4776 11.8254C20.4776 11.5882 20.3763 11.293 20.2526 11.1692C20.0837 11.0003 17.7044 10.9442 10.6977 10.9442C1.66549 10.9442 1.36158 10.9559 1.17373 11.3068ZM1.0513 13.6627C1.05168 14.9001 1.08205 15.3819 1.11861 14.7334C1.15535 14.0849 1.15517 13.0725 1.11805 12.4836C1.08092 11.8948 1.05093 12.4253 1.0513 13.6627ZM2.51008 14.7388C2.5787 17.0401 2.62688 17.3155 3.15782 18.4468C3.95817 20.1516 5.30709 21.4783 7.11158 22.3353C8.41381 22.9536 8.76027 23.0348 10.3803 23.0999C13.0147 23.2056 14.7144 22.6027 16.575 20.9022C18.431 19.2059 19.2951 16.686 19.1285 13.4559L19.0715 12.3503L10.7537 12.3016L2.43603 12.2527L2.51008 14.7388ZM20.4337 15.3969C20.3857 16.4021 20.2824 17.3724 20.2044 17.5529C20.0797 17.8412 20.1793 17.881 21.0265 17.881C22.1223 17.881 22.7974 17.5267 23.2056 16.7376C23.9727 15.254 22.8426 13.569 21.0803 13.569H20.5212L20.4337 15.3969Z" fill="#2196F3"/>
<path d="M19.0459 12.2565H2.39844C2.39844 16.9724 3.43363 23.0086 11.2643 23.0086C18.1023 23.0086 19.03 16.2492 19.0459 12.2565Z" fill="#D1E7FF" stroke="#679DFF"/>
</svg>
