<svg width="33" height="33" viewBox="0 0 33 33" fill="none" xmlns="http://www.w3.org/2000/svg">
<g clip-path="url(#clip0_354_13409)">
<path d="M10.5215 17.4159C9.3348 17.4159 8.17476 17.064 7.18806 16.4047C6.20137 15.7454 5.43233 14.8083 4.97821 13.712C4.52408 12.6156 4.40526 11.4092 4.63677 10.2453C4.86828 9.08143 5.43973 8.01233 6.27884 7.17321C7.11796 6.3341 8.18706 5.76266 9.35094 5.53114C10.5148 5.29963 11.7212 5.41845 12.8176 5.87258C13.9139 6.3267 14.851 7.09574 15.5103 8.08243C16.1696 9.06913 16.5215 10.2292 16.5215 11.4159C16.5197 13.0066 15.887 14.5317 14.7622 15.6565C13.6373 16.7814 12.1122 17.4141 10.5215 17.4159ZM10.5215 8.08252C9.86221 8.08252 9.21775 8.27802 8.66958 8.64429C8.12142 9.01056 7.69418 9.53116 7.44189 10.1402C7.18959 10.7493 7.12358 11.4196 7.2522 12.0662C7.38082 12.7128 7.69829 13.3067 8.16446 13.7729C8.63064 14.2391 9.22458 14.5565 9.87118 14.6851C10.5178 14.8138 11.188 14.7477 11.7971 14.4955C12.4062 14.2432 12.9268 13.8159 13.2931 13.2678C13.6593 12.7196 13.8548 12.0751 13.8548 11.4159C13.8548 10.5318 13.5036 9.68395 12.8785 9.05883C12.2534 8.43371 11.4055 8.08252 10.5215 8.08252ZM20.5215 30.7492V30.0825C20.5215 27.4304 19.4679 24.8868 17.5926 23.0115C15.7172 21.1361 13.1736 20.0825 10.5215 20.0825C7.86932 20.0825 5.32578 21.1361 3.45042 23.0115C1.57505 24.8868 0.521484 27.4304 0.521484 30.0825L0.521484 30.7492C0.521484 31.1028 0.66196 31.442 0.912009 31.692C1.16206 31.942 1.5012 32.0825 1.85482 32.0825C2.20844 32.0825 2.54758 31.942 2.79763 31.692C3.04768 31.442 3.18815 31.1028 3.18815 30.7492V30.0825C3.18815 28.1376 3.96077 26.2723 5.33603 24.8971C6.7113 23.5218 8.57656 22.7492 10.5215 22.7492C12.4664 22.7492 14.3317 23.5218 15.7069 24.8971C17.0822 26.2723 17.8548 28.1376 17.8548 30.0825V30.7492C17.8548 31.1028 17.9953 31.442 18.2453 31.692C18.4954 31.942 18.8345 32.0825 19.1882 32.0825C19.5418 32.0825 19.8809 31.942 20.131 31.692C20.381 31.442 20.5215 31.1028 20.5215 30.7492ZM32.5215 24.0825C32.5214 22.2808 31.9999 20.5175 31.0198 19.0057C30.0396 17.4938 28.6429 16.298 26.9981 15.5625C25.3533 14.827 23.5307 14.5833 21.7505 14.8608C19.9702 15.1384 18.3084 15.9253 16.9655 17.1265C16.8332 17.2428 16.7252 17.3841 16.6478 17.5423C16.5704 17.7006 16.5252 17.8726 16.5147 18.0484C16.5041 18.2242 16.5285 18.4004 16.5865 18.5667C16.6444 18.733 16.7347 18.8862 16.8522 19.0175C16.9697 19.1487 17.112 19.2554 17.271 19.3313C17.4299 19.4072 17.6023 19.4508 17.7782 19.4597C17.9541 19.4686 18.1301 19.4426 18.2959 19.3831C18.4617 19.3236 18.614 19.2319 18.7442 19.1132C19.7034 18.2553 20.8905 17.6935 22.162 17.4954C23.4336 17.2973 24.7353 17.4715 25.91 17.9969C27.0848 18.5223 28.0823 19.3765 28.7823 20.4564C29.4823 21.5363 29.8548 22.7956 29.8548 24.0825C29.8548 24.4361 29.9953 24.7753 30.2453 25.0253C30.4954 25.2754 30.8345 25.4159 31.1882 25.4159C31.5418 25.4159 31.8809 25.2754 32.131 25.0253C32.381 24.7753 32.5215 24.4361 32.5215 24.0825ZM23.8548 12.0825C22.6681 12.0825 21.5081 11.7306 20.5214 11.0713C19.5347 10.4121 18.7657 9.47498 18.3115 8.37862C17.8574 7.28227 17.7386 6.07587 17.9701 4.91198C18.2016 3.74809 18.7731 2.679 19.6122 1.83988C20.4513 1.00077 21.5204 0.429322 22.6843 0.197811C23.8482 -0.0337008 25.0546 0.0851192 26.1509 0.539245C27.2473 0.993371 28.1843 1.76241 28.8436 2.7491C29.5029 3.7358 29.8548 4.89583 29.8548 6.08252C29.8531 7.67328 29.2203 9.19838 28.0955 10.3232C26.9707 11.448 25.4456 12.0808 23.8548 12.0825ZM23.8548 2.74919C23.1955 2.74919 22.5511 2.94469 22.0029 3.31096C21.4548 3.67723 21.0275 4.19782 20.7752 4.80691C20.5229 5.416 20.4569 6.08622 20.5855 6.73282C20.7142 7.37943 21.0316 7.97337 21.4978 8.43954C21.964 8.90572 22.5579 9.22319 23.2045 9.35181C23.8511 9.48042 24.5213 9.41441 25.1304 9.16212C25.7395 8.90983 26.2601 8.48259 26.6264 7.93442C26.9927 7.38626 27.1882 6.74179 27.1882 6.08252C27.1882 5.19847 26.837 4.35062 26.2118 3.7255C25.5867 3.10038 24.7389 2.74919 23.8548 2.74919Z" fill="#38E25D"/>
</g>
<defs>
<clipPath id="clip0_354_13409">
<rect width="32" height="32" fill="white" transform="translate(0.521484 0.0825195)"/>
</clipPath>
</defs>
</svg>
