<svg width="25" height="25" viewBox="0 0 25 25" fill="none" xmlns="http://www.w3.org/2000/svg">
<g clip-path="url(#clip0_337_2255)">
<path d="M15.0906 13.5215C14.2702 12.7446 13.1831 12.3115 12.0531 12.3115C10.9231 12.3115 9.83611 12.7446 9.01564 13.5215L5.35189 16.9865C3.25189 18.8953 4.76689 22.544 7.60189 22.4015C9.13939 22.3603 10.3881 21.5728 12.0494 21.6028C13.7706 21.5728 15.0494 22.2665 16.5944 22.4015C19.3806 22.4653 20.8206 18.8578 18.7506 16.9865L15.0906 13.5215ZM18.8031 20.1478C18.6245 20.6042 18.3084 20.9938 17.8986 21.2625C17.4887 21.5313 17.0054 21.6659 16.5156 21.6478C15.0719 21.4378 13.8006 20.8303 12.0531 20.8528C10.3056 20.8753 9.05314 21.6028 7.50814 21.6515C7.02835 21.655 6.55871 21.5135 6.16075 21.2454C5.7628 20.9774 5.45509 20.5954 5.27794 20.1495C5.1008 19.7036 5.06249 19.2146 5.16802 18.7466C5.27356 18.2785 5.51803 17.8533 5.86939 17.5265L9.52939 14.0803C10.2116 13.4358 11.1146 13.0767 12.0531 13.0767C12.9917 13.0767 13.8947 13.4358 14.5769 14.0803L18.2369 17.5453C18.5829 17.8713 18.8222 18.2943 18.9233 18.7588C19.0243 19.2233 18.9824 19.7075 18.8031 20.1478Z" fill="black"/>
<path d="M21.3993 8.42907C19.9668 8.14782 18.8718 9.74157 18.5868 11.1141C17.7318 15.3628 21.8493 16.1728 22.813 12.0516C23.2068 10.2853 22.5843 8.69157 21.3993 8.42907ZM22.0818 11.8903C21.2793 15.0778 18.7068 14.5153 19.318 11.2791C19.9705 8.38032 22.6705 8.34282 22.0818 11.8903Z" fill="black"/>
<path d="M15.328 10.7236C16.753 10.7236 17.9118 9.10359 17.9118 7.11609C17.7693 2.33109 12.8868 2.33109 12.748 7.11609C12.748 9.10359 13.9068 10.7236 15.328 10.7236ZM15.328 4.25859C17.7468 4.42359 17.7468 9.80859 15.328 9.97359C12.9093 9.80859 12.913 4.42359 15.328 4.25859Z" fill="black"/>
<path d="M5.52139 11.1141C5.24014 9.74157 4.14139 8.14782 2.70889 8.42907C0.0538932 9.10032 1.17889 14.7591 3.77389 14.7741C5.24389 14.7253 5.92264 13.0191 5.52139 11.1141ZM3.94639 14.0053C2.09764 14.2828 1.07764 9.68907 2.87014 9.16407C3.95014 9.05907 4.55764 10.3303 4.79014 11.2791C5.08264 12.5803 4.69639 13.8403 3.94639 14.0053Z" fill="black"/>
<path d="M8.78102 10.7236C10.2023 10.7236 11.361 9.10359 11.361 7.11609C11.2223 2.33109 6.33977 2.33109 6.19727 7.11609C6.19727 9.10359 7.35602 10.7236 8.78102 10.7236ZM8.78102 4.25859C11.1998 4.42359 11.196 9.80859 8.78102 9.97359C6.36227 9.80859 6.36227 4.42359 8.78102 4.25859Z" fill="black"/>
<path d="M23.2988 4.14648L2.25391 22.0454" stroke="black"/>
<path d="M24.0547 4.50586L3.00977 22.4048" stroke="white"/>
</g>
<defs>
<clipPath id="clip0_337_2255">
<rect width="24" height="24" fill="white" transform="translate(0.0546875 0.955078)"/>
</clipPath>
</defs>
</svg>
