<svg width="25" height="25" viewBox="0 0 25 25" fill="none" xmlns="http://www.w3.org/2000/svg">
<path d="M15.0887 13.5059C14.2682 12.7289 13.1812 12.2959 12.0512 12.2959C10.9212 12.2959 9.83416 12.7289 9.01368 13.5059L5.34993 16.9709C3.24993 18.8797 4.76493 22.5284 7.59993 22.3859C9.13743 22.3447 10.3862 21.5572 12.0474 21.5872C13.7687 21.5572 15.0474 22.2509 16.5924 22.3859C19.3787 22.4497 20.8187 18.8422 18.7487 16.9709L15.0887 13.5059ZM18.8012 20.1322C18.6226 20.5886 18.3065 20.9782 17.8966 21.2469C17.4868 21.5157 17.0035 21.6503 16.5137 21.6322C15.0699 21.4222 13.7987 20.8147 12.0512 20.8372C10.3037 20.8597 9.05118 21.5872 7.50618 21.6359C7.0264 21.6394 6.55676 21.4978 6.1588 21.2298C5.76084 20.9618 5.45313 20.5798 5.27599 20.1339C5.09885 19.688 5.06053 19.199 5.16607 18.7309C5.27161 18.2629 5.51607 17.8377 5.86743 17.5109L9.52743 14.0647C10.2097 13.4201 11.1126 13.0611 12.0512 13.0611C12.9897 13.0611 13.8927 13.4201 14.5749 14.0647L18.2349 17.5297C18.581 17.8556 18.8202 18.2787 18.9213 18.7432C19.0224 19.2077 18.9805 19.6919 18.8012 20.1322Z" fill="#323232"/>
<path d="M21.3973 8.41345C19.9648 8.1322 18.8698 9.72595 18.5848 11.0984C17.7298 15.3472 21.8473 16.1572 22.8111 12.0359C23.2048 10.2697 22.5823 8.67595 21.3973 8.41345ZM22.0798 11.8747C21.2773 15.0622 18.7048 14.4997 19.3161 11.2634C19.9686 8.3647 22.6686 8.32719 22.0798 11.8747Z" fill="#323232"/>
<path d="M15.3261 10.708C16.7511 10.708 17.9098 9.08797 17.9098 7.10047C17.7673 2.31547 12.8848 2.31547 12.7461 7.10047C12.7461 9.08797 13.9048 10.708 15.3261 10.708ZM15.3261 4.24297C17.7448 4.40797 17.7448 9.79297 15.3261 9.95797C12.9073 9.79297 12.9111 4.40797 15.3261 4.24297Z" fill="#323232"/>
<path d="M5.51944 11.0984C5.23819 9.72595 4.13944 8.1322 2.70694 8.41345C0.0519401 9.0847 1.17694 14.7434 3.77194 14.7584C5.24194 14.7097 5.92069 13.0034 5.51944 11.0984ZM3.94444 13.9897C2.09569 14.2672 1.07569 9.67344 2.86819 9.14844C3.94819 9.04344 4.55569 10.3147 4.78819 11.2634C5.08069 12.5647 4.69444 13.8247 3.94444 13.9897Z" fill="#323232"/>
<path d="M8.77906 10.708C10.2003 10.708 11.3591 9.08797 11.3591 7.10047C11.2203 2.31547 6.33781 2.31547 6.19531 7.10047C6.19531 9.08797 7.35406 10.708 8.77906 10.708ZM8.77906 4.24297C11.1978 4.40797 11.1941 9.79297 8.77906 9.95797C6.36031 9.79297 6.36031 4.40797 8.77906 4.24297Z" fill="#323232"/>
</svg>
