<svg width="18" height="17" viewBox="0 0 18 17" fill="none" xmlns="http://www.w3.org/2000/svg">
<path id="Vector" fill-rule="evenodd" clip-rule="evenodd" d="M7.52735 1.06519C7.07855 1.27733 6.76844 1.69175 6.72205 2.14145C6.70918 2.26585 6.76237 3.1347 6.84017 4.07223C6.91796 5.00981 6.97326 5.7852 6.96306 5.7954C6.92881 5.82965 4.55121 5.21493 4.3799 5.12749C4.0966 4.983 3.91092 4.75309 3.44345 3.96806C2.8681 3.00196 2.80687 2.92605 2.4681 2.75927C2.12046 2.58814 1.72674 2.57015 1.40858 2.7109C1.12863 2.83474 0.842739 3.11293 0.722773 3.37825C0.623675 3.59749 0.621094 3.63359 0.621094 4.808C0.621094 6.13572 0.640414 6.26735 0.909909 6.77531C1.06391 7.06563 1.45355 7.47837 1.77158 7.68814C2.01762 7.85041 14.3556 12.7173 14.7179 12.795C14.835 12.8201 15.3502 12.833 15.9257 12.8251C16.9217 12.8116 16.931 12.8106 17.1504 12.6949C17.401 12.5627 17.6316 12.3142 17.7755 12.0213C17.9226 11.7217 17.9166 11.2178 17.762 10.8967C17.5918 10.543 16.2995 9.06406 15.9663 8.84155C15.6895 8.6567 15.6341 8.63393 13.6656 7.89494L12.4242 7.42893L11.1265 4.61243C9.6031 1.30599 9.71825 1.48594 8.92465 1.1704C8.5342 1.01515 8.39289 0.980081 8.10825 0.96799C7.80881 0.955253 7.7332 0.967903 7.52735 1.06519ZM7.80962 1.95216C7.74551 2.00264 7.67503 2.09124 7.65304 2.14915C7.62589 2.22054 7.66986 2.93345 7.78987 4.36664C7.95623 6.35306 7.96264 6.48762 7.89723 6.62475C7.85222 6.71911 7.77245 6.79369 7.67115 6.83598C7.51857 6.89975 7.47395 6.89123 5.89661 6.49674C4.79381 6.22096 4.18498 6.04738 3.9845 5.95172C3.51466 5.72741 3.23192 5.4117 2.69035 4.50679C2.43544 4.0808 2.18651 3.68871 2.13724 3.63544C2.01233 3.50054 1.79038 3.50571 1.64929 3.6468L1.54111 3.75498L1.55441 4.90542L1.56775 6.05586L1.68302 6.27427C1.7464 6.39446 1.91499 6.60078 2.05768 6.73288C2.30265 6.95969 2.37502 6.9958 3.36238 7.38431C3.9373 7.61056 6.75066 8.71935 9.61429 9.84832L14.8209 11.901L15.7245 11.9171C16.5643 11.9321 16.6377 11.9272 16.7635 11.8485C16.9478 11.7334 17.0197 11.5138 16.9366 11.3199C16.8742 11.1741 15.7933 9.88184 15.5818 9.70021C15.3864 9.53226 15.1344 9.42551 13.4713 8.80614C12.5084 8.44749 11.8281 8.17089 11.7751 8.11642C11.7264 8.06642 11.09 6.73271 10.3608 5.15271C9.63158 3.57266 9.0142 2.25496 8.98885 2.22441C8.92104 2.1427 8.19237 1.86047 8.04921 1.86047C7.98157 1.86047 7.87374 1.90173 7.80962 1.95216ZM1.75389 16.1339C1.51095 16.2846 1.47007 16.6362 1.67201 16.8381L1.79778 16.9639H9.33459H16.8714L16.9972 16.8381C17.1359 16.6994 17.1635 16.4976 17.0715 16.2957C16.9576 16.0457 17.4364 16.0602 9.32599 16.0614C2.45622 16.0624 1.85987 16.0682 1.75389 16.1339Z" fill="#777777"/>
</svg>
