<svg width="25" height="25" viewBox="0 0 25 25" fill="none" xmlns="http://www.w3.org/2000/svg">
<path d="M12.3701 24.6302C18.9975 24.6302 24.3701 19.2576 24.3701 12.6302C24.3701 6.00286 18.9975 0.630249 12.3701 0.630249C5.74268 0.630249 0.370117 6.00286 0.370117 12.6302C0.370117 19.2576 5.74268 24.6302 12.3701 24.6302Z" fill="#679DFF"/>
<path d="M16.8512 9.52839V10.5604C16.8529 10.6033 16.8456 10.6462 16.8299 10.6862C16.8142 10.7261 16.7904 10.7625 16.76 10.7929C16.7297 10.8233 16.6933 10.847 16.6534 10.8627C16.6133 10.8784 16.5705 10.8856 16.5276 10.884H14.8287C14.7001 11.8067 14.2355 12.6493 13.5239 13.2506C12.7255 13.8918 11.7534 14.2794 10.7327 14.3633C11.859 15.5633 13.4064 17.3704 15.3749 19.7844C15.4199 19.8285 15.4484 19.8867 15.4558 19.9492C15.4632 20.0118 15.449 20.075 15.4156 20.1284C15.3926 20.1856 15.3521 20.2341 15.2998 20.2667C15.2475 20.2994 15.1862 20.3146 15.1247 20.3102H13.1502C13.1012 20.3123 13.0525 20.3023 13.0084 20.2811C12.9643 20.26 12.926 20.2282 12.897 20.1888C10.8335 17.716 9.15451 15.7909 7.85995 14.4135C7.83042 14.3846 7.80708 14.3499 7.79143 14.3116C7.77583 14.2733 7.7682 14.2323 7.76906 14.1909V12.9058C7.7702 12.8204 7.80465 12.7387 7.8651 12.6782C7.92556 12.6178 8.00724 12.5833 8.0927 12.5822H9.22288C9.96406 12.6135 10.7017 12.4638 11.3719 12.1458C11.625 12.0213 11.8484 11.8441 12.0273 11.6261C12.2062 11.4081 12.3364 11.1543 12.4091 10.8819H8.0905C8.04756 10.8835 8.00476 10.8762 7.96473 10.8605C7.92475 10.8448 7.88844 10.8211 7.85804 10.7907C7.82765 10.7603 7.80384 10.724 7.78819 10.684C7.77249 10.644 7.76524 10.6011 7.76686 10.5582V9.52624C7.7651 9.48326 7.7723 9.44041 7.78795 9.40033C7.8036 9.3603 7.82741 9.32389 7.8578 9.2935C7.8882 9.26311 7.92456 9.2393 7.96463 9.22365C8.00467 9.208 8.04756 9.20084 8.0905 9.20256H12.268C11.8835 8.44039 10.98 8.0593 9.5574 8.0593H8.0905C8.005 8.05816 7.92336 8.02371 7.86291 7.96325C7.80246 7.9028 7.76801 7.82116 7.76686 7.73566V6.3902C7.76524 6.3473 7.77249 6.30446 7.78819 6.26447C7.80384 6.22444 7.82765 6.18813 7.85804 6.15774C7.88844 6.12734 7.92475 6.10358 7.96473 6.08789C8.00476 6.07219 8.04756 6.06494 8.0905 6.06661H16.5058C16.5487 6.06484 16.5916 6.07204 16.6317 6.08769C16.6717 6.1033 16.7081 6.12711 16.7385 6.1575C16.7689 6.18789 16.7927 6.2243 16.8083 6.26433C16.824 6.30441 16.8311 6.34726 16.8294 6.3902V7.42223C16.8311 7.46518 16.824 7.50807 16.8083 7.5481C16.7927 7.58818 16.7689 7.62454 16.7385 7.65493C16.7081 7.68537 16.6717 7.70913 16.6317 7.72478C16.5916 7.74043 16.5487 7.74759 16.5058 7.74587H14.1494C14.4741 8.17453 14.6956 8.67227 14.7967 9.20041H16.5261C16.5691 9.19874 16.6119 9.20599 16.6519 9.22169C16.6919 9.23739 16.7282 9.2612 16.7586 9.29154C16.789 9.32194 16.8128 9.35829 16.8285 9.39828C16.8442 9.43831 16.8514 9.48111 16.8497 9.52405L16.8512 9.52839Z" fill="white"/>
</svg>
