<svg width="21" height="21" viewBox="0 0 21 21" fill="none" xmlns="http://www.w3.org/2000/svg">
<g clip-path="url(#clip0_278_1889)">
<path d="M19.0292 11.0882C18.9487 10.9236 18.9487 10.7347 19.0292 10.5701L19.7751 9.04417C20.1904 8.19452 19.8613 7.18183 19.0259 6.73859L17.5256 5.9425C17.3637 5.85665 17.2527 5.70383 17.221 5.52341L16.9276 3.85041C16.7642 2.91893 15.9026 2.29299 14.9664 2.42545L13.2846 2.66334C13.1031 2.68897 12.9236 2.63061 12.7919 2.50323L11.5712 1.3223C10.8915 0.664723 9.82663 0.664684 9.14694 1.3223L7.92617 2.50334C7.79445 2.63077 7.61496 2.68901 7.43348 2.66346L5.75173 2.42557C4.81521 2.29303 3.95389 2.91905 3.79049 3.85052L3.49705 5.52344C3.46538 5.70391 3.3544 5.85669 3.19256 5.94258L1.69218 6.73867C0.856797 7.18187 0.527736 8.19464 0.943046 9.04428L1.68894 10.5702C1.76941 10.7349 1.76941 10.9237 1.68894 11.0883L0.943007 12.6142C0.527697 13.4639 0.856757 14.4766 1.69214 14.9198L3.19253 15.7159C3.3544 15.8017 3.46538 15.9546 3.49705 16.135L3.79049 17.808C3.93924 18.6559 4.66634 19.2506 5.502 19.2506C5.58431 19.2506 5.66782 19.2448 5.75177 19.2329L7.43352 18.995C7.61488 18.9693 7.79449 19.0277 7.92621 19.1551L9.14694 20.3361C9.48686 20.6649 9.92288 20.8293 10.359 20.8292C10.7951 20.8292 11.2314 20.6648 11.5711 20.3361L12.7919 19.1551C12.9236 19.0277 13.1032 18.9695 13.2846 18.995L14.9664 19.2329C15.903 19.3654 16.7642 18.7394 16.9276 17.8079L17.2211 16.135C17.2528 15.9546 17.3637 15.8018 17.5256 15.7159L19.0259 14.9198C19.8613 14.4766 20.1904 13.4638 19.7751 12.6142L19.0292 11.0882ZM8.05199 5.63837C9.21808 5.63837 10.1668 6.58707 10.1668 7.75316C10.1668 8.91924 9.21808 9.86795 8.05199 9.86795C6.8859 9.86795 5.9372 8.91924 5.9372 7.75316C5.9372 6.58707 6.8859 5.63837 8.05199 5.63837ZM6.96043 15.0434C6.84782 15.156 6.7002 15.2123 6.55262 15.2123C6.40505 15.2123 6.25739 15.156 6.14481 15.0434C5.91958 14.8182 5.91958 14.453 6.14481 14.2277L13.7576 6.61492C13.9828 6.38969 14.348 6.38969 14.5733 6.61492C14.7985 6.84016 14.7985 7.20535 14.5733 7.43058L6.96043 15.0434ZM12.666 16.02C11.4999 16.02 10.5512 15.0713 10.5512 13.9052C10.5512 12.7391 11.4999 11.7904 12.666 11.7904C13.8321 11.7904 14.7808 12.7391 14.7808 13.9052C14.7808 15.0713 13.8321 16.02 12.666 16.02Z" fill="#777777"/>
<path d="M12.6664 12.9438C12.1363 12.9438 11.7051 13.3751 11.7051 13.9051C11.7051 14.4351 12.1363 14.8663 12.6664 14.8663C13.1964 14.8663 13.6276 14.4351 13.6276 13.9051C13.6276 13.3751 13.1964 12.9438 12.6664 12.9438Z" fill="#777777"/>
<path d="M8.05304 6.79175C7.52301 6.79175 7.0918 7.22296 7.0918 7.75299C7.0918 8.28303 7.52301 8.71428 8.05304 8.71428C8.58308 8.71428 9.01433 8.28307 9.01433 7.75299C9.01429 7.223 8.58308 6.79175 8.05304 6.79175Z" fill="#777777"/>
</g>
<defs>
<clipPath id="clip0_278_1889">
<rect width="20" height="20" fill="white" transform="translate(0.359375 0.829102)"/>
</clipPath>
</defs>
</svg>
