<svg width="25" height="25" viewBox="0 0 25 25" fill="none" xmlns="http://www.w3.org/2000/svg">
<g clip-path="url(#clip0_304_8652)">
<path d="M18.3928 10.5697L19.8029 10.4801C19.8052 10.4799 19.8078 10.4798 19.8104 10.4796C20.8153 10.3946 21.7172 9.86718 22.2852 9.03205L23.4 7.39335C24.3703 5.96674 24.7462 4.24365 24.4581 2.54165C24.4016 2.20738 24.2309 1.89935 23.9779 1.6746C23.7246 1.44968 23.3991 1.31685 23.061 1.3007C21.3395 1.21814 19.6778 1.79881 18.3807 2.935L16.8906 4.24034C16.1312 4.9054 15.7167 5.86583 15.7529 6.8758C15.7531 6.87819 15.7531 6.88075 15.7533 6.88332L15.8337 8.29654C15.865 8.84749 15.6634 9.39109 15.2816 9.787L3.64015 21.7698C3.3285 22.0954 3.16755 22.5421 3.18715 23.0278C3.20875 23.5624 3.45356 24.0875 3.84211 24.4326C4.19313 24.7443 4.67561 24.9219 5.15791 24.9219C5.20955 24.9219 5.26118 24.9198 5.31263 24.9156C5.79622 24.8769 6.21974 24.6633 6.50648 24.3122L16.9814 11.2984C17.3287 10.8702 17.8433 10.6045 18.3928 10.5697ZM16.4222 10.8449L5.94819 23.8576C5.78816 24.0535 5.54207 24.1742 5.25532 24.1972C4.9142 24.2245 4.56447 24.1108 4.31947 23.8932C4.07448 23.6754 3.91993 23.3411 3.9062 22.9986C3.89448 22.7107 3.98439 22.4515 4.15761 22.2706L15.7982 10.2888C16.32 9.74774 16.5947 9.00673 16.5522 8.25563L16.4718 6.84608C16.4445 6.05553 16.7695 5.30388 17.3641 4.78303L18.8542 3.47768C20.0107 2.46478 21.4927 1.9476 23.0268 2.02061C23.2015 2.02905 23.3696 2.09767 23.5005 2.21399C23.6314 2.33012 23.7195 2.48936 23.7488 2.662C24.0055 4.17943 23.6704 5.71539 22.8054 6.98716L21.6907 8.62605C21.2459 9.27991 20.5401 9.69325 19.7534 9.76095L18.3472 9.85012C17.5979 9.89782 16.8966 10.26 16.4222 10.8449Z" fill="#323232"/>
<path d="M23.8889 21.6783L16.0833 14.555C15.9365 14.4209 15.7091 14.4315 15.575 14.5786C15.4414 14.7258 15.452 14.9538 15.5988 15.0879L23.4024 22.2096C23.5881 22.3815 23.6934 22.6349 23.6991 22.9229C23.7058 23.2656 23.5716 23.6085 23.34 23.8406C23.1086 24.0725 22.7669 24.2074 22.4241 24.2004C22.1366 24.1947 21.8838 24.0892 21.714 23.9052L14.7586 16.254C14.6247 16.1067 14.3971 16.0962 14.2503 16.2302C14.1034 16.3643 14.0928 16.5923 14.2267 16.7395L21.1837 24.3925C21.4895 24.7238 21.925 24.9117 22.41 24.9212C22.4226 24.9214 22.4351 24.9216 22.4477 24.9216C22.969 24.9216 23.4903 24.7097 23.8487 24.3505C24.216 23.9824 24.4289 23.4436 24.4183 22.9088C24.4088 22.4228 24.2215 21.9865 23.8889 21.6783Z" fill="#323232"/>
<path d="M4.89377 10.5011C5.48923 11.0508 6.26285 11.3641 7.07218 11.3836C7.07474 11.3838 7.0773 11.3838 7.07968 11.3838L8.49253 11.3882C9.04331 11.3898 9.57266 11.6241 9.94419 12.0297L10.5666 12.7143C10.6376 12.7924 10.7348 12.832 10.8326 12.832C10.919 12.832 11.0058 12.801 11.0747 12.7381C11.2217 12.604 11.2323 12.3759 11.0985 12.2288L10.4752 11.5434C9.96762 10.989 9.24582 10.6697 8.49491 10.6672L7.08591 10.6628C6.45987 10.6468 5.8613 10.4066 5.39749 9.98596L1.30307 5.10913C1.26132 5.05922 1.26444 4.98694 1.3104 4.94089C1.34189 4.90915 1.37888 4.90456 1.3981 4.90456C1.41733 4.90456 1.45432 4.90915 1.48599 4.94089L5.21292 8.67529C5.58133 9.04442 6.18082 9.04442 6.54923 8.67511L6.98722 8.23645V8.23627L7.76486 7.4571C7.76486 7.4571 7.76505 7.4571 7.76505 7.45691L7.76523 7.45673L8.20304 7.01807C8.57144 6.64894 8.57144 6.04828 8.20304 5.67915L4.47611 1.94493C4.42777 1.89649 4.42777 1.81742 4.47611 1.76898C4.52207 1.72293 4.59421 1.71982 4.64401 1.76165L9.51132 5.86426C9.93137 6.32879 10.1711 6.92872 10.187 7.5558L10.1912 8.96774C10.1938 9.71994 10.5125 10.4432 11.0666 10.9528L11.7335 11.5614C11.8805 11.6955 12.1079 11.6848 12.2418 11.5377C12.3755 11.3904 12.3648 11.1625 12.218 11.0284L11.5522 10.4208C11.1463 10.0476 10.9126 9.51703 10.9108 8.96535L10.9064 7.54974C10.9064 7.54718 10.9064 7.54461 10.9062 7.54204C10.8868 6.73113 10.5741 5.95599 10.0255 5.35937C10.0152 5.34818 10.0042 5.33754 9.99253 5.32763L5.10709 1.20997C4.76944 0.925234 4.27945 0.946515 3.96744 1.25914C3.6384 1.58882 3.6384 2.12509 3.96744 2.45459L7.69437 6.18899C7.78226 6.27706 7.78226 6.42034 7.69437 6.5084L7.51071 6.69223L3.35697 2.53054C3.21652 2.38964 2.98874 2.38964 2.8483 2.53054C2.70786 2.67126 2.70786 2.89949 2.8483 3.0402L7.00205 7.20208L6.73288 7.47159L2.57913 3.3099C2.43869 3.16918 2.21091 3.16918 2.07047 3.3099C1.92984 3.45061 1.92984 3.67884 2.07047 3.81956L6.22403 7.98143L6.04056 8.16545C5.95267 8.25351 5.80966 8.25351 5.72177 8.16545L1.99466 4.43123C1.83536 4.27161 1.62351 4.18355 1.3981 4.18355C1.1727 4.18355 0.960849 4.27161 0.801547 4.43123C0.489535 4.74385 0.468478 5.2348 0.752475 5.57329L4.86228 10.4681C4.87198 10.4798 4.8826 10.4909 4.89377 10.5011Z" fill="#323232"/>
</g>
<defs>
<clipPath id="clip0_304_8652">
<rect width="23.9999" height="24" fill="white" transform="translate(0.552734 0.939453)"/>
</clipPath>
</defs>
</svg>
