<svg width="58" height="37" viewBox="0 0 58 37" fill="none" xmlns="http://www.w3.org/2000/svg">
<g clip-path="url(#clip0_465_2863)">
<path d="M52.2068 1.02246H5.67496C3.18797 1.02246 1.17188 3.03856 1.17188 5.52554V31.043C1.17188 33.53 3.18797 35.5461 5.67496 35.5461H52.2068C54.6938 35.5461 56.7099 33.53 56.7099 31.043V5.52554C56.7099 3.03856 54.6938 1.02246 52.2068 1.02246Z" fill="white" stroke="#E6E4EB" stroke-width="1.50103"/>
<path fill-rule="evenodd" clip-rule="evenodd" d="M37.8688 16.5873H40.0937V20.1221L42.0184 16.5873H44.0602L39.9435 23.7336C39.9435 23.7336 39.5614 24.333 39.0874 24.65C38.698 24.9108 38.2191 24.899 38.0728 24.9096C37.2596 24.9025 36.2788 24.9004 36.2788 24.9004L36.7519 23.1968L37.5175 23.1955C37.5175 23.1955 37.868 23.1598 38.0033 22.987C38.1323 22.8223 38.1982 22.6576 38.1982 22.4161C38.1982 22.054 37.8688 16.5871 37.8688 16.5871V16.5873ZM14.7504 17.2932C14.4407 18.0106 13.4806 17.929 13.4806 17.929L12.3627 17.9238L12.7708 16.4045C12.7708 16.4045 13.7709 16.4082 14.2614 16.4082C14.7865 16.4082 14.9505 16.83 14.7506 17.293L14.7504 17.2932ZM17.2912 16.2579C17.4815 14.7504 16.1549 14.3698 14.7205 14.3698H10.9514L8.72656 22.4786H11.1215L11.8693 19.7254L13.2127 19.7364C13.2127 19.7364 13.7671 19.7042 13.7781 20.2249C13.7897 20.7803 13.3665 21.8001 13.3938 22.4786H15.8541L15.8487 22.2627C15.8487 22.2627 15.6443 22.2084 15.667 21.9211C15.6765 21.8016 15.8085 21.4234 15.9812 20.9133C16.0854 20.6884 16.2425 20.1549 16.228 19.7205C16.21 19.1783 15.8697 18.9266 15.379 18.7506C16.9085 18.3919 17.2908 16.2581 17.291 16.2581L17.2912 16.2579ZM17.8346 16.5873H20.019L19.1194 20.0484C19.1194 20.0484 18.895 20.8203 19.617 20.8798C20.1874 20.927 20.6119 20.2463 20.7509 19.7853C20.9337 19.1798 21.6437 16.5871 21.6437 16.5871H23.8942L22.1817 22.4784H20.2168L20.4581 21.6368C20.4581 21.6368 19.4557 22.8592 17.9663 22.7126C16.6424 22.5826 16.5282 21.6223 16.7576 20.4243C16.8702 19.8362 17.8346 16.5873 17.8346 16.5873ZM29.0538 17.3118C28.7421 18.1812 27.8832 18.0787 27.8832 18.0787L26.7107 18.0791L27.1736 16.3563C27.1736 16.3563 27.9158 16.3602 28.406 16.3602C29.0061 16.3602 29.2238 16.8369 29.0538 17.3116V17.3118ZM31.5163 16.5067C31.7068 14.999 30.5577 14.3696 29.1232 14.3696H25.3543L23.1296 22.4784H25.5245L26.1979 19.9784L28.1061 19.9901C28.1061 19.9901 31.061 20.1151 31.5165 16.5067H31.5163ZM33.5298 21.2782C33.1556 21.3731 32.7018 21.4247 32.6118 21.0847C32.3647 20.1531 34.5459 19.8803 34.5459 19.8803C34.5608 20.7292 33.8169 21.2051 33.5296 21.2782H33.5298ZM36.8295 19.573C37.1172 18.593 37.481 17.6651 37.1882 17.1508C36.7398 16.3636 35.9293 16.2945 34.7436 16.2945C33.4337 16.2945 31.8165 16.5433 31.2894 18.2852H33.4701C33.4701 18.2852 33.6689 17.6292 34.4874 17.6705C35.2119 17.707 35.1723 18.2055 34.9053 18.4811C34.437 18.964 33.1438 18.6962 31.7115 19.1931C30.4601 19.6273 30.0222 21.2729 30.2941 21.9296C30.5575 22.5664 31.0482 22.6475 31.7102 22.7126C32.7733 22.8171 33.5885 22.2242 33.9679 21.8763C33.9679 22.2627 33.978 22.4784 33.978 22.4784H36.2729L36.2673 22.2625C36.2673 22.2625 36.0628 22.2082 36.0856 21.921C36.1021 21.7106 36.4986 20.6986 36.8293 19.573H36.8295Z" fill="#382A8D"/>
<path fill-rule="evenodd" clip-rule="evenodd" d="M46.9145 15.2263L44.3457 24.1621L49.1538 19.6941L46.9145 15.2263Z" fill="#1D8546"/>
<path fill-rule="evenodd" clip-rule="evenodd" d="M45.268 15.2263L42.6992 24.1621L47.5075 19.6941L45.268 15.2263Z" fill="#EC6B00"/>
</g>
<defs>
<clipPath id="clip0_465_2863">
<rect width="57.0391" height="36.0247" fill="white" transform="translate(0.421875 0.271973)"/>
</clipPath>
</defs>
</svg>
