<svg width="25" height="24" viewBox="0 0 25 24" fill="none" xmlns="http://www.w3.org/2000/svg">
<path fill-rule="evenodd" clip-rule="evenodd" d="M1.75991 0.117873C1.30301 0.28595 0.789947 0.798071 0.611729 1.26399C0.408158 1.79658 3.32463 18.0725 3.73666 18.7031C3.88333 18.9277 4.17479 19.1659 4.38399 19.2323C4.72766 19.3413 4.76465 19.5112 4.76541 20.9835C4.76616 22.9578 5.12785 23.7458 6.11716 23.9293C6.45783 23.9924 8.91044 24.0181 11.5674 23.9864C17.5239 23.9152 17.2191 24.063 17.3177 21.2008C17.3532 20.1706 17.4627 19.3277 17.5609 19.3277C17.6593 19.3277 17.947 19.1202 18.2005 18.8667C18.5429 18.5245 18.6616 18.2038 18.6616 17.6214C18.6616 16.9681 18.5517 16.7331 18.0043 16.2169C17.6428 15.876 17.347 15.4182 17.347 15.1994C17.347 14.6569 16.8642 13.765 16.4935 13.6227C16.3263 13.5586 14.0042 13.5061 11.3332 13.5061C8.66236 13.5061 6.44055 13.4426 6.39585 13.3652C6.35134 13.2878 6.2567 12.8229 6.18552 12.3323L6.05613 11.4403L9.68285 11.4343C13.5742 11.4279 13.7841 11.3813 14.1398 10.4461C14.3708 9.83839 14.0807 8.88533 13.5838 8.61941C13.3916 8.5165 11.5394 8.43556 9.38162 8.43556H5.52298L5.40804 7.91912C5.34494 7.63498 5.25443 7.25939 5.20729 7.08436C5.14137 6.83948 5.28635 6.73656 5.83509 6.63853C6.78572 6.46895 7.3938 5.89317 7.39361 5.16339C7.39324 4.33671 6.93088 2.02588 6.66741 1.53348C6.39435 1.02324 5.74026 0.839761 4.75583 0.997322C4.29629 1.07075 4.01347 1.04258 4.01347 0.923143C4.01347 0.817226 3.73891 0.56295 3.40313 0.358252C2.7988 -0.0102043 2.3049 -0.0825058 1.75991 0.117873ZM17.8512 0.175714C17.0319 0.421727 16.0668 1.2469 15.6551 2.05386C15.3263 2.69838 15.2812 3.16205 15.2812 5.90031C15.2812 8.59143 15.3297 9.10843 15.6386 9.71069C16.4281 11.2502 17.5566 11.8159 19.8394 11.8159C21.1272 11.8159 21.5696 11.7336 22.3347 11.3524C23.4318 10.8057 24.2209 9.71802 24.4034 8.50128C24.6262 7.01544 24.4018 2.76862 24.0673 2.14438C23.6493 1.3639 22.829 0.622293 22.001 0.276373C21.2438 -0.0398761 18.7697 -0.0999709 17.8512 0.175714ZM1.68142 1.28221C1.37268 1.62362 1.42883 2.03358 2.85871 9.86581C4.04239 16.3499 4.43038 18.1424 4.69216 18.3337C4.94757 18.5204 6.42703 18.5766 11.0917 18.5766C16.9089 18.5766 17.1748 18.561 17.5348 18.201C17.9945 17.7412 18.0005 17.5996 17.5817 17.0969C17.2862 16.742 17.0264 16.6975 14.9995 16.6535C12.8874 16.6077 12.746 16.581 12.746 16.2291C12.746 15.8826 12.8891 15.8494 14.5885 15.7996L16.4307 15.7457L16.3725 15.1423L16.3141 14.5389L11.4784 14.4888C6.80468 14.4403 6.64262 14.4509 6.64262 14.802C6.64262 15.6289 6.82553 15.7596 7.98311 15.7596C8.83007 15.7596 9.12322 15.8313 9.2111 16.0603C9.27458 16.2255 9.20848 16.4357 9.06444 16.5269C8.65523 16.7859 6.34158 16.7361 6.13444 16.4638C6.03622 16.3348 5.76749 15.1727 5.53706 13.8816C5.20053 11.9954 5.02832 11.4399 4.65986 11.0544C4.16465 10.5362 4.04953 9.61247 4.40841 9.03763C4.56709 8.78373 4.45761 7.85245 3.94211 5.0725C3.57159 3.07416 3.17233 1.32315 3.05458 1.18155C2.74866 0.812907 2.06058 0.863424 1.68142 1.28221ZM17.7263 1.24334C16.3299 1.96485 15.9316 3.292 16.061 6.79159C16.1421 8.9796 16.4414 9.72177 17.5449 10.4686C18.1309 10.8651 18.3607 10.9008 19.9761 10.8448C22.0419 10.7732 22.5454 10.521 23.1796 9.24007C23.5343 8.52382 23.5657 8.18128 23.511 5.63814C23.4451 2.57951 23.3555 2.29969 22.1578 1.40484C21.4201 0.853846 18.6738 0.753751 17.7263 1.24334ZM4.38906 2.16448C4.38906 2.3303 4.52653 3.21764 4.69461 4.13634C5.021 5.92059 5.19001 6.09449 6.1151 5.59946C6.46083 5.41429 6.48881 5.27964 6.3782 4.33183C6.31003 3.74835 6.16956 2.95435 6.06571 2.56692C5.88786 1.90344 5.83397 1.86269 5.13292 1.86269C4.57498 1.86269 4.38906 1.93799 4.38906 2.16448ZM17.7801 2.50326L17.2531 2.95604L17.1928 5.77185L17.1327 8.58767L17.6815 9.20195C18.1622 9.73999 18.3705 9.82619 19.3649 9.89811C19.9891 9.94318 20.806 9.87914 21.1801 9.75557C22.2515 9.40214 22.4175 8.87537 22.4175 5.83007C22.4175 3.28111 22.4036 3.18947 21.9313 2.62833C21.4599 2.06795 21.3976 2.05048 19.8761 2.05048C18.4886 2.05048 18.246 2.10288 17.7801 2.50326ZM18.5157 3.09407C18.1198 3.37125 18.0982 3.51605 18.0982 5.8819C18.0982 8.83913 18.1838 8.99894 19.7684 8.99894C21.4802 8.99894 21.4785 9.00195 21.4785 5.99834C21.4785 3.5121 21.4584 3.37219 21.061 3.09407C20.5234 2.71735 19.0533 2.71735 18.5157 3.09407ZM5.48485 9.31313C4.95564 9.45322 4.88691 9.99408 5.35077 10.3697C5.73143 10.6778 6.12242 10.7053 9.40698 10.6531C12.3896 10.6055 13.0739 10.5447 13.2198 10.3135C13.4632 9.92778 13.4491 9.82281 13.1083 9.48177C12.8592 9.23294 12.2637 9.19012 9.30538 9.20852C7.37596 9.22054 5.65687 9.26749 5.48485 9.31313ZM10.6201 16.1821C10.6532 16.4145 10.807 16.6047 10.9619 16.6047C11.1169 16.6047 11.2707 16.4145 11.3037 16.1821C11.3497 15.8569 11.271 15.7596 10.9619 15.7596C10.6528 15.7596 10.5741 15.8569 10.6201 16.1821ZM5.70364 21.0742C5.70364 22.0361 5.78983 22.7191 5.92899 22.8583C6.24993 23.1792 15.8617 23.1792 16.1827 22.8583C16.3218 22.7191 16.408 22.0361 16.408 21.0742V19.5155H11.0558H5.70364V21.0742Z" fill="#2196F3"/>
</svg>
