<svg width="25" height="25" viewBox="0 0 25 25" fill="none" xmlns="http://www.w3.org/2000/svg">
<g clip-path="url(#clip0_299_8633)">
<path d="M24.3887 11.4206L9.76367 2.97728C9.34374 2.73566 8.84515 2.67038 8.37717 2.79575C7.90919 2.92112 7.51001 3.22691 7.26711 3.64609L5.58336 6.56228L4.46248 8.50347C4.22072 8.92354 4.15542 9.42235 4.2809 9.89051C4.40639 10.3587 4.71241 10.7579 5.13186 11.0008L10.1462 13.8956L9.36636 15.2253C9.26263 15.4014 9.11486 15.5473 8.93759 15.6489C8.76032 15.7504 8.55966 15.8041 8.35536 15.8045H5.42773V13.5733C5.42773 13.4863 5.39316 13.4028 5.33163 13.3413C5.27009 13.2797 5.18663 13.2452 5.09961 13.2452H3.31836V12.8218C3.31791 12.4365 3.16467 12.0672 2.89226 11.7948C2.61984 11.5223 2.25049 11.3691 1.86523 11.3687H0.880859C0.837763 11.3686 0.795083 11.3771 0.755262 11.3936C0.715441 11.4101 0.679259 11.4342 0.648785 11.4647C0.618311 11.4952 0.594142 11.5314 0.577661 11.5712C0.56118 11.611 0.55271 11.6537 0.552734 11.6968V22.8187C0.55271 22.8618 0.56118 22.9045 0.577661 22.9443C0.594142 22.9841 0.618311 23.0203 0.648785 23.0508C0.679259 23.0813 0.715441 23.1054 0.755262 23.1219C0.795083 23.1384 0.837763 23.1469 0.880859 23.1468H1.86523C2.25049 23.1464 2.61984 22.9932 2.89226 22.7207C3.16467 22.4483 3.31791 22.079 3.31836 21.6937V20.6514H5.09961C5.18663 20.6514 5.27009 20.6168 5.33163 20.5553C5.39316 20.4938 5.42773 20.4103 5.42773 20.3233V18.7108H8.35536C9.06618 18.7093 9.76435 18.5227 10.3812 18.1694C10.998 17.8162 11.5122 17.3084 11.8732 16.6961L12.6632 15.3491L15.4117 16.9359C15.6885 17.0965 16.0027 17.1812 16.3226 17.1815C16.4834 17.1815 16.6436 17.1603 16.7989 17.1185C17.0973 17.0391 17.3706 16.885 17.5929 16.6706C17.9524 16.8374 18.3439 16.924 18.7402 16.9245C18.9831 16.9243 19.2249 16.8923 19.4595 16.8292C20.0577 16.6702 20.5845 16.3134 20.954 15.8167L21.626 16.2047C21.6634 16.2262 21.7046 16.2402 21.7473 16.2459C21.7901 16.2515 21.8335 16.2487 21.8751 16.2375C21.9168 16.2264 21.9558 16.2071 21.99 16.1808C22.0242 16.1546 22.0528 16.1218 22.0744 16.0845L24.5081 11.8693C24.5297 11.832 24.5438 11.7908 24.5495 11.748C24.5552 11.7053 24.5524 11.6619 24.5413 11.6202C24.5302 11.5785 24.511 11.5395 24.4848 11.5052C24.4587 11.471 24.426 11.4422 24.3887 11.4206ZM2.66211 21.6937C2.66191 21.905 2.57789 22.1076 2.42849 22.257C2.27909 22.4064 2.07652 22.4904 1.86523 22.4906H1.20898V12.0249H1.86523C2.07652 12.0251 2.27909 12.1091 2.42849 12.2585C2.57789 12.4079 2.66191 12.6105 2.66211 12.8218V21.6937ZM4.77148 19.9952H3.31836V13.9014H4.77148V19.9952ZM11.307 16.364C11.0041 16.8779 10.5727 17.304 10.0552 17.6004C9.53762 17.8969 8.9518 18.0534 8.35536 18.0547H5.42773V16.461H8.35536C8.67404 16.4603 8.98704 16.3766 9.26357 16.2182C9.54009 16.0598 9.77061 15.8321 9.93242 15.5576L10.7152 14.2241L12.0956 15.021L11.307 16.364ZM15.7402 16.3676L5.45998 10.4325C5.19106 10.2768 4.99486 10.0209 4.91443 9.72075C4.83401 9.42062 4.87592 9.10085 5.03098 8.83159L5.98723 7.17466L15.4085 12.614L18.297 14.2817L17.3405 15.9393L17.3392 15.9414C17.3143 15.9837 17.2867 16.0245 17.2565 16.0633V16.0646C17.0835 16.2904 16.8343 16.4456 16.5554 16.5013C16.2764 16.5571 15.9867 16.5095 15.7402 16.3676ZM19.2909 16.1953C18.8611 16.3115 18.4055 16.2875 17.9902 16.1268L18.8664 14.6094L20.3839 15.4854C20.1043 15.8325 19.7213 16.0812 19.2905 16.1953H19.2909ZM21.6712 15.4715L19.5493 14.2464L18.909 13.8768L11.6645 9.69447L6.31573 6.60635L7.83542 3.97422C7.99112 3.70536 8.24711 3.50924 8.54723 3.42888C8.84735 3.34853 9.16709 3.3905 9.4363 3.54559L23.7763 11.825L21.6712 15.4715Z" fill="#323232"/>
<path d="M20.2695 13.6876C20.4605 13.7986 20.6775 13.8571 20.8985 13.8573C21.0094 13.8572 21.1199 13.8426 21.227 13.8138C21.509 13.7383 21.7561 13.5673 21.9262 13.33C22.0963 13.0927 22.1788 12.8038 22.1597 12.5125C22.1407 12.2212 22.0212 11.9455 21.8216 11.7324C21.6221 11.5193 21.3548 11.382 21.0654 11.3438C20.776 11.3057 20.4823 11.3691 20.2343 11.5232C19.9864 11.6773 19.7996 11.9127 19.7057 12.1891C19.6118 12.4655 19.6167 12.766 19.7195 13.0392C19.8223 13.3125 20.0166 13.5416 20.2695 13.6876ZM20.3761 12.292C20.4158 12.2232 20.4688 12.1629 20.5319 12.1147C20.595 12.0664 20.667 12.0311 20.7438 12.0108C20.7952 11.997 20.8481 11.99 20.9013 11.99C21.0348 11.99 21.1645 12.0341 21.2703 12.1153C21.3762 12.1966 21.4523 12.3105 21.4868 12.4394C21.5213 12.5683 21.5123 12.705 21.4613 12.8282C21.4102 12.9515 21.3198 13.0545 21.2043 13.1212C21.0887 13.1879 20.9543 13.2146 20.822 13.1972C20.6897 13.1797 20.5669 13.1191 20.4725 13.0247C20.3782 12.9304 20.3176 12.8075 20.3002 12.6752C20.2828 12.5429 20.3096 12.4085 20.3763 12.293L20.3761 12.292Z" fill="#323232"/>
<path d="M9.08321 10.3653L6.39446 8.81263C6.35713 8.79075 6.31584 8.77647 6.27297 8.7706C6.23009 8.76474 6.18648 8.76742 6.14465 8.77848C6.10281 8.78954 6.06358 8.80877 6.0292 8.83505C5.99483 8.86134 5.96599 8.89416 5.94435 8.93164C5.92272 8.96911 5.90871 9.0105 5.90313 9.05341C5.89755 9.09632 5.90052 9.13991 5.91185 9.18167C5.92319 9.22344 5.94268 9.26254 5.96919 9.29674C5.9957 9.33094 6.02872 9.35956 6.06634 9.38095L8.75584 10.9334C8.83089 10.9727 8.91822 10.9814 8.99954 10.9577C9.08086 10.9341 9.14989 10.8799 9.19217 10.8065C9.23446 10.7331 9.24673 10.6462 9.22642 10.564C9.20612 10.4818 9.1548 10.4106 9.08321 10.3653Z" fill="#323232"/>
</g>
<defs>
<clipPath id="clip0_299_8633">
<rect width="24" height="24" fill="white" transform="translate(0.552734 0.939453)"/>
</clipPath>
</defs>
</svg>
