<svg width="25" height="26" viewBox="0 0 25 26" fill="none" xmlns="http://www.w3.org/2000/svg">
<path d="M21.2359 4.55818L18.6119 3.64672C14.9172 2.36385 10.9227 2.36385 7.22792 3.64672L4.60392 4.55818C4.40455 4.62735 4.23117 4.76019 4.10839 4.93782C3.9856 5.11546 3.91966 5.32887 3.91992 5.54777V11.903C3.91992 17.5488 9.79592 21.6717 12.0519 23.0467C12.3148 23.2086 12.6146 23.2939 12.9199 23.2939C13.2253 23.2939 13.525 23.2086 13.7879 23.0467C16.0439 21.6717 21.9199 17.5478 21.9199 11.903V5.54672C21.92 5.32801 21.8539 5.11483 21.7312 4.9374C21.6084 4.75997 21.4351 4.6273 21.2359 4.55818ZM19.9199 11.903C19.9199 14.4603 18.2399 16.8405 16.1079 18.7717C15.2183 19.5704 14.2697 20.2948 13.2709 20.9384C13.236 20.9609 13.1959 20.9733 13.1548 20.9742C13.1137 20.9751 13.0732 20.9645 13.0373 20.9436C13.0015 20.9226 12.9717 20.8921 12.9511 20.8551C12.9304 20.8181 12.9197 20.776 12.9199 20.7332V5.80922C12.9176 5.67328 12.9421 5.53829 12.9919 5.41263C13.0417 5.28697 13.1159 5.17333 13.2096 5.07877C13.3034 4.9842 13.4149 4.91074 13.5371 4.86293C13.6592 4.81513 13.7896 4.79401 13.9199 4.80089C15.3017 4.89141 16.6664 5.16802 17.9799 5.62381L19.2359 6.06131C19.4348 6.13031 19.6078 6.26267 19.7306 6.43968C19.8533 6.61669 19.9196 6.82941 19.9199 7.04777V11.903Z" fill="#679DFF"/>
</svg>
