<svg width="25" height="25" viewBox="0 0 25 25" fill="none" xmlns="http://www.w3.org/2000/svg">
<g clip-path="url(#clip0_337_2408)">
<path d="M23.263 15.2711C24.9871 11.48 21.182 7.51014 17.3216 9.07104C15.7965 6.75004 12.1807 7.80889 12.1594 10.6002C12.1594 11.9623 13.1479 13.1114 14.445 13.3582C14.4487 15.1505 15.5004 16.7786 17.1027 17.5311C17.0492 17.8755 17.0442 18.2307 17.0875 18.5765H1.02354C0.764639 18.5765 0.554688 18.7864 0.554688 19.0453V21.3896C0.554688 21.6485 0.764639 21.8585 1.02354 21.8585H20.8092C24.2652 21.858 25.8708 17.5212 23.263 15.2711ZM17.1943 19.5142V20.9208H7.11866V19.5142H17.1943ZM1.49239 19.5142H6.18095V20.9208H1.49239V19.5142ZM19.3088 20.9207H18.132V19.5142H19.3088V20.9207ZM20.8092 20.9207H20.2465V19.0453C20.2465 18.7864 20.0365 18.5765 19.7776 18.5765H18.0349C17.9678 18.1779 17.9878 17.7601 18.0937 17.3705C18.1573 17.1355 18.0305 16.8909 17.8018 16.8075C16.2371 16.244 15.2284 14.6393 15.4006 12.984C15.4134 12.8534 15.371 12.7234 15.2835 12.6256C15.1961 12.5278 15.0716 12.4711 14.9405 12.4693C13.924 12.4554 13.0971 11.6169 13.0971 10.6002C13.1257 8.57078 15.8677 8.01223 16.6869 9.86701C16.7385 9.98774 16.8383 10.0814 16.9621 10.1251C17.0859 10.1687 17.2223 10.1586 17.3382 10.0969C20.5969 8.40147 24.0541 11.9671 22.2617 15.1708C22.1409 15.3824 22.2022 15.6512 22.4028 15.7895C24.6613 17.3514 23.556 20.9118 20.8092 20.9207Z" fill="black"/>
<path d="M18.5981 7.79287C19.6322 7.79287 20.4735 6.95156 20.4735 5.91747C20.3705 3.42946 16.8253 3.43025 16.7227 5.91747C16.7227 6.95156 17.564 7.79287 18.5981 7.79287ZM18.5981 4.97976C19.1152 4.97976 19.5358 5.40042 19.5358 5.91747C19.4843 7.16152 17.7117 7.16109 17.6604 5.91747C17.6604 5.40042 18.0811 4.97976 18.5981 4.97976Z" fill="black"/>
<path d="M23.7988 5.69922L2.75391 23.5981" stroke="black"/>
<path d="M24.5547 6.05859L3.50977 23.9575" stroke="white"/>
</g>
<defs>
<clipPath id="clip0_337_2408">
<rect width="24" height="24" fill="white" transform="translate(0.554688 0.955078)"/>
</clipPath>
</defs>
</svg>
