<svg width="13" height="12" viewBox="0 0 13 12" fill="none" xmlns="http://www.w3.org/2000/svg">
<mask id="path-1-inside-1_225_1840" fill="white">
<path fill-rule="evenodd" clip-rule="evenodd" d="M6.47318 0.295694L4.92443 3.62569L1.22693 4.10194C1.1554 4.11088 1.08796 4.14025 1.03269 4.18653C0.977416 4.23282 0.936656 4.29405 0.915288 4.3629C0.893921 4.43175 0.892852 4.5053 0.912209 4.57474C0.931566 4.64418 0.970529 4.70657 1.02443 4.75444L3.76193 7.21819L3.02318 10.9119C3.00927 10.9826 3.01597 11.0557 3.04249 11.1226C3.06902 11.1895 3.11424 11.2474 3.17275 11.2893C3.23127 11.3312 3.30062 11.3554 3.37251 11.359C3.4444 11.3625 3.5158 11.3454 3.57818 11.3094L6.81068 9.43444L10.0469 11.3094C10.1093 11.3454 10.1807 11.3625 10.2526 11.359C10.3245 11.3554 10.3938 11.3312 10.4524 11.2893C10.5109 11.2474 10.5561 11.1895 10.5826 11.1226C10.6091 11.0557 10.6158 10.9826 10.6019 10.9119L9.86318 7.21819L12.6007 4.75444C12.6535 4.70612 12.6914 4.64369 12.7099 4.57453C12.7283 4.50537 12.7266 4.43236 12.7049 4.36414C12.6833 4.29591 12.6425 4.23532 12.5875 4.18953C12.5324 4.14373 12.4655 4.11464 12.3944 4.10569L8.69693 3.62569L7.15193 0.295694C7.1221 0.230223 7.07407 0.174715 7.01356 0.135792C6.95306 0.0968681 6.88263 0.0761719 6.81068 0.0761719C6.73874 0.0761719 6.66831 0.0968681 6.6078 0.135792C6.5473 0.174715 6.49926 0.230223 6.46943 0.295694H6.47318Z"/>
</mask>
<path d="M6.47318 0.295694L7.37991 0.717405L8.04114 -0.704306H6.47318V0.295694ZM4.92443 3.62569L5.05218 4.6175L5.59876 4.5471L5.83116 4.04741L4.92443 3.62569ZM1.22693 4.10194L1.35095 5.09423L1.35468 5.09375L1.22693 4.10194ZM1.02443 4.75444L1.69341 4.01113L1.68845 4.00672L1.02443 4.75444ZM3.76193 7.21819L4.74251 7.41431L4.8542 6.85587L4.4309 6.4749L3.76193 7.21819ZM3.02318 10.9119L2.0426 10.7158L2.04205 10.7186L3.02318 10.9119ZM3.57818 11.3094L4.07705 12.1761L4.07993 12.1745L3.57818 11.3094ZM6.81068 9.43444L7.312 8.56918L6.81039 8.27856L6.30893 8.56943L6.81068 9.43444ZM10.0469 11.3094L9.54562 12.1747L9.54807 12.1761L10.0469 11.3094ZM10.6019 10.9119L11.5831 10.7186L11.5825 10.7158L10.6019 10.9119ZM9.86318 7.21819L9.19422 6.4749L8.77091 6.85587L8.8826 7.41431L9.86318 7.21819ZM12.6007 4.75444L13.2697 5.49776L13.2757 5.49228L12.6007 4.75444ZM12.3944 4.10569L12.2657 5.09738L12.2695 5.09785L12.3944 4.10569ZM8.69693 3.62569L7.78981 4.04656L8.02173 4.54643L8.5682 4.61737L8.69693 3.62569ZM7.15193 0.295694L6.24191 0.710312L6.24481 0.716565L7.15193 0.295694ZM6.81068 0.0761719V-0.923828V0.0761719ZM6.46943 0.295694L5.55943 -0.118915L4.91492 1.29569H6.46943V0.295694ZM5.56645 -0.126017L4.0177 3.20398L5.83116 4.04741L7.37991 0.717405L5.56645 -0.126017ZM4.79668 2.63389L1.09918 3.11014L1.35468 5.09375L5.05218 4.6175L4.79668 2.63389ZM1.10292 3.10966C0.840627 3.14244 0.593346 3.25013 0.390686 3.41983L1.67469 4.95324C1.58257 5.03037 1.47017 5.07932 1.35095 5.09422L1.10292 3.10966ZM0.390686 3.41983C0.188024 3.58953 0.0385713 3.81405 -0.0397757 4.0665L1.87035 4.6593C1.83474 4.77405 1.76681 4.8761 1.67469 4.95324L0.390686 3.41983ZM-0.0397757 4.0665C-0.118123 4.31895 -0.122043 4.58863 -0.0510665 4.84326L1.87548 4.30623C1.90775 4.42196 1.90596 4.54455 1.87035 4.6593L-0.0397757 4.0665ZM-0.0510665 4.84326C0.0199097 5.09788 0.162774 5.32664 0.360417 5.50216L1.68845 4.00672C1.77828 4.0865 1.84322 4.19049 1.87548 4.30623L-0.0510665 4.84326ZM0.355467 5.49774L3.09297 7.96149L4.4309 6.4749L1.6934 4.01115L0.355467 5.49774ZM2.78135 7.02208L2.0426 10.7158L4.00376 11.1081L4.74251 7.41431L2.78135 7.02208ZM2.04205 10.7186C1.99102 10.9776 2.0156 11.2457 2.11285 11.4911L3.97213 10.7541C4.01634 10.8657 4.02751 10.9876 4.00432 11.1053L2.04205 10.7186ZM2.11285 11.4911C2.2101 11.7364 2.37591 11.9486 2.59048 12.1023L3.75503 10.4763C3.85256 10.5462 3.92793 10.6426 3.97213 10.7541L2.11285 11.4911ZM2.59048 12.1023C2.80505 12.256 3.05931 12.3447 3.32291 12.3577L3.42211 10.3602C3.54192 10.3662 3.6575 10.4065 3.75503 10.4763L2.59048 12.1023ZM3.32291 12.3577C3.5865 12.3708 3.8483 12.3078 4.07705 12.1761L3.07932 10.4428C3.18329 10.3829 3.30229 10.3543 3.42211 10.3602L3.32291 12.3577ZM4.07993 12.1745L7.31243 10.2995L6.30893 8.56943L3.07643 10.4444L4.07993 12.1745ZM6.30937 10.2997L9.54562 12.1747L10.5482 10.4442L7.312 8.56918L6.30937 10.2997ZM9.54807 12.1761C9.77681 12.3078 10.0386 12.3708 10.3022 12.3577L10.203 10.3602C10.3228 10.3543 10.4418 10.3829 10.5458 10.4428L9.54807 12.1761ZM10.3022 12.3577C10.5658 12.3447 10.8201 12.256 11.0346 12.1023L9.87008 10.4763C9.96762 10.4065 10.0832 10.3662 10.203 10.3602L10.3022 12.3577ZM11.0346 12.1023C11.2492 11.9486 11.415 11.7364 11.5123 11.4911L9.65298 10.7541C9.69719 10.6426 9.77255 10.5462 9.87008 10.4763L11.0346 12.1023ZM11.5123 11.4911C11.6095 11.2457 11.6341 10.9776 11.5831 10.7186L9.6208 11.1053C9.5976 10.9876 9.60878 10.8657 9.65298 10.7541L11.5123 11.4911ZM11.5825 10.7158L10.8438 7.02208L8.8826 7.41431L9.62135 11.1081L11.5825 10.7158ZM10.5321 7.96149L13.2696 5.49774L11.9317 4.01115L9.19422 6.4749L10.5321 7.96149ZM13.2757 5.49228C13.4693 5.31511 13.6082 5.0862 13.676 4.8326L11.7437 4.31646C11.7745 4.20119 11.8377 4.09714 11.9257 4.0166L13.2757 5.49228ZM13.676 4.8326C13.7437 4.57901 13.7375 4.31132 13.6579 4.06116L11.7519 4.66711C11.7158 4.5534 11.7129 4.43173 11.7437 4.31646L13.676 4.8326ZM13.6579 4.06116C13.5784 3.81101 13.4289 3.58885 13.2272 3.42093L11.9477 4.95813C11.856 4.8818 11.7881 4.78082 11.7519 4.66711L13.6579 4.06116ZM13.2272 3.42093C13.0254 3.253 12.7798 3.14634 12.5194 3.11353L12.2695 5.09785C12.1511 5.08294 12.0394 5.03446 11.9477 4.95813L13.2272 3.42093ZM12.5232 3.11401L8.82567 2.63401L8.5682 4.61737L12.2657 5.09737L12.5232 3.11401ZM9.60405 3.20482L8.05905 -0.125178L6.24481 0.716565L7.78981 4.04656L9.60405 3.20482ZM8.06193 -0.118915C7.95256 -0.358973 7.77644 -0.562502 7.55458 -0.705222L6.47255 0.976806C6.3717 0.911933 6.29165 0.819419 6.24193 0.710302L8.06193 -0.118915ZM7.55458 -0.705222C7.33272 -0.847942 7.07448 -0.923828 6.81068 -0.923828V1.07617C6.69077 1.07617 6.57339 1.04168 6.47255 0.976806L7.55458 -0.705222ZM6.81068 -0.923828C6.54688 -0.923828 6.28865 -0.847942 6.06679 -0.705222L7.14882 0.976806C7.04797 1.04168 6.93059 1.07617 6.81068 1.07617V-0.923828ZM6.06679 -0.705222C5.84493 -0.562502 5.66881 -0.358973 5.55943 -0.118915L7.37943 0.710302C7.32972 0.819419 7.24966 0.911933 7.14882 0.976806L6.06679 -0.705222ZM6.46943 1.29569H6.47318V-0.704306H6.46943V1.29569Z" fill="#323232" mask="url(#path-1-inside-1_225_1840)"/>
</svg>
