<svg width="25" height="25" viewBox="0 0 25 25" fill="none" xmlns="http://www.w3.org/2000/svg">
<g clip-path="url(#clip0_299_8612)">
<path d="M1.35293 19.037C1.87661 18.5132 2.7288 18.5131 3.25249 19.037C4.1418 19.9262 5.58864 19.9262 6.47796 19.037C7.00164 18.5132 7.85379 18.5132 8.37752 19.037C8.81444 19.4739 9.39621 19.7059 9.98946 19.7059C10.2781 19.7059 10.5695 19.6509 10.8482 19.5379C11.0881 19.4407 11.2037 19.1673 11.1064 18.9274C11.0091 18.6875 10.7358 18.5717 10.4959 18.6692C9.99438 18.8725 9.42302 18.7568 9.04043 18.3741C8.60964 17.9433 8.03693 17.7061 7.42774 17.7061C6.8185 17.7061 6.24579 17.9433 5.81505 18.3741C5.29127 18.8978 4.43913 18.8978 3.91544 18.3741C3.02618 17.4848 1.57929 17.4849 0.69002 18.3741C0.506973 18.5571 0.506973 18.8539 0.69002 19.037C0.873066 19.22 1.16988 19.22 1.35293 19.037Z" fill="#323232"/>
<path d="M21.1909 18.3741C20.6672 18.8979 19.815 18.8979 19.2914 18.3741C18.8606 17.9433 18.2879 17.7061 17.6787 17.7061C17.0694 17.7061 16.4967 17.9433 16.0659 18.3741C15.687 18.753 15.1201 18.8707 14.6216 18.6736C14.3809 18.5786 14.1085 18.6966 14.0134 18.9374C13.9183 19.1782 14.0363 19.4505 14.2771 19.5456C14.5495 19.6532 14.8337 19.7055 15.1156 19.7055C15.7096 19.7054 16.2927 19.4732 16.7289 19.037C17.2526 18.5133 18.1048 18.5132 18.6285 19.037C19.5177 19.9263 20.9646 19.9263 21.8539 19.037C22.3776 18.5132 23.2298 18.5132 23.7534 19.037C23.9365 19.22 24.2332 19.22 24.4164 19.037C24.5994 18.854 24.5994 18.5572 24.4164 18.3741C23.5271 17.4848 22.0801 17.4848 21.1909 18.3741Z" fill="#323232"/>
<path d="M22.8028 13.7363C22.1936 13.7363 21.6208 13.9736 21.1901 14.4043C20.7818 14.8125 20.174 14.9025 19.6778 14.6743V11.6951C19.8614 11.7414 20.0492 11.7644 20.2367 11.7644C20.8269 11.7644 21.4136 11.5374 21.853 11.098C22.3767 10.5741 23.2289 10.5742 23.7525 11.098C23.9356 11.281 24.2323 11.281 24.4155 11.098C24.5985 10.9149 24.5985 10.6181 24.4155 10.435C23.5263 9.5458 22.0793 9.5457 21.19 10.435C20.7889 10.8362 20.1802 10.936 19.6777 10.7044V6.14258C19.6777 5.62564 20.0983 5.20508 20.6152 5.20508C21.1322 5.20508 21.5527 5.62564 21.5527 6.14258V6.48631C21.5527 6.74516 21.7626 6.95506 22.0215 6.95506H24.084C24.3428 6.95506 24.5527 6.74516 24.5527 6.48631V6.14258C24.5527 3.97147 22.7863 2.20508 20.6152 2.20508C19.117 2.20508 17.8118 3.04644 17.1465 4.28131C16.4812 3.04644 15.176 2.20508 13.6778 2.20508C11.5066 2.20508 9.74027 3.97147 9.74027 6.14258V10.805C9.47768 10.7553 9.23341 10.628 9.04047 10.435C8.15125 9.54584 6.70436 9.54575 5.81505 10.435C5.29127 10.9587 4.43913 10.9588 3.91544 10.435C3.02618 9.54575 1.57929 9.5458 0.69002 10.435C0.506973 10.6181 0.506973 10.9149 0.69002 11.098C0.873066 11.281 1.16988 11.281 1.35297 11.098C1.87666 10.5742 2.72885 10.5742 3.25254 11.098C4.14185 11.9872 5.58874 11.9872 6.478 11.098C7.00164 10.5742 7.85388 10.5742 8.37757 11.098C8.74764 11.468 9.22877 11.6956 9.74027 11.7518V14.7737C9.48372 14.7255 9.23857 14.6025 9.04047 14.4043C8.60969 13.9736 8.03697 13.7363 7.42774 13.7363C6.81855 13.7363 6.24583 13.9736 5.81505 14.4043C5.29136 14.928 4.43918 14.9281 3.91544 14.4043C3.48471 13.9736 2.91199 13.7363 2.30275 13.7363C1.69352 13.7363 1.1208 13.9736 0.69002 14.4043C0.506973 14.5874 0.506973 14.8842 0.69002 15.0673C0.873066 15.2503 1.16988 15.2503 1.35293 15.0673C1.60666 14.8136 1.94397 14.6738 2.30275 14.6738C2.66154 14.6738 2.99885 14.8135 3.25254 15.0673C4.14185 15.9566 5.58874 15.9566 6.478 15.0673C6.73169 14.8136 7.069 14.6738 7.42779 14.6738C7.78657 14.6738 8.12388 14.8135 8.37757 15.0673C9.26683 15.9566 10.7137 15.9566 11.603 15.0673C11.8567 14.8136 12.194 14.6738 12.5528 14.6738C12.9116 14.6738 13.2489 14.8135 13.5026 15.0673C13.9472 15.5119 14.5312 15.7342 15.1152 15.7342C15.6993 15.7342 16.2834 15.512 16.728 15.0673C16.9817 14.8136 17.319 14.6738 17.6778 14.6738C18.0365 14.6738 18.3739 14.8135 18.6276 15.0673C19.5168 15.9566 20.9637 15.9566 21.853 15.0673C22.1067 14.8136 22.444 14.6738 22.8028 14.6738C23.1616 14.6738 23.4989 14.8135 23.7526 15.0673C23.9357 15.2503 24.2324 15.2503 24.4156 15.0673C24.5986 14.8843 24.5986 14.5875 24.4156 14.4043C23.9847 13.9736 23.412 13.7363 22.8028 13.7363ZM15.084 6.95506H16.6778V9.4858H12.7403V6.14258C12.7403 5.62564 13.1608 5.20508 13.6778 5.20508C14.1947 5.20508 14.6153 5.62564 14.6153 6.14258V6.48631C14.6153 6.7452 14.8252 6.95506 15.084 6.95506ZM12.7403 10.4233H16.6778V11.5483H12.7403V10.4233ZM10.94 14.4043C10.8596 14.4848 10.7713 14.5527 10.6778 14.6085V6.14258C10.6778 4.48836 12.0236 3.14258 13.6778 3.14258C15.2901 3.14258 16.6094 4.42109 16.6752 6.01756H15.5486C15.4841 5.04181 14.6696 4.26758 13.6778 4.26758C12.6439 4.26758 11.8028 5.1087 11.8028 6.14258V13.8623C11.4817 13.9738 11.1874 14.157 10.94 14.4043ZM15.1153 14.7978C14.7565 14.7978 14.4191 14.6581 14.1655 14.4043C13.7792 14.0181 13.2787 13.7881 12.7403 13.7445V12.4858H16.6778V13.9665C16.4537 14.076 16.2466 14.2227 16.0651 14.4043C15.8114 14.658 15.474 14.7978 15.1153 14.7978ZM17.6778 13.7363C17.6568 13.7363 17.6361 13.7373 17.6153 13.7378V6.14258C17.6153 4.48836 18.9611 3.14258 20.6153 3.14258C22.2276 3.14258 23.5469 4.42114 23.6127 6.01756H22.4861C22.4216 5.04181 21.6071 4.26758 20.6153 4.26758C19.5814 4.26758 18.7403 5.1087 18.7403 6.14258V13.998C18.4166 13.8272 18.0542 13.7363 17.6778 13.7363Z" fill="#323232"/>
<path d="M21.1901 22.3428C20.9364 22.5965 20.5991 22.7362 20.2403 22.7362C19.8815 22.7362 19.5442 22.5965 19.2905 22.3427C18.4012 21.4534 16.9542 21.4535 16.065 22.3427C15.8114 22.5965 15.474 22.7362 15.1153 22.7362C14.7565 22.7362 14.4191 22.5965 14.1655 22.3427C13.2762 21.4535 11.8293 21.4535 10.94 22.3427C10.6863 22.5965 10.349 22.7362 9.99025 22.7362C9.63147 22.7362 9.29416 22.5965 9.04047 22.3427C8.15121 21.4535 6.70432 21.4535 5.81505 22.3427C5.56136 22.5965 5.22405 22.7362 4.86527 22.7362C4.50649 22.7362 4.16918 22.5965 3.91544 22.3427C3.02622 21.4535 1.57929 21.4535 0.69002 22.3427C0.506973 22.5258 0.506973 22.8226 0.69002 23.0057C0.873066 23.1887 1.16988 23.1887 1.35297 23.0057C1.60666 22.752 1.94397 22.6122 2.30275 22.6122C2.66154 22.6122 2.99885 22.7519 3.25254 23.0057C3.68332 23.4365 4.25604 23.6737 4.86527 23.6737C5.47446 23.6737 6.04722 23.4364 6.478 23.0057C6.73169 22.752 7.069 22.6122 7.42779 22.6122C7.78657 22.6122 8.12388 22.7519 8.37757 23.0057C8.80835 23.4364 9.38107 23.6737 9.9903 23.6737C10.5995 23.6737 11.1722 23.4364 11.603 23.0057C12.1267 22.4819 12.9788 22.4819 13.5026 23.0057C13.9333 23.4365 14.5061 23.6737 15.1153 23.6737C15.7245 23.6737 16.2972 23.4364 16.728 23.0057C16.9817 22.752 17.319 22.6122 17.6778 22.6122C18.0365 22.6122 18.3739 22.7519 18.6276 23.0057C19.0583 23.4365 19.6311 23.6737 20.2403 23.6737C20.8495 23.6737 21.4222 23.4364 21.853 23.0057C22.1066 22.752 22.444 22.6122 22.8028 22.6122C23.1615 22.6122 23.4989 22.7519 23.7526 23.0057C23.9357 23.1887 24.2324 23.1887 24.4155 23.0057C24.5986 22.8226 24.5986 22.5258 24.4155 22.3427C23.5263 21.4535 22.0793 21.4536 21.1901 22.3428Z" fill="#323232"/>
<path d="M12.8861 18.5091C12.9738 18.422 13.0234 18.301 13.0234 18.1777C13.0234 18.0544 12.9738 17.9335 12.8861 17.8463C12.7989 17.7591 12.678 17.709 12.5547 17.709C12.4314 17.709 12.3105 17.7591 12.2233 17.8463C12.1361 17.9335 12.0859 18.0544 12.0859 18.1777C12.0859 18.301 12.1361 18.422 12.2233 18.5091C12.3109 18.5963 12.4314 18.6465 12.5547 18.6465C12.6779 18.6464 12.7989 18.5963 12.8861 18.5091Z" fill="#323232"/>
</g>
<defs>
<clipPath id="clip0_299_8612">
<rect width="24" height="24" fill="white" transform="translate(0.552734 0.939453)"/>
</clipPath>
</defs>
</svg>
