<svg width="21" height="21" viewBox="0 0 21 21" fill="none" xmlns="http://www.w3.org/2000/svg">
<g clip-path="url(#clip0_278_1881)">
<path d="M15.7256 7.32053L12.6983 2.09593C12.5456 1.81553 12.3324 1.57263 12.0742 1.38488C11.816 1.19712 11.5192 1.0692 11.2054 1.01041C10.8915 0.951621 10.5686 0.963432 10.2599 1.04499C9.9512 1.12654 9.66454 1.27579 9.42072 1.48191L4.70822 5.25723C4.20003 5.6727 3.85748 6.25646 3.74264 6.90274L2.08734 15.7467C1.95987 16.3905 2.06773 17.0587 2.39129 17.6297C2.54564 17.9088 2.75932 18.1506 3.01726 18.3381C3.2752 18.5257 3.57114 18.6544 3.88421 18.7152L11.6247 20.1648C11.7509 20.1885 11.879 20.2005 12.0074 20.2005C12.5897 20.17 13.1436 19.9389 13.575 19.5465C14.0063 19.154 14.2885 18.6244 14.3737 18.0475L16.029 9.20377C16.1564 8.55995 16.0488 7.89178 15.7256 7.32053ZM12.1282 6.27012C12.06 6.6347 11.8853 6.97087 11.626 7.23612C11.3667 7.50136 11.0346 7.68377 10.6717 7.76028C10.3088 7.83678 9.93133 7.80395 9.58706 7.66593C9.2428 7.52791 8.94719 7.2909 8.73763 6.98487C8.52806 6.67885 8.41395 6.31755 8.40972 5.94667C8.4055 5.57579 8.51135 5.21199 8.71388 4.90127C8.91642 4.59055 9.20655 4.34686 9.54758 4.20103C9.88862 4.05521 10.2652 4.01378 10.6298 4.082C11.1182 4.1743 11.5502 4.45641 11.831 4.86653C12.1119 5.27665 12.2187 5.78136 12.1282 6.27012ZM19.0502 17.789C18.8913 18.0276 18.6866 18.2323 18.4479 18.3911C18.2092 18.55 17.9413 18.6598 17.6598 18.7143L15.3238 19.1504C15.4489 18.8707 15.5423 18.578 15.6023 18.2776L17.2576 9.43479C17.4401 8.49663 17.2803 7.52412 16.8072 6.6937L15.2271 3.96661L16.8371 5.2554C17.3436 5.67395 17.6844 6.25928 17.7984 6.9064L19.4543 15.747C19.594 16.4543 19.4488 17.1882 19.0502 17.789Z" fill="#777777"/>
</g>
<defs>
<clipPath id="clip0_278_1881">
<rect width="20" height="20" fill="white" transform="translate(0.771484 0.374756)"/>
</clipPath>
</defs>
</svg>
