<svg width="25" height="25" viewBox="0 0 25 25" fill="none" xmlns="http://www.w3.org/2000/svg">
<g clip-path="url(#clip0_299_8572)">
<path d="M22.5527 3.93945H2.55275C1.4502 3.93945 0.552734 4.83641 0.552734 5.93947V17.9395C0.552734 19.0425 1.4502 19.9395 2.55275 19.9395H11.0527V20.9395H8.05273C7.77636 20.9395 7.55272 21.1631 7.55272 21.4395C7.55272 21.7159 7.77636 21.9395 8.05273 21.9395H17.0527C17.3291 21.9395 17.5527 21.7159 17.5527 21.4395C17.5527 21.1631 17.3291 20.9395 17.0527 20.9395H14.0527V19.9395H22.5527C23.6553 19.9395 24.5527 19.0425 24.5527 17.9395V5.93947C24.5527 4.83641 23.6553 3.93945 22.5527 3.93945ZM13.0527 20.9395H12.0528V19.9395H13.0527V20.9395ZM23.5527 17.9395C23.5527 18.4907 23.1045 18.9395 22.5528 18.9395H2.55275C2.00098 18.9395 1.55277 18.4907 1.55277 17.9395V5.93947C1.55277 5.38822 2.00103 4.93948 2.55275 4.93948H22.5528C23.1045 4.93948 23.5527 5.38822 23.5527 5.93947V17.9395Z" fill="#323232"/>
</g>
<defs>
<clipPath id="clip0_299_8572">
<rect width="24" height="24" fill="white" transform="translate(0.552734 0.939453)"/>
</clipPath>
</defs>
</svg>
