<svg width="58" height="37" viewBox="0 0 58 37" fill="none" xmlns="http://www.w3.org/2000/svg">
<g clip-path="url(#clip0_465_2717)">
<mask id="mask0_465_2717" style="mask-type:luminance" maskUnits="userSpaceOnUse" x="0" y="0" width="58" height="37">
<path d="M5.16414 0.271973C3.97309 0.273156 2.83098 0.746003 1.98765 1.58708C1.14433 2.42816 0.668428 3.569 0.664062 4.76005L0.664063 31.8086C0.664063 34.2853 2.67544 36.2966 5.16414 36.2966H53.2045C54.3952 36.2947 55.5367 35.8215 56.3796 34.9806C57.2225 34.1396 57.6984 32.9992 57.7031 31.8086V4.76005C57.7007 3.56865 57.2257 2.42688 56.3822 1.58542C55.5388 0.743959 54.3959 0.271573 53.2045 0.271973H5.16414Z" fill="#FEFEFE"/>
</mask>
<g mask="url(#mask0_465_2717)">
<path d="M0.664062 4.76005C0.664062 2.28335 2.69495 0.271973 5.16414 0.271973H53.2045C54.3959 0.271573 55.5388 0.743959 56.3822 1.58542C57.2257 2.42688 57.7007 3.56865 57.7031 4.76005V31.8086C57.7031 34.2853 55.6722 36.2966 53.2045 36.2966H5.16414C3.97248 36.2974 2.82923 35.8252 1.98547 34.9837C1.14171 34.1422 0.666449 33.0002 0.664063 31.8086L0.664062 4.76005Z" fill="#FEFEFE"/>
</g>
<mask id="mask1_465_2717" style="mask-type:luminance" maskUnits="userSpaceOnUse" x="-1" y="-2" width="61" height="40">
<path d="M0.664062 4.76005C0.664062 2.28335 2.69495 0.271973 5.16414 0.271973H53.2045C54.3959 0.271573 55.5388 0.743959 56.3822 1.58542C57.2257 2.42688 57.7007 3.56865 57.7031 4.76005V31.8086C57.7031 34.2853 55.6722 36.2966 53.2045 36.2966H5.16414C3.97248 36.2974 2.82923 35.8252 1.98547 34.9837C1.14171 34.1422 0.666449 33.0002 0.664063 31.8086L0.664062 4.76005Z" stroke="#E5E2E9" stroke-width="3.00206"/>
</mask>
<g mask="url(#mask1_465_2717)">
<path d="M0.664062 4.76005C0.664062 2.28335 2.69495 0.271973 5.16414 0.271973H53.2045C54.3959 0.271573 55.5388 0.743959 56.3822 1.58542C57.2257 2.42688 57.7007 3.56865 57.7031 4.76005V31.8086C57.7031 34.2853 55.6722 36.2966 53.2045 36.2966H5.16414C3.97248 36.2974 2.82923 35.8252 1.98547 34.9837C1.14171 34.1422 0.666449 33.0002 0.664063 31.8086L0.664062 4.76005Z" stroke="#E5E2E9" stroke-width="3.00206"/>
</g>
<path fill-rule="evenodd" clip-rule="evenodd" d="M45.4478 6.27612H36.5587C35.3189 6.31515 33.7968 7.33435 33.5222 8.59221L29.3193 27.9705C29.0416 29.2403 29.7951 30.2746 31.0079 30.2926H40.3443C41.5376 30.2295 42.6964 29.2223 42.9711 27.981L47.174 8.60272C47.4532 7.31934 46.6802 6.27612 45.4478 6.27612Z" fill="#0E7584"/>
<path fill-rule="evenodd" clip-rule="evenodd" d="M29.3207 27.972L33.5236 8.59671C33.7998 7.33885 35.3203 6.31965 36.5407 6.28063L26.6414 6.27612C25.4165 6.30314 23.8765 7.32684 23.5988 8.59521L19.3959 27.9705C19.1167 29.2403 19.8718 30.2746 21.0831 30.2911H31.0049C29.792 30.2761 29.0535 29.2403 29.3162 27.9705" fill="#05417A"/>
<path fill-rule="evenodd" clip-rule="evenodd" d="M19.3972 27.9719L23.6001 8.59818C23.8762 7.33131 25.4163 6.30611 26.6411 6.27759H18.4876C17.2567 6.27759 15.6761 7.3178 15.3954 8.59968L11.1926 27.9734C11.1697 28.088 11.1536 28.2037 11.1445 28.3202V28.6804C11.2271 29.6066 11.9056 30.2805 12.8797 30.294H21.0843C19.873 30.279 19.133 29.2418 19.3972 27.9719Z" fill="#CE1329"/>
<path fill-rule="evenodd" clip-rule="evenodd" d="M27.9471 17.1884C28.1033 17.0188 28.2173 16.7621 28.2834 16.4229L28.3074 16.2728C28.3132 16.2225 28.3162 16.1719 28.3164 16.1212C28.3164 15.9231 28.2654 15.7685 28.1663 15.6589C28.0672 15.5493 27.9201 15.4938 27.7355 15.4938C27.4908 15.4938 27.2912 15.5793 27.1351 15.752C26.979 15.9246 26.8649 16.1873 26.7944 16.5325L26.7703 16.6916C26.765 16.7415 26.7625 16.7916 26.7628 16.8417C26.7628 17.0398 26.8139 17.1914 26.9159 17.298C27.018 17.4046 27.1591 17.4601 27.3482 17.4601C27.4608 17.4636 27.5728 17.4426 27.6765 17.3986C27.7802 17.3545 27.873 17.2884 27.9487 17.205L27.9471 17.1884ZM26.2615 17.8264C26.0303 17.6042 25.9133 17.307 25.9118 16.9258C25.9117 16.8525 25.9157 16.7794 25.9238 16.7066L25.9583 16.4709C26.0634 15.9486 26.2885 15.5328 26.6307 15.2251C26.973 14.9174 27.3903 14.7643 27.8766 14.7643C28.2744 14.7643 28.5911 14.8754 28.8222 15.0975C29.0534 15.3197 29.1675 15.6229 29.1675 16.0056C29.1675 16.0717 29.163 16.1482 29.1525 16.2308L29.1149 16.4709C29.0129 16.9873 28.7907 17.3986 28.4455 17.6988C28.1037 18.0001 27.6612 18.1619 27.2056 18.1521C26.8064 18.1521 26.4912 18.0425 26.26 17.8249L26.2615 17.8264ZM24.87 13.6775H25.7647L25.5995 14.4581H24.7064L24.8565 13.6775H24.87ZM24.5924 14.8513H25.478L24.7875 18.071H23.9049L24.5954 14.8513H24.5924ZM19.8491 16.2698C19.7245 16.8822 19.4333 17.3506 18.9845 17.6853C18.5357 18.02 17.9683 18.1776 17.2643 18.1776C16.6039 18.1776 16.1191 18.0095 15.8083 17.6733C15.5903 17.4209 15.4756 17.0955 15.4871 16.7621C15.4892 16.5967 15.5073 16.4318 15.5412 16.2698L16.2917 12.6628H17.4219L16.6834 16.2293C16.663 16.3189 16.6529 16.4106 16.6534 16.5025C16.6534 16.6856 16.6984 16.8357 16.8035 16.9528C16.9536 17.1254 17.1563 17.2125 17.458 17.2125C17.8032 17.2125 18.0929 17.1269 18.3136 16.9573C18.5342 16.7877 18.6813 16.5445 18.7489 16.2308L19.4904 12.6643H20.6161L19.8656 16.2713L19.8491 16.2698ZM30.9987 22.6087H31.9189L31.9039 23.0064H32.1485C32.2716 23.0064 32.3332 22.9674 32.3332 22.8893L32.4082 22.6312H33.1737L33.0717 23.0064C32.9861 23.3216 32.7715 23.4838 32.3842 23.5018H31.8873V24.1817C31.8783 24.2898 31.9774 24.3318 32.1785 24.3318H32.6409L32.4908 24.8722H31.386C31.0768 24.8872 30.9237 24.7371 30.9282 24.4264L30.9987 22.5951V22.6087ZM32.075 21.8101C32.1951 21.8251 32.2596 21.7801 32.2671 21.669L32.3647 21.3178H30.7676L30.6325 21.8101H32.075ZM32.6529 20.264H31.0588L30.8682 20.932C30.8682 20.932 31.1338 20.7399 31.5766 20.7324H32.5253L32.6529 20.264ZM31.1413 19.5661L31.0963 19.9503C31.0963 19.9503 31.6277 19.5511 32.111 19.5511H33.9122L33.2293 22.0233C33.1737 22.3054 32.9291 22.4435 32.4998 22.4435H30.4614L29.987 24.1802C29.96 24.2733 29.9991 24.3213 30.1011 24.3213H30.4989L30.3533 24.8617H29.3416C28.9513 24.8617 28.7907 24.7446 28.8553 24.509L30.1942 19.5661H31.1413ZM26.6383 21.1782H29.4602L29.2801 21.8356H28.1453L27.9727 22.4706H29.0759L28.8958 23.1265H27.7925L27.5374 24.0646C27.4743 24.2208 27.5569 24.2898 27.7865 24.2748H28.6872L28.522 24.8857H26.7959C26.4656 24.8857 26.3561 24.6981 26.4581 24.3228L26.7854 23.1265H26.0799L26.26 22.4706H26.9655L27.1381 21.8356H26.4626L26.6428 21.1782H26.6383ZM26.8139 20.3121H26.9685C27.1096 20.3121 27.2056 20.264 27.2507 20.1695L27.6514 19.5691H28.7262L28.501 19.9653H29.7919L29.6418 20.5688H28.1108C27.9336 20.8344 27.716 20.959 27.4548 20.944H26.6593L26.8319 20.3136L26.8139 20.3121Z" fill="#FEFEFE"/>
<path fill-rule="evenodd" clip-rule="evenodd" d="M36.5603 6.76224L33.0059 6.76074L36.5393 6.76224" fill="#D23340"/>
<path fill-rule="evenodd" clip-rule="evenodd" d="M33.005 6.76081L26.6887 6.75781L26.6406 6.76081H33.005Z" fill="#2D4D79"/>
<path fill-rule="evenodd" clip-rule="evenodd" d="M39.2926 16.771C39.1275 17.2514 38.7628 17.5726 38.4776 17.481C38.1924 17.3895 38.0873 16.9256 38.2569 16.4453C38.4265 15.965 38.7868 15.6453 39.0705 15.7353C39.3542 15.8254 39.4607 16.2907 39.2926 16.771ZM39.872 15.1109L39.4968 15.3691C39.1065 15.0629 38.7463 14.8737 38.0588 15.1934C37.1191 15.6438 36.3326 18.97 38.9204 17.8683L39.0705 18.0439L40.0867 18.0709L40.7561 15.0343L39.8735 15.1094L39.872 15.1109ZM42.5078 18.6923C42.1671 19.4173 41.8429 19.8391 41.6523 20.0343C41.4616 20.2294 41.0819 20.6797 40.1737 20.6467L40.2533 20.0943C41.0188 19.8586 41.4331 18.7944 41.6688 18.3231L41.3881 14.8707L41.9795 14.8632H42.4748L42.5273 17.0367L43.458 14.8632H44.4006L42.5048 18.7059L42.5078 18.6923ZM34.5524 15.276H35.5836C35.8538 15.276 36.0639 15.213 36.2215 15.0899C36.3791 14.9668 36.4767 14.7897 36.5337 14.5165L36.5563 14.3859L36.5623 14.2733C36.5623 14.0887 36.4977 13.9551 36.3671 13.871C36.2365 13.787 36.0279 13.745 35.7427 13.745H34.8676L34.5674 15.276H34.5524ZM33.988 12.8503H36.3071C36.7529 12.8503 37.0966 12.9509 37.3338 13.1505C37.571 13.3502 37.688 13.6399 37.688 14.0151V14.0256L37.6775 14.2658L37.6325 14.53C37.5274 15.0253 37.2918 15.4261 36.927 15.7308C36.5623 16.0355 36.124 16.1841 35.6211 16.1841H34.3783L33.994 18.0709H32.9163L33.988 12.8503ZM30.0403 14.8467H30.8388L30.7488 15.297L30.8614 15.1619C30.9804 15.0296 31.1263 14.9242 31.2894 14.853C31.4526 14.7818 31.629 14.7464 31.807 14.7491C32.1417 14.7491 32.3834 14.8452 32.535 15.0418C32.6866 15.2385 32.7271 15.5072 32.6551 15.8584L32.2168 18.0499H31.3942L31.792 16.0625C31.8325 15.8569 31.822 15.7023 31.759 15.6047C31.6959 15.5072 31.5789 15.4576 31.4062 15.4576C31.1961 15.4576 31.016 15.5222 30.8734 15.6528C30.7308 15.7833 30.6332 15.968 30.5852 16.1991L30.2174 18.0484H29.3964L30.0418 14.8272L30.0403 14.8467ZM20.887 14.8467H21.6871L21.594 15.297L21.7081 15.1619C21.8269 15.0298 21.9726 14.9245 22.1355 14.8533C22.2983 14.7822 22.4745 14.7466 22.6522 14.7491C22.9885 14.7491 23.2316 14.8452 23.3817 15.0418C23.5318 15.2385 23.5724 15.5072 23.5018 15.8584L23.0635 18.0499H22.244L22.6387 16.0625C22.6808 15.8569 22.6688 15.7023 22.6087 15.6047C22.5487 15.5072 22.4286 15.4576 22.253 15.4576C22.0428 15.4576 21.8657 15.5222 21.7216 15.6528C21.5775 15.7833 21.4814 15.968 21.4334 16.1991L21.0657 18.0484H20.2461L20.8885 14.8272L20.887 14.8467ZM38.1849 20.8959H41.4691L41.277 21.5773H40.2308L40.0507 22.2077H41.0954L40.9002 22.8877H39.7369L39.4743 23.2855H40.0446L40.1767 24.084C40.1917 24.1621 40.2638 24.2011 40.3839 24.2011H40.561L40.3749 24.8586H39.7474C39.4232 24.8736 39.2566 24.7655 39.2416 24.5283L39.0915 23.8003L38.5751 24.5749C38.5232 24.6775 38.4412 24.7618 38.3401 24.8165C38.239 24.8712 38.1235 24.8938 38.0093 24.8811H37.0531L37.2392 24.2236H37.5364C37.5967 24.2227 37.656 24.2088 37.7104 24.1829C37.7647 24.157 37.8129 24.1197 37.8516 24.0735L38.6622 22.9027H37.616L37.8111 22.2228H38.9459L39.126 21.5923H37.9912L38.1864 20.9109L38.1849 20.8959ZM38.4821 19.5359H39.4968L39.5388 19.9112C39.5313 20.0057 39.5883 20.0523 39.7084 20.0523H39.8885L39.7084 20.6857H38.9624C38.6772 20.7007 38.5316 20.5911 38.5181 20.3555L38.4821 19.5359ZM35.8703 23.8739L36.0759 23.1459H35.2714L35.0642 23.8739H35.8703ZM35.6692 21.7394L35.393 22.7451C35.393 22.7451 35.9138 22.4899 36.2711 22.4674L36.4782 21.7409H35.6677L35.6692 21.7394ZM36.0714 20.3315L35.7967 21.2921C35.7967 21.2921 36.2651 21.112 36.6703 21.0595L36.8775 20.333L36.0714 20.3315ZM34.9066 20.3315L35.1198 19.581H36.1975L36.1525 19.8556C36.1525 19.8556 36.7034 19.581 37.1011 19.581H38.437L38.2239 20.3315H38.0138L37.0081 23.8739H37.2182L37.0186 24.5764H36.8084L36.7184 24.8826H35.6752L35.7607 24.5764H33.6998L33.9009 23.8739H34.1081L35.1138 20.3315H34.9036H34.9066Z" fill="#FEFEFE"/>
</g>
<defs>
<clipPath id="clip0_465_2717">
<rect width="57.0391" height="36.0247" fill="white" transform="translate(0.667969 0.271973)"/>
</clipPath>
</defs>
</svg>
