<svg width="35" height="25" viewBox="0 0 35 25" fill="none" xmlns="http://www.w3.org/2000/svg">
<path fill-rule="evenodd" clip-rule="evenodd" d="M29.094 0.958369C28.8758 1.04248 26.6891 2.04461 24.2349 3.1856C21.7805 4.32659 19.6511 5.26022 19.5033 5.26022C19.3552 5.26022 16.9425 4.36758 14.1422 3.27658C9.24865 1.37017 8.22218 1.09802 7.28591 1.45719C6.70748 1.67909 6.01982 3.06367 6.21104 3.62041C6.29621 3.8677 7.78711 5.02218 9.52451 6.18591C11.2619 7.34965 12.6862 8.37347 12.6896 8.46101C12.693 8.54856 11.8927 8.98998 10.9107 9.44172L9.1254 10.2632L5.97988 9.46711C4.24962 9.02939 2.68995 8.72629 2.51354 8.794C2.06974 8.96433 0.467485 11.8581 0.610571 12.2307C0.674577 12.3976 1.72405 12.938 2.94254 13.4312C4.16102 13.9242 5.20468 14.3675 5.2618 14.4159C5.31867 14.4643 5.09809 14.7203 4.77145 14.9848L4.17768 15.4656L4.98198 17.2395C5.4242 18.2152 5.88281 19.0095 6.00104 19.0044C6.11926 18.9994 8.47662 17.9375 11.2397 16.6447C14.0028 15.3516 16.3038 14.3339 16.3527 14.3831C16.4019 14.432 16.2538 16.372 16.0237 18.6939C15.4635 24.3468 15.4527 24.1757 16.3937 24.5655C17.4852 25.0178 18.4369 24.7081 19.0507 23.7009C19.3366 23.232 20.4649 20.1663 21.5583 16.8883L23.5459 10.9279L28.2823 8.6406C32.7243 6.4951 33.061 6.2806 33.7011 5.18828C34.6889 3.50271 34.5453 2.29904 33.2287 1.23264C32.6669 0.777725 30.02 0.602108 29.094 0.958369ZM29.623 2.01181C29.4048 2.09327 24.7864 4.22635 19.3596 6.75165C13.9329 9.27722 9.31742 11.3434 9.10266 11.3434C8.88816 11.3434 7.45121 11.0273 5.90953 10.6409L3.10652 9.93869L2.61352 10.5748C2.34242 10.9247 2.14934 11.3714 2.18479 11.5674C2.21996 11.7634 3.20094 12.3082 4.36467 12.7777C8.13411 14.299 8.27799 14.4611 6.60962 15.3122L5.54851 15.8536L5.95528 16.6399C6.17877 17.0726 6.44802 17.4289 6.55355 17.4321C6.65881 17.435 8.9765 16.404 11.7041 15.1408L16.6632 12.8443V11.821C16.6632 10.7983 17.2295 10.1997 17.7114 10.7131C17.832 10.8416 17.664 13.7436 17.3382 17.162C16.915 21.6046 16.8285 23.434 17.0354 23.5755C17.7164 24.0424 18.5585 22.197 20.936 15.0292C22.2954 10.931 23.5644 7.5168 23.7559 7.44195C24.3476 7.21079 24.6435 7.75008 24.3497 8.52317C24.2024 8.91064 24.1362 9.22749 24.2024 9.22749C24.2688 9.22749 25.8303 8.52952 27.6724 7.67602C31.4635 5.92037 32.6103 5.11792 33.0237 3.93171C33.2782 3.20199 33.2372 3.03167 32.6696 2.46408C32.0383 1.83276 30.6529 1.62725 29.623 2.01181ZM7.73685 2.52597C6.97805 2.83225 7.58081 3.44479 10.7985 5.63579L14.1906 7.94553L15.956 7.07511C16.9269 6.5964 17.7212 6.13196 17.7212 6.04283C17.7212 5.86985 8.63346 2.3366 8.27878 2.37178C8.16241 2.38315 7.91882 2.45271 7.73685 2.52597Z" fill="#2196F3"/>
</svg>
