<svg width="58" height="37" viewBox="0 0 58 37" fill="none" xmlns="http://www.w3.org/2000/svg">
<g clip-path="url(#clip0_465_2692)">
<path d="M52.2556 1.02246H5.72379C3.2368 1.02246 1.2207 3.03856 1.2207 5.52554V31.043C1.2207 33.53 3.2368 35.5461 5.72379 35.5461H52.2556C54.7426 35.5461 56.7587 33.53 56.7587 31.043V5.52554C56.7587 3.03856 54.7426 1.02246 52.2556 1.02246Z" fill="white" stroke="#E6E4EB" stroke-width="1.50103"/>
<path d="M28.0311 11.8748L25.625 24.7116H22.713L25.1221 11.8779H28.0311V11.8748ZM40.2795 20.1605L41.8136 15.3572L42.6947 20.1605H40.2795ZM43.5277 24.7086H46.2176L43.87 11.8748H41.3828C40.8274 11.8748 40.3531 12.2456 40.1444 12.816L35.7794 24.7101H38.8325L39.4419 22.7933H43.1765L43.5277 24.7086ZM35.9295 20.5058C35.9445 17.1134 31.8227 16.9288 31.8512 15.4023C31.8602 14.9399 32.2445 14.4506 33.0851 14.3245C33.5024 14.2615 34.6507 14.215 35.955 14.8979L36.4654 12.1751C35.6048 11.806 34.6789 11.613 33.7425 11.6077C30.8666 11.6077 28.8402 13.3534 28.8237 15.8556C28.8087 17.7018 30.2692 18.733 31.3724 19.3485C32.5057 19.9789 32.8854 20.3812 32.8824 20.9456C32.8734 21.8041 31.9758 22.1854 31.1413 22.1974C29.6777 22.2274 28.8267 21.7471 28.1512 21.3914L27.6379 24.2283C28.3178 24.5841 29.5712 24.8918 30.8756 24.9098C33.9332 24.9098 35.934 23.1836 35.94 20.5193L35.9295 20.5058ZM23.8703 11.8748L19.157 24.7086H16.0799L13.7578 14.4641C13.6152 13.8337 13.4922 13.604 13.0644 13.3384C12.3649 12.9031 11.2106 12.4978 10.1914 12.2456L10.262 11.8748H15.2153C15.8458 11.8748 16.4132 12.3522 16.5573 13.1837L17.7821 20.6108L20.8112 11.8748H23.8703Z" fill="#10347E"/>
</g>
<defs>
<clipPath id="clip0_465_2692">
<rect width="57.0391" height="36.0247" fill="white" transform="translate(0.470703 0.271973)"/>
</clipPath>
</defs>
</svg>
