<svg width="206" height="144" viewBox="0 0 206 144" fill="none" xmlns="http://www.w3.org/2000/svg">
<path d="M128.266 150.799C180.873 137.592 220.451 114.66 216.665 99.579C212.879 84.4978 167.163 82.9782 114.556 96.1849C61.9484 109.392 22.3709 132.323 26.157 147.405C29.943 162.486 75.6588 164.005 128.266 150.799Z" fill="#E5E2FF"/>
<path d="M27.417 154.427L51.3199 148.313L75.2456 142.27L123.091 130.182L170.974 118.238L194.917 112.264L218.873 106.364L194.969 112.474L171.045 118.521L123.199 130.609L75.3165 142.553L51.3725 148.523L27.417 154.427Z" fill="#263238"/>
<path d="M160.157 8.23081L65.6016 43.292L82.1005 85.8595L176.656 50.7983L160.157 8.23081Z" fill="#DA9CF1"/>
<path opacity="0.1" d="M160.157 8.23081L65.6016 43.292L82.1005 85.8595L176.656 50.7983L160.157 8.23081Z" fill="black"/>
<path opacity="0.1" d="M160.152 8.19547L157.292 9.25916L68.4744 42.2233L65.6042 43.285L66.6448 45.9624L81.0716 83.1718L82.1133 85.8534L84.9733 84.7897L173.799 51.8416L176.66 50.7822L160.161 8.19318L160.152 8.19547ZM172.761 49.1545L83.9361 82.1069L69.5139 44.8964L158.333 11.9591L172.761 49.1545Z" fill="black"/>
<path opacity="0.1" d="M126.93 62.0003C134.244 59.2884 137.667 50.6267 134.577 42.6538C131.487 34.6809 123.053 30.416 115.739 33.1278C108.426 35.8397 105.002 44.5014 108.092 52.4743C111.183 60.4472 119.617 64.7121 126.93 62.0003Z" fill="black"/>
<path opacity="0.1" d="M98.9336 54.7923C99.1879 55.4479 99.2285 56.1658 99.0503 56.8555C98.872 57.5451 98.483 58.1754 97.9323 58.6667C97.3817 59.158 96.6941 59.4881 95.9566 59.6155C95.2192 59.7428 94.4649 59.6615 93.7892 59.382C93.1135 59.1024 92.5467 58.6371 92.1605 58.0449C91.7744 57.4527 91.5861 56.7602 91.6197 56.055C91.6532 55.3498 91.907 54.6635 92.349 54.083C92.7909 53.5025 93.4012 53.0538 94.1025 52.7936C95.0429 52.4448 96.0802 52.4594 96.9862 52.8342C97.8922 53.209 98.5927 53.9134 98.9336 54.7923Z" fill="black"/>
<path opacity="0.1" d="M150.111 35.8125C150.364 36.4681 150.404 37.1857 150.225 37.8748C150.046 38.564 149.657 39.1936 149.106 39.6842C148.555 40.1749 147.868 40.5045 147.131 40.6314C146.393 40.7583 145.64 40.6769 144.964 40.3974C144.289 40.1179 143.723 39.6529 143.337 39.0611C142.95 38.4693 142.762 37.7772 142.795 37.0724C142.828 36.3675 143.082 35.6815 143.523 35.1009C143.964 34.5204 144.574 34.0714 145.274 33.8107C146.216 33.4616 147.254 33.4763 148.162 33.8518C149.069 34.2272 149.77 34.9325 150.111 35.8125Z" fill="black"/>
<path opacity="0.1" d="M90.2749 79.7607L83.936 82.1072L81.6414 76.1919C82.4733 75.8828 83.3566 75.73 84.2407 75.7421C85.1249 75.7542 85.9926 75.931 86.7943 76.2624C87.5961 76.5938 88.3161 77.0733 88.9133 77.6736C89.5105 78.2738 89.9732 78.9831 90.2749 79.7607Z" fill="black"/>
<path opacity="0.1" d="M170.463 43.2448L172.756 49.1558L166.427 51.5042C165.822 49.9356 165.907 48.1852 166.663 46.6369C167.42 45.0885 168.786 43.8686 170.463 43.2448Z" fill="black"/>
<path opacity="0.1" d="M151.999 14.3045L158.332 11.9549L160.627 17.8702C159.795 18.1791 158.913 18.3319 158.029 18.3199C157.146 18.3079 156.278 18.1313 155.477 17.8002C154.676 17.469 153.956 16.9899 153.36 16.3901C152.763 15.7903 152.3 15.0816 151.999 14.3045Z" fill="black"/>
<path opacity="0.1" d="M71.8051 50.8174L69.5083 44.8936L75.8391 42.5537C76.446 44.1227 76.3621 45.874 75.6058 47.4234C74.8495 48.9727 73.4826 50.1934 71.8051 50.8174Z" fill="black"/>
<path d="M117.264 36.5984C117.434 36.5366 117.62 36.5396 117.783 36.6068C117.946 36.674 118.072 36.8 118.135 36.9575L118.52 37.9525C120.299 37.4339 122.186 37.4277 123.936 37.9348C124.068 37.9532 124.191 38.003 124.295 38.0795C124.399 38.156 124.48 38.2568 124.531 38.3724C124.592 38.5415 124.579 38.7287 124.495 38.8931C124.411 39.0575 124.262 39.1855 124.082 39.2493C123.995 39.2851 123.901 39.3041 123.808 39.305C123.714 39.3059 123.621 39.2887 123.535 39.2546C122.055 38.7807 120.446 38.7336 118.91 39.1192L121.628 46.0836C125.984 45.3769 128.238 46.1666 129.184 48.6038C130.206 51.245 128.563 53.9909 125.271 55.3223L126.021 57.2675C126.076 57.4247 126.064 57.5979 125.986 57.7503C125.909 57.9027 125.772 58.0223 125.606 58.0836C125.439 58.1449 125.256 58.1432 125.095 58.0787C124.934 58.0143 124.808 57.8922 124.743 57.7384L123.983 55.773C121.693 56.4449 119.253 56.3766 117.055 55.579C116.942 55.554 116.838 55.5036 116.752 55.4318C116.665 55.36 116.599 55.2691 116.559 55.1668C116.503 55.0008 116.515 54.819 116.594 54.6575C116.673 54.4961 116.813 54.3669 116.985 54.2956C117.162 54.2277 117.359 54.2273 117.532 54.2946C119.433 55.0624 121.575 55.1815 123.6 54.632L120.85 47.5392C116.536 48.1991 114.357 47.4404 113.389 44.9541C112.421 42.4679 113.998 39.6563 117.235 38.3752L116.871 37.425C116.812 37.2691 116.82 37.0958 116.894 36.9417C116.967 36.7876 117.1 36.6646 117.264 36.5984ZM120.346 46.2872L117.713 39.4879C115.151 40.4998 114.004 42.5753 114.701 44.3656C115.355 46.0437 116.609 46.7749 120.343 46.2744L120.346 46.2872ZM122.111 47.3681L124.771 54.2378C127.419 53.2 128.588 51.1144 127.852 49.2249C127.185 47.4954 125.845 46.7945 122.107 47.3553L122.111 47.3681Z" fill="#DA9CF1"/>
<path d="M209.931 73.0037L173.802 82.0737L178.12 99.2763L214.25 90.2062L209.931 73.0037Z" fill="#DA9CF1"/>
<path d="M208.17 83.5221C208.169 81.3237 206.282 79.596 203.956 79.6631C201.629 79.7302 199.744 81.5668 199.745 83.7651C199.746 85.9635 201.633 87.6912 203.959 87.6241C206.286 87.557 208.171 85.7204 208.17 83.5221Z" fill="#EBEBEB"/>
<path d="M204.491 85.75C205.731 85.4389 206.499 84.2441 206.207 83.0813C205.915 81.9186 204.674 81.2281 203.434 81.5392C202.195 81.8503 201.427 83.0452 201.719 84.2079C202.011 85.3707 203.252 86.0611 204.491 85.75Z" fill="#DBDBDB"/>
<path d="M180.461 48.0994L71.1055 75.5522L90.3381 152.163L199.694 124.711L180.461 48.0994Z" fill="#DA9CF1"/>
<path opacity="0.1" d="M180.461 48.0994L71.1055 75.5522L90.3381 152.163L199.694 124.711L180.461 48.0994Z" fill="black"/>
<path d="M151.091 14.3598L173.613 57.8797C174.215 59.047 174.296 60.4065 173.837 61.6601C173.378 62.9136 172.418 63.9589 171.166 64.5668L97.0511 100.459C96.43 100.759 95.7559 100.943 95.0675 100.999C94.3791 101.055 93.6898 100.983 93.0392 100.785C92.3885 100.588 91.7892 100.271 91.2757 99.8505C90.7621 99.4304 90.3443 98.916 90.0462 98.337L67.5154 54.8011C66.9538 53.714 66.8786 52.4474 67.3063 51.2798C67.7341 50.1121 68.6298 49.139 69.7967 48.5741L144.584 12.3861C145.75 11.8276 147.089 11.7217 148.308 12.0915C149.528 12.4613 150.528 13.2768 151.091 14.3598Z" fill="#455A64"/>
<path d="M90.2029 48.0395L78.0598 53.916C77.0808 54.3898 76.6697 55.5131 77.1416 56.4248L80.6591 63.221C81.131 64.1328 82.3073 64.4878 83.2863 64.014L95.4294 58.1375C96.4084 57.6637 96.8195 56.5404 96.3476 55.6287L92.8301 48.8325C92.3582 47.9207 91.182 47.5657 90.2029 48.0395Z" fill="#DA9CF1"/>
<path d="M146.038 27.9511L138.944 31.3833C138.554 31.5749 138.13 31.6924 137.697 31.7291C137.263 31.7658 136.829 31.7209 136.419 31.597C136.009 31.4731 135.631 31.2726 135.308 31.0073C134.985 30.742 134.723 30.417 134.538 30.0513C134.347 29.6884 134.235 29.2911 134.209 28.8824C134.183 28.4737 134.243 28.0618 134.386 27.6705C134.529 27.2791 134.752 26.9162 135.042 26.6027C135.332 26.2892 135.683 26.0314 136.075 25.8442L143.174 22.4109C143.564 22.2193 143.988 22.1017 144.422 22.0651C144.855 22.0284 145.29 22.0733 145.7 22.1972C146.11 22.3211 146.487 22.5216 146.81 22.7869C147.133 23.0522 147.395 23.3772 147.581 23.7429C147.96 24.4776 148.011 25.3335 147.721 26.1226C147.432 26.9117 146.827 27.5693 146.038 27.9511Z" fill="white"/>
<path d="M85.6996 74.3588L85.2402 75.02C85.2241 75.046 85.2011 75.0675 85.1734 75.0823C85.1455 75.0955 85.1147 75.1018 85.0839 75.1008C85.0532 75.0998 85.0234 75.0914 84.9974 75.0765C84.9771 75.0662 84.9593 75.052 84.9453 75.0348C84.9313 75.0176 84.9213 74.9977 84.9159 74.9764C84.9106 74.9551 84.91 74.9328 84.9142 74.911C84.9184 74.8892 84.9274 74.8683 84.9405 74.8497L85.5627 73.9292C85.5884 73.8937 85.6268 73.868 85.6706 73.857C85.7143 73.846 85.7604 73.8505 85.7998 73.8697C85.8371 73.893 85.8647 73.9278 85.8779 73.9684L87.8927 77.8614C87.9125 77.8998 87.9152 77.9446 87.9001 77.9859C87.885 78.0271 87.8535 78.0616 87.8123 78.0817C87.7703 78.1007 87.7227 78.1043 87.6791 78.0916C87.6355 78.0789 87.599 78.051 87.577 78.0134L85.6996 74.3588Z" fill="white"/>
<path d="M88.9482 77.2187L90.1476 74.4066C90.2174 74.2448 90.2509 74.0719 90.246 73.8992C90.241 73.7265 90.1977 73.5578 90.1189 73.404C89.9672 73.118 89.7007 72.9035 89.377 72.8068C89.0533 72.7101 88.6984 72.7391 88.3893 72.8874C88.0948 73.0273 87.8623 73.264 87.7368 73.5517L87.6166 73.8456C87.6001 73.8872 87.5669 73.9213 87.5245 73.9405C87.482 73.9597 87.4337 73.9624 87.3902 73.948C87.3468 73.9335 87.3116 73.9032 87.2926 73.8636C87.2736 73.824 87.2722 73.7785 87.2888 73.7369L87.4113 73.4332C87.5704 73.0702 87.8623 72.7705 88.2323 72.5902C88.6261 72.403 89.0773 72.3676 89.4885 72.4916C89.8997 72.6157 90.2379 72.8892 90.4301 73.2531C90.5309 73.4468 90.5871 73.6596 90.5951 73.8777C90.6031 74.0958 90.5627 74.3145 90.4765 74.5197L89.4477 76.9296L91.6099 75.8864C91.6527 75.8676 91.7011 75.8653 91.7446 75.8799C91.7882 75.8945 91.8234 75.9248 91.8428 75.9644C91.8626 76.0029 91.8652 76.0476 91.8501 76.0889C91.8351 76.1302 91.8035 76.1646 91.7624 76.1847L89.2364 77.4011L89.2091 77.408C89.1876 77.4201 89.1637 77.4276 89.1391 77.4298C89.1144 77.432 89.0898 77.429 89.0669 77.4209C89.024 77.4074 88.9883 77.3794 88.9665 77.3422C88.9446 77.3049 88.9382 77.2611 88.9482 77.2187Z" fill="white"/>
<path d="M93.6339 70.315L93.0414 72.0104C93.4228 71.9045 93.8275 71.9277 94.1846 72.0759C94.5417 72.224 94.8286 72.4877 94.995 72.8209C95.0946 73.0095 95.1523 73.2162 95.1648 73.4287C95.1774 73.6412 95.1445 73.8553 95.0681 74.0581C94.9172 74.4688 94.6023 74.8111 94.1921 75.0104C93.9905 75.1088 93.7711 75.1684 93.5472 75.1855C93.3232 75.2026 93.0993 75.177 92.8887 75.1101C92.8665 75.1041 92.8459 75.0938 92.8282 75.0799C92.8105 75.0661 92.796 75.0489 92.7857 75.0294C92.7754 75.0099 92.7694 74.9885 92.7681 74.9665C92.7668 74.9445 92.7702 74.9223 92.7782 74.9014C92.7856 74.8799 92.7975 74.8599 92.8131 74.8426C92.8287 74.8252 92.8478 74.8109 92.8691 74.8005C92.8904 74.7901 92.9136 74.7837 92.9373 74.7818C92.9609 74.7799 92.9846 74.7824 93.007 74.7893C93.3467 74.8894 93.7184 74.858 94.042 74.7018C94.3656 74.5457 94.6151 74.2774 94.7367 73.9548C94.7971 73.7938 94.8232 73.624 94.8133 73.4554C94.8035 73.2868 94.7579 73.1227 94.6793 72.973C94.5221 72.6741 94.2443 72.4497 93.9065 72.3487C93.5687 72.2477 93.1984 72.2784 92.8763 72.4339C92.8508 72.445 92.8232 72.4507 92.7955 72.4506C92.7678 72.4505 92.7407 72.4445 92.7161 72.4332C92.6929 72.427 92.6715 72.4163 92.6532 72.4018C92.6348 72.3873 92.6199 72.3693 92.6093 72.349C92.5988 72.3286 92.5928 72.3063 92.5918 72.2834C92.5907 72.2605 92.5947 72.2376 92.6033 72.2159L93.1642 70.5876L91.4355 71.4264C91.4143 71.4371 91.3912 71.4437 91.3675 71.4459C91.3438 71.4481 91.3201 71.4458 91.2976 71.4391C91.2752 71.4325 91.2545 71.4216 91.2368 71.4072C91.2191 71.3927 91.2048 71.375 91.1946 71.355C91.1839 71.3352 91.1776 71.3136 91.176 71.2912C91.1744 71.2689 91.1776 71.2463 91.1853 71.2249C91.193 71.2035 91.2051 71.1836 91.2209 71.1664C91.2368 71.1492 91.256 71.1351 91.2774 71.1249L93.4042 70.0952C93.4479 70.0748 93.4979 70.0713 93.5432 70.0855C93.5885 70.0996 93.6255 70.1303 93.6462 70.1709C93.6592 70.1929 93.6655 70.2181 93.6645 70.2437C93.658 70.2686 93.6477 70.2927 93.6339 70.315Z" fill="white"/>
<path d="M99.0578 71.5647L96.5936 72.7565C96.5775 72.7685 96.5591 72.7772 96.5394 72.7821C96.5198 72.787 96.4994 72.7881 96.4796 72.7852C96.457 72.7813 96.4357 72.773 96.417 72.7607C96.3983 72.7485 96.3826 72.7325 96.3711 72.7139C96.3596 72.6954 96.3524 72.6746 96.3501 72.6529C96.3477 72.6313 96.3502 72.6093 96.3575 72.5884L97.4094 68.2621C97.4143 68.2407 97.4237 68.2203 97.4371 68.2022C97.4505 68.1841 97.4677 68.1687 97.4874 68.1569C97.5072 68.1451 97.5291 68.1372 97.552 68.1337C97.5748 68.1302 97.5981 68.1311 97.6202 68.1364C97.6542 68.1461 97.6851 68.1633 97.7104 68.1865C97.7104 68.1865 97.7104 68.1865 97.7158 68.2079L97.7212 68.2293L99.2265 71.1358L99.5285 70.9871C99.5494 70.9765 99.5722 70.9697 99.5956 70.9674C99.6189 70.965 99.6424 70.9669 99.6647 70.9732C99.687 70.9794 99.7077 70.9898 99.7254 71.0037C99.7432 71.0176 99.7578 71.0348 99.7684 71.0543C99.7782 71.074 99.7837 71.0954 99.7845 71.1174C99.7853 71.1394 99.7815 71.1614 99.7731 71.1822C99.7647 71.203 99.7521 71.2221 99.7359 71.2383C99.7197 71.2546 99.7003 71.2677 99.6789 71.2769L99.3768 71.4255L99.7537 72.1543C99.7692 72.1933 99.7686 72.2368 99.7519 72.2763C99.7351 72.3158 99.7036 72.3483 99.6634 72.3676C99.6232 72.3868 99.5772 72.3913 99.5347 72.3802C99.4921 72.369 99.4559 72.3431 99.4334 72.3075L99.0578 71.5647ZM98.9075 71.275L97.6255 68.7947L96.7577 72.3287L98.9075 71.275Z" fill="white"/>
<path d="M104.995 69.2603C104.973 69.2543 104.952 69.244 104.934 69.23C104.917 69.216 104.902 69.1985 104.892 69.1788C104.882 69.159 104.877 69.1374 104.876 69.1153C104.876 69.0932 104.88 69.0711 104.889 69.0503C104.896 69.0282 104.908 69.0077 104.924 68.9899C104.94 68.9721 104.959 68.9574 104.981 68.9468C105.003 68.9362 105.027 68.9299 105.051 68.9282C105.075 68.9266 105.1 68.9296 105.122 68.9372C105.459 69.0346 105.827 69.0027 106.147 68.8482C106.468 68.6904 106.715 68.4209 106.832 68.0984C106.95 67.7759 106.93 67.4263 106.776 67.1254C106.702 66.9753 106.596 66.8417 106.465 66.7325C106.334 66.6234 106.18 66.541 106.012 66.4901C105.845 66.4392 105.668 66.4209 105.49 66.4364C105.313 66.4518 105.14 66.5005 104.981 66.5798C104.82 66.6566 104.675 66.7627 104.556 66.8918C104.437 67.0209 104.346 67.1704 104.288 67.3316C104.281 67.3529 104.269 67.3727 104.254 67.3898C104.239 67.407 104.22 67.4212 104.199 67.4316C104.178 67.4419 104.155 67.4482 104.132 67.4501C104.109 67.452 104.085 67.4494 104.064 67.4425C104.039 67.4388 104.016 67.4287 103.998 67.4135C103.991 67.3973 103.986 67.3799 103.985 67.3621C103.985 67.3502 103.982 67.3386 103.977 67.3279L103.313 65.5157C103.303 65.4938 103.299 65.4699 103.3 65.4458C103.302 65.4217 103.309 65.3982 103.322 65.377C103.329 65.3577 103.34 65.3398 103.355 65.3244C103.369 65.3091 103.387 65.2965 103.406 65.2876L105.529 64.2633C105.551 64.2531 105.574 64.247 105.597 64.2453C105.621 64.2435 105.645 64.2461 105.667 64.253C105.689 64.2599 105.709 64.2709 105.727 64.2854C105.744 64.2999 105.759 64.3176 105.769 64.3374C105.779 64.3573 105.785 64.379 105.786 64.4012C105.787 64.4234 105.783 64.4458 105.775 64.467C105.767 64.4882 105.755 64.5079 105.739 64.5249C105.723 64.5418 105.704 64.5558 105.683 64.5659L103.702 65.5182L104.189 66.8606C104.422 66.5283 104.772 66.2839 105.174 66.1732C105.577 66.0624 106.003 66.0929 106.375 66.2589C106.746 66.4249 107.037 66.7151 107.193 67.0752C107.348 67.4352 107.358 67.8404 107.22 68.215C107.063 68.622 106.749 68.9613 106.343 69.163C106.134 69.2641 105.907 69.3249 105.675 69.3416C105.444 69.3583 105.212 69.3306 104.995 69.2603Z" fill="white"/>
<path d="M107.833 64.267C107.845 63.9216 107.955 63.5828 108.15 63.2858C108.346 62.9887 108.621 62.7441 108.946 62.5775C108.987 62.5559 109.036 62.5505 109.08 62.5622C109.125 62.574 109.162 62.602 109.184 62.6403C109.204 62.6805 109.207 62.7265 109.193 62.7695C109.178 62.8126 109.148 62.8496 109.107 62.8735C108.836 63.0124 108.607 63.2166 108.444 63.4647C108.281 63.7129 108.19 63.9959 108.182 64.2841C108.16 64.6241 108.198 64.9635 108.293 65.2887C108.399 64.9353 108.631 64.6241 108.949 64.4086C109.266 64.1931 109.65 64.0869 110.034 64.1081C110.419 64.1294 110.779 64.2768 111.053 64.525C111.328 64.7732 111.499 65.1067 111.538 65.4682C111.577 65.8296 111.481 66.1964 111.267 66.5055C111.053 66.8145 110.733 67.0465 110.364 67.1616C109.995 67.2767 109.598 67.2676 109.243 67.1359C108.888 67.0043 108.596 66.7583 108.417 66.4402C108.358 66.3525 108.306 66.2607 108.261 66.1656C107.949 65.5823 107.802 64.9288 107.833 64.267ZM108.721 66.2594C108.736 66.2861 108.755 66.3104 108.778 66.3315C108.786 66.3459 108.79 66.3621 108.79 66.3786C108.976 66.6484 109.267 66.8361 109.603 66.9022C109.939 66.9682 110.293 66.9073 110.59 66.7324C110.887 66.5576 111.104 66.2823 111.195 65.9649C111.286 65.6476 111.244 65.3128 111.078 65.0315C110.911 64.7502 110.634 64.5444 110.304 64.4575C109.974 64.3705 109.617 64.4094 109.309 64.5657C109.001 64.7221 108.766 64.9838 108.654 65.2955C108.541 65.6071 108.559 65.9444 108.705 66.236L108.721 66.2594Z" fill="white"/>
<path d="M113.674 65.3257L113.43 60.7973L111.241 61.8699C111.2 61.8859 111.155 61.887 111.115 61.873C111.074 61.8591 111.041 61.831 111.022 61.7945C111.003 61.758 111 61.7157 111.012 61.6759C111.025 61.6362 111.053 61.602 111.091 61.5801L113.499 60.416C113.529 60.3992 113.564 60.3905 113.599 60.3908C113.649 60.3906 113.696 60.4079 113.732 60.4392C113.738 60.4606 113.763 60.4635 113.773 60.4837C113.789 60.5108 113.797 60.542 113.795 60.5736L114.052 65.322C114.053 65.354 114.044 65.386 114.028 65.4143C114.011 65.4427 113.986 65.4663 113.956 65.4824C113.934 65.4948 113.909 65.5012 113.883 65.5007C113.857 65.5037 113.83 65.5014 113.805 65.494C113.779 65.4866 113.756 65.4743 113.737 65.4578C113.717 65.4414 113.701 65.4211 113.691 65.3984C113.68 65.3756 113.674 65.3509 113.674 65.3257Z" fill="white"/>
<path d="M116.086 59.116C116.286 59.0185 116.511 58.9824 116.73 59.0129C116.948 59.0435 117.149 59.1391 117.303 59.286C117.456 59.4329 117.556 59.6236 117.586 59.8306C117.616 60.0376 117.575 60.2503 117.47 60.438C117.848 60.407 118.221 60.5004 118.527 60.7023C118.832 60.9043 119.051 61.2023 119.146 61.5457C119.241 61.889 119.206 62.2564 119.047 62.5853C118.888 62.9142 118.615 63.1842 118.274 63.3494C117.934 63.5146 117.547 63.5647 117.179 63.4912C116.811 63.4176 116.486 63.2251 116.258 62.9462C116.03 62.6674 115.914 62.3196 115.929 61.962C115.945 61.6044 116.091 61.2591 116.342 60.9851C116.182 60.9574 116.031 60.8951 115.902 60.8029C115.773 60.7107 115.669 60.591 115.598 60.4532C115.537 60.3378 115.502 60.2116 115.494 60.0818C115.486 59.9519 115.505 59.8211 115.551 59.6968C115.596 59.5725 115.667 59.4572 115.759 59.3575C115.851 59.2578 115.962 59.1758 116.086 59.116ZM118.13 63.0655C118.36 62.9541 118.553 62.7816 118.683 62.5697C118.813 62.3579 118.874 62.1162 118.86 61.8753C118.846 61.6344 118.756 61.405 118.602 61.2162C118.449 61.0275 118.238 60.8877 117.996 60.8147C117.755 60.7417 117.494 60.7387 117.246 60.8061C116.998 60.8735 116.775 61.0082 116.605 61.1933C116.434 61.3783 116.324 61.6054 116.288 61.8457C116.253 62.0861 116.293 62.3289 116.404 62.5435C116.476 62.6869 116.579 62.8142 116.705 62.9183C116.832 63.0223 116.98 63.1008 117.14 63.1494C117.301 63.198 117.471 63.2156 117.641 63.2012C117.811 63.1868 117.977 63.1406 118.13 63.0655ZM116.85 60.5938C117.018 60.5103 117.147 60.3684 117.208 60.1989C117.269 60.0295 117.257 59.8461 117.175 59.6887C117.094 59.5323 116.95 59.4146 116.774 59.3616C116.598 59.3085 116.405 59.3244 116.237 59.4058C116.069 59.4872 115.94 59.6273 115.878 59.7955C115.817 59.9636 115.828 60.1459 115.909 60.3023C115.99 60.4591 116.134 60.5776 116.31 60.6322C116.487 60.6867 116.68 60.6729 116.85 60.5938Z" fill="white"/>
<path d="M124.174 55.202C124.542 55.0218 124.964 54.9746 125.358 55.0696C125.752 55.1645 126.091 55.3949 126.31 55.7165C126.31 55.7165 126.31 55.7165 126.316 55.7422C126.384 55.8571 126.452 55.9721 126.518 56.101C126.831 56.685 126.982 57.3385 126.956 58.0016C126.941 58.347 126.83 58.6852 126.633 58.982C126.437 59.2789 126.163 59.5239 125.839 59.6922C125.819 59.704 125.797 59.7118 125.775 59.7152C125.752 59.7186 125.729 59.7174 125.707 59.7118C125.685 59.7061 125.664 59.6962 125.647 59.6825C125.63 59.6689 125.616 59.6518 125.606 59.6325C125.594 59.6132 125.587 59.5919 125.585 59.5698C125.582 59.5477 125.584 59.5251 125.591 59.5035C125.598 59.4819 125.609 59.4617 125.624 59.444C125.639 59.4263 125.657 59.4115 125.678 59.4004C125.95 59.2609 126.179 59.0566 126.343 58.8084C126.506 58.5602 126.598 58.2773 126.609 57.9887C126.63 57.6487 126.591 57.3095 126.493 56.9853C126.417 57.2407 126.276 57.4762 126.081 57.6701C125.887 57.864 125.645 58.0103 125.379 58.0955C125.113 58.1807 124.831 58.2022 124.558 58.1579C124.285 58.1137 124.03 58.0052 123.816 57.8423C123.603 57.6793 123.437 57.4672 123.335 57.2253C123.233 56.9833 123.197 56.7192 123.232 56.457C123.266 56.1948 123.369 55.9429 123.531 55.7243C123.693 55.5057 123.909 55.3273 124.16 55.2054L124.174 55.202ZM126.085 56.0186C125.972 55.8001 125.793 55.6201 125.569 55.5013C125.345 55.3824 125.087 55.33 124.827 55.3508C124.567 55.3715 124.317 55.4644 124.109 55.6178C123.901 55.7711 123.743 55.978 123.657 56.2124C123.57 56.4467 123.558 56.698 123.622 56.9345C123.687 57.1709 123.824 57.382 124.018 57.541C124.211 57.7 124.452 57.7998 124.709 57.8278C124.967 57.8558 125.229 57.8107 125.464 57.6983C125.621 57.6234 125.761 57.5205 125.877 57.3955C125.993 57.2705 126.082 57.1259 126.14 56.9698C126.197 56.8138 126.222 56.6494 126.213 56.4862C126.204 56.3229 126.16 56.164 126.085 56.0186Z" fill="white"/>
<path d="M127.931 56.0327C127.649 55.5164 127.534 54.9291 127.599 54.3421C127.61 54.0965 127.691 53.8563 127.833 53.6471C127.976 53.4379 128.174 53.2675 128.408 53.1541C128.642 53.0407 128.902 52.9887 129.161 53.0035C129.42 53.0182 129.667 53.0993 129.877 53.238C130.402 53.5416 130.822 53.9817 131.088 54.508C131.364 55.0273 131.475 55.6153 131.406 56.2021C131.404 56.4505 131.329 56.6955 131.188 56.9092C131.047 57.123 130.847 57.297 130.61 57.4114C130.373 57.5258 130.109 57.576 129.848 57.5565C129.587 57.5369 129.339 57.4483 129.132 57.3007C128.605 57.003 128.187 56.5618 127.931 56.0327ZM128.252 55.8795C128.482 56.3477 128.851 56.7396 129.316 57.0089C129.474 57.1196 129.662 57.1855 129.861 57.1994C130.059 57.2132 130.259 57.1744 130.438 57.0873C130.618 57.0002 130.77 56.8683 130.877 56.7063C130.984 56.5442 131.042 56.3586 131.044 56.1701C131.095 55.6491 130.995 55.1292 130.755 54.6661C130.515 54.2031 130.144 53.8144 129.682 53.5418C129.524 53.4311 129.335 53.3652 129.137 53.3513C128.939 53.3375 128.738 53.3763 128.559 53.4634C128.379 53.5505 128.228 53.6824 128.121 53.8445C128.014 54.0065 127.955 54.1921 127.953 54.3806C127.896 54.9014 128 55.422 128.252 55.8795Z" fill="white"/>
<path d="M132.314 51.803L131.854 52.4642C131.838 52.4901 131.815 52.5116 131.787 52.5264C131.759 52.5396 131.729 52.546 131.698 52.545C131.667 52.5439 131.637 52.5355 131.611 52.5206C131.592 52.5099 131.574 52.4955 131.561 52.4782C131.547 52.4609 131.537 52.4411 131.532 52.42C131.527 52.3988 131.526 52.3768 131.53 52.3551C131.534 52.3334 131.542 52.3126 131.554 52.2938L132.177 51.3734C132.201 51.3362 132.239 51.3091 132.284 51.2979C132.328 51.2868 132.375 51.2925 132.414 51.3138C132.451 51.3371 132.479 51.3719 132.492 51.4125L134.507 55.3055C134.526 55.344 134.529 55.3887 134.514 55.43C134.499 55.4713 134.467 55.5057 134.426 55.5259C134.385 55.5446 134.338 55.5478 134.295 55.5349C134.252 55.522 134.216 55.4939 134.196 55.4564L132.314 51.803Z" fill="white"/>
<path d="M135.581 54.6583L136.78 51.842C136.85 51.681 136.884 51.5088 136.879 51.3368C136.874 51.1647 136.831 50.9966 136.752 50.8436C136.612 50.574 136.368 50.3673 136.069 50.2646C135.902 50.2042 135.722 50.1786 135.542 50.1893C135.361 50.2001 135.184 50.2471 135.023 50.327C134.729 50.4649 134.498 50.6998 134.373 50.9858L134.249 51.281C134.242 51.3025 134.23 51.3225 134.215 51.3396C134.199 51.3568 134.18 51.3707 134.159 51.3804C134.137 51.3901 134.114 51.3954 134.09 51.3959C134.067 51.3964 134.044 51.3921 134.022 51.3833C134.001 51.3769 133.981 51.3662 133.964 51.352C133.947 51.3378 133.934 51.3203 133.925 51.3008C133.916 51.2812 133.912 51.2599 133.912 51.2383C133.912 51.2167 133.917 51.1953 133.927 51.1754L134.044 50.8728C134.204 50.5098 134.495 50.2101 134.866 50.0298C135.259 49.8426 135.71 49.8072 136.122 49.9312C136.533 50.0553 136.871 50.3288 137.063 50.6927C137.164 50.8864 137.22 51.0992 137.228 51.3173C137.236 51.5354 137.196 51.7541 137.11 51.9593L136.081 54.3692L138.243 53.326C138.286 53.3072 138.334 53.3049 138.378 53.3195C138.421 53.3341 138.457 53.3644 138.476 53.404C138.496 53.4425 138.498 53.4872 138.483 53.5285C138.468 53.5698 138.437 53.6042 138.396 53.6244L135.863 54.8516L135.835 54.8584C135.816 54.8733 135.794 54.8841 135.771 54.8901C135.747 54.896 135.722 54.8969 135.698 54.8928C135.674 54.8862 135.65 54.8746 135.631 54.8589C135.611 54.8432 135.595 54.8237 135.584 54.8016C135.573 54.7795 135.567 54.7554 135.567 54.7307C135.566 54.706 135.571 54.6814 135.581 54.6583Z" fill="white"/>
<path d="M144.148 45.8751L143.555 47.5705C143.877 47.4854 144.214 47.4891 144.528 47.5811C144.848 47.679 145.127 47.8652 145.331 48.1162C145.534 48.3672 145.653 48.6718 145.671 48.9916C145.69 49.3114 145.608 49.6321 145.435 49.9132C145.262 50.1944 145.007 50.4235 144.701 50.5716C144.5 50.6701 144.28 50.7296 144.057 50.7468C143.833 50.7639 143.609 50.7383 143.398 50.6714C143.376 50.6653 143.355 50.6551 143.338 50.6412C143.32 50.6273 143.305 50.6101 143.295 50.5906C143.285 50.5711 143.279 50.5497 143.277 50.5277C143.276 50.5057 143.28 50.4836 143.288 50.4626C143.295 50.4411 143.307 50.4211 143.323 50.4038C143.338 50.3865 143.357 50.3722 143.378 50.3617C143.4 50.3513 143.423 50.3449 143.447 50.343C143.47 50.3411 143.494 50.3437 143.516 50.3506C143.727 50.415 143.952 50.4288 144.173 50.3907C144.393 50.3526 144.602 50.2639 144.781 50.1323C144.959 50.0008 145.102 49.8306 145.196 49.6368C145.29 49.4429 145.333 49.2316 145.32 49.0214C145.308 48.8113 145.241 48.6088 145.124 48.4322C145.008 48.2555 144.847 48.11 144.654 48.0087C144.462 47.9074 144.245 47.8533 144.022 47.8514C143.799 47.8494 143.577 47.8996 143.377 47.9975C143.351 48.0089 143.324 48.0147 143.296 48.0146C143.268 48.0145 143.241 48.0084 143.216 47.9967C143.171 47.9821 143.134 47.9513 143.113 47.9108C143.092 47.8703 143.089 47.8232 143.104 47.7794L143.663 46.1468L141.936 46.9899C141.892 47.0103 141.842 47.0139 141.797 46.9997C141.751 46.9855 141.714 46.9548 141.694 46.9142C141.683 46.8945 141.677 46.8728 141.675 46.8505C141.674 46.8281 141.677 46.8056 141.684 46.7842C141.692 46.7627 141.704 46.7428 141.72 46.7257C141.736 46.7085 141.755 46.6944 141.777 46.6842L143.904 45.6587C143.926 45.648 143.949 45.6414 143.972 45.6392C143.996 45.637 144.02 45.6393 144.042 45.646C144.065 45.6526 144.085 45.6635 144.103 45.678C144.121 45.6924 144.135 45.7102 144.145 45.7301C144.158 45.7522 144.165 45.7773 144.164 45.8029C144.162 45.8275 144.157 45.8518 144.148 45.8751Z" fill="white"/>
<path d="M149.572 47.1243L147.108 48.3161L147.085 48.3218C147.053 48.3431 147.014 48.3529 146.976 48.3493C146.953 48.3453 146.932 48.337 146.913 48.3248C146.894 48.3127 146.878 48.297 146.867 48.2786C146.855 48.2603 146.847 48.2398 146.844 48.2183C146.841 48.1967 146.843 48.1747 146.849 48.1536L147.905 43.8262C147.911 43.805 147.921 43.785 147.934 43.7673C147.948 43.7496 147.965 43.7346 147.985 43.7232C148.005 43.7119 148.027 43.7044 148.05 43.7012C148.072 43.698 148.095 43.6992 148.117 43.7048C148.151 43.7129 148.181 43.7287 148.206 43.7506C148.208 43.7594 148.21 43.768 148.213 43.7763L149.718 46.6827L150.02 46.5341C150.041 46.5241 150.063 46.5181 150.086 46.5162C150.109 46.5144 150.132 46.5168 150.154 46.5234C150.176 46.53 150.196 46.5406 150.213 46.5547C150.23 46.5687 150.244 46.5858 150.254 46.6051C150.264 46.6244 150.269 46.6455 150.271 46.6672C150.272 46.6888 150.269 46.7107 150.261 46.7314C150.253 46.7521 150.242 46.7713 150.226 46.7879C150.211 46.8045 150.192 46.8182 150.172 46.8282L149.868 46.9725L150.241 47.7024C150.251 47.7218 150.256 47.7429 150.257 47.7645C150.258 47.7862 150.255 47.808 150.247 47.8286C150.239 47.8492 150.227 47.8682 150.211 47.8846C150.196 47.901 150.177 47.9143 150.156 47.9239C150.135 47.9344 150.113 47.9408 150.09 47.943C150.068 47.9451 150.045 47.9429 150.023 47.9364C150.002 47.9299 149.982 47.9193 149.965 47.9052C149.948 47.8911 149.934 47.8739 149.925 47.8545L149.572 47.1243ZM149.421 46.8302L148.134 44.351L147.269 47.8754L149.421 46.8302Z" fill="white"/>
<path d="M151.609 46.7041C151.587 46.6973 151.567 46.6862 151.549 46.6717C151.532 46.6572 151.518 46.6395 151.508 46.6195C151.498 46.5996 151.492 46.5779 151.491 46.5556C151.49 46.5334 151.494 46.511 151.502 46.4899C151.519 46.4467 151.553 46.4108 151.596 46.3897C151.64 46.3686 151.69 46.3639 151.736 46.3767C152.072 46.4777 152.441 46.4473 152.761 46.292C153.083 46.1342 153.329 45.8648 153.447 45.5422C153.565 45.2197 153.544 44.8701 153.391 44.5692C153.316 44.4191 153.21 44.2855 153.079 44.1764C152.948 44.0673 152.794 43.9848 152.627 43.9339C152.459 43.8831 152.282 43.8648 152.105 43.8802C151.928 43.8956 151.755 43.9444 151.596 44.0236C151.435 44.1003 151.291 44.2063 151.173 44.3352C151.054 44.4642 150.964 44.6135 150.907 44.7743C150.899 44.7958 150.887 44.8158 150.872 44.8331C150.856 44.8504 150.837 44.8647 150.816 44.8752C150.794 44.8856 150.771 44.892 150.748 44.8939C150.724 44.8958 150.7 44.8933 150.678 44.8864C150.654 44.8809 150.632 44.871 150.612 44.8573C150.605 44.8411 150.6 44.8238 150.599 44.806C150.599 44.7941 150.596 44.7824 150.591 44.7717L149.927 42.9595C149.917 42.937 149.913 42.9124 149.914 42.8877C149.915 42.8629 149.923 42.8386 149.935 42.8165C149.952 42.7796 149.982 42.7494 150.02 42.7314L152.144 41.7071C152.165 41.697 152.188 41.6909 152.212 41.6891C152.235 41.6873 152.259 41.69 152.281 41.6969C152.303 41.7038 152.324 41.7148 152.341 41.7292C152.359 41.7437 152.373 41.7614 152.383 41.7813C152.393 41.8011 152.399 41.8228 152.4 41.845C152.401 41.8673 152.398 41.8896 152.39 41.9109C152.382 41.9321 152.369 41.9517 152.354 41.9687C152.338 41.9857 152.319 41.9996 152.297 42.0097L150.316 42.962L150.802 44.3002C150.973 44.0598 151.207 43.8646 151.479 43.7344C151.68 43.6344 151.899 43.5732 152.122 43.5546C152.346 43.536 152.57 43.5603 152.781 43.6261C152.994 43.6878 153.191 43.7908 153.358 43.9288C153.526 44.0669 153.66 44.2369 153.753 44.4283C153.852 44.6156 153.911 44.8209 153.925 45.0321C153.938 45.2434 153.908 45.4565 153.834 45.6589C153.677 46.0658 153.364 46.4052 152.957 46.6069C152.748 46.708 152.521 46.7687 152.289 46.7854C152.058 46.8021 151.826 46.7745 151.609 46.7041Z" fill="white"/>
<path d="M154.447 41.7109C154.46 41.3651 154.571 41.0259 154.767 40.7287C154.964 40.4314 155.239 40.1869 155.565 40.0203C155.605 39.999 155.652 39.9934 155.696 40.0046C155.739 40.0157 155.776 40.0429 155.798 40.08C155.819 40.1205 155.823 40.1674 155.808 40.2114C155.794 40.2554 155.763 40.2933 155.722 40.3175C155.451 40.4559 155.222 40.6593 155.059 40.9067C154.896 41.154 154.805 41.4362 154.795 41.7238C154.774 42.0653 154.812 42.406 154.908 42.7327C154.969 42.5144 155.079 42.3098 155.231 42.1328C155.382 41.9559 155.571 41.8107 155.785 41.7073C156.08 41.5649 156.41 41.5064 156.734 41.5392C157.058 41.572 157.362 41.6946 157.608 41.8917C157.854 42.0888 158.031 42.3517 158.117 42.6477C158.203 42.9437 158.194 43.2597 158.091 43.5563C157.989 43.8529 157.797 44.1171 157.54 44.3159C157.283 44.5147 156.972 44.6393 156.646 44.6742C156.32 44.7092 155.993 44.6529 155.706 44.5124C155.419 44.372 155.184 44.1535 155.032 43.8842C154.973 43.7965 154.921 43.7047 154.876 43.6095C154.566 43.0254 154.418 42.3725 154.447 41.7109ZM155.34 43.7022C155.352 43.7297 155.37 43.7545 155.392 43.7755C155.401 43.7899 155.405 43.806 155.404 43.8226C155.59 44.0923 155.882 44.2801 156.218 44.3461C156.554 44.4122 156.907 44.3513 157.205 44.1764C157.502 44.0015 157.719 43.7263 157.81 43.4089C157.901 43.0915 157.858 42.7568 157.692 42.4755C157.526 42.1942 157.249 41.9883 156.919 41.9014C156.589 41.8145 156.232 41.8533 155.924 42.0097C155.616 42.1661 155.381 42.4277 155.268 42.7394C155.155 43.0511 155.174 43.3884 155.32 43.6799L155.34 43.7022Z" fill="white"/>
<path d="M131.696 65.9487L92.0088 85.1553L92.9487 86.9713L132.636 67.7646L131.696 65.9487Z" fill="#A6A6A6"/>
<path d="M122.193 75.5899L94.0957 89.1875L95.0356 91.0035L123.133 77.4059L122.193 75.5899Z" fill="#A6A6A6"/>
<path d="M130.373 28.598L110.582 38.1758L111.522 39.9918L131.313 30.414L130.373 28.598Z" fill="#A6A6A6"/>
<path d="M175.883 59.2743L80.4189 83.2397L87.001 109.459L182.465 85.4932L175.883 59.2743Z" fill="#DA9CF1"/>
<path opacity="0.3" d="M175.883 59.2743L80.4189 83.2397L87.001 109.459L182.465 85.4932L175.883 59.2743Z" fill="black"/>
<path d="M173.074 59.284L185.101 106.63C185.422 107.901 185.193 109.256 184.465 110.397C183.736 111.538 182.567 112.373 181.214 112.719L101.172 133.018C100.502 133.188 99.8064 133.232 99.1258 133.148C98.4452 133.065 97.7928 132.854 97.206 132.529C96.6191 132.204 96.1094 131.771 95.7058 131.254C95.3023 130.737 95.0129 130.148 94.8543 129.518L82.8331 82.193C82.6842 81.6075 82.6598 80.9966 82.7612 80.3951C82.8626 79.7935 83.0878 79.2133 83.4241 78.6874C83.7603 78.1615 84.2009 77.7003 84.7207 77.3302C85.2406 76.9601 85.8294 76.6884 86.4536 76.5305L167.182 56.014C167.808 55.8551 168.457 55.8137 169.092 55.8922C169.727 55.9706 170.336 56.1674 170.883 56.4712C171.431 56.775 171.906 57.1799 172.282 57.6626C172.658 58.1453 172.927 58.6963 173.074 59.284Z" fill="#DBDBDB"/>
<path d="M170.397 103.257C170.619 104.128 170.56 105.051 170.228 105.907C169.896 106.763 169.306 107.514 168.532 108.066C167.759 108.618 166.836 108.945 165.881 109.006C164.927 109.068 163.983 108.86 163.169 108.411C162.355 107.961 161.707 107.289 161.309 106.48C160.91 105.671 160.777 104.761 160.928 103.865C161.079 102.969 161.506 102.128 162.155 101.447C162.805 100.767 163.648 100.277 164.577 100.041C165.194 99.8846 165.834 99.8435 166.461 99.9202C167.087 99.997 167.688 100.19 168.228 100.489C168.768 100.787 169.238 101.185 169.61 101.66C169.982 102.135 170.25 102.678 170.397 103.257Z" fill="#A6A6A6"/>
<path d="M176.18 101.787C176.402 102.659 176.343 103.581 176.011 104.437C175.679 105.293 175.089 106.045 174.316 106.596C173.542 107.148 172.619 107.475 171.665 107.537C170.71 107.598 169.766 107.391 168.952 106.941C168.138 106.491 167.491 105.819 167.092 105.01C166.693 104.201 166.561 103.291 166.711 102.395C166.862 101.5 167.289 100.658 167.939 99.9775C168.588 99.2968 169.431 98.8076 170.36 98.5716C171.606 98.2563 172.919 98.4178 174.01 99.0206C175.101 99.6234 175.882 100.618 176.18 101.787Z" fill="#DA9CF1"/>
<path d="M106.371 80.1082L93.258 83.4344C92.2008 83.7025 91.548 84.724 91.8 85.7159L93.678 93.1095C93.93 94.1014 94.9913 94.6881 96.0485 94.42L109.161 91.0938C110.219 90.8257 110.871 89.8041 110.619 88.8122L108.741 81.4186C108.489 80.4267 107.428 79.84 106.371 80.1082Z" fill="#DA9CF1"/>
<path d="M165.112 71.622L157.447 73.5691C157.026 73.6783 156.589 73.7083 156.161 73.6573C155.733 73.6063 155.323 73.4754 154.954 73.2721C154.584 73.0687 154.264 72.797 154.01 72.4726C153.756 72.1482 153.574 71.7775 153.475 71.382C153.372 70.9874 153.353 70.575 153.42 70.1688C153.487 69.7625 153.638 69.3703 153.864 69.0149C154.091 68.6596 154.388 68.348 154.739 68.0981C155.09 67.8483 155.487 67.6652 155.909 67.5594L163.575 65.6122C163.995 65.503 164.432 65.4731 164.86 65.524C165.288 65.575 165.698 65.706 166.068 65.9093C166.437 66.1127 166.758 66.3844 167.012 66.7088C167.265 67.0332 167.447 67.4038 167.546 67.7994C167.649 68.194 167.668 68.6064 167.601 69.0126C167.534 69.4189 167.383 69.811 167.157 70.1664C166.931 70.5218 166.633 70.8334 166.283 71.0832C165.932 71.3331 165.534 71.5162 165.112 71.622Z" fill="white"/>
<path d="M96.0529 105.076L95.4564 105.635C95.4354 105.656 95.4094 105.672 95.3807 105.681C95.3508 105.69 95.3193 105.691 95.2894 105.684C95.2596 105.677 95.2324 105.662 95.2109 105.642C95.1944 105.627 95.1814 105.609 95.1729 105.588C95.1643 105.568 95.1604 105.546 95.1612 105.524C95.1621 105.502 95.1677 105.481 95.1778 105.461C95.1879 105.441 95.2023 105.422 95.2199 105.408L96.0321 104.626C96.0664 104.597 96.1105 104.581 96.1557 104.582C96.2008 104.582 96.2435 104.599 96.2752 104.629C96.3076 104.659 96.3265 104.699 96.3281 104.743L97.3916 108.979C97.3968 109 97.3976 109.022 97.394 109.043C97.3903 109.064 97.3823 109.085 97.3703 109.104C97.3583 109.122 97.3426 109.139 97.3242 109.152C97.3057 109.165 97.2848 109.174 97.2626 109.18C97.2179 109.19 97.1714 109.184 97.1326 109.162C97.0938 109.14 97.0657 109.105 97.0541 109.064L96.0529 105.076Z" fill="white"/>
<path d="M98.5775 108.545L100.368 106.021C100.563 105.747 100.636 105.414 100.573 105.095C100.509 104.777 100.314 104.499 100.029 104.323C99.7444 104.147 99.3941 104.088 99.0552 104.158C98.7163 104.227 98.4165 104.421 98.2218 104.695L98.0363 104.96C98.0248 104.98 98.0093 104.997 97.9906 105.011C97.972 105.024 97.9506 105.035 97.9279 105.04C97.9052 105.046 97.8816 105.047 97.8586 105.044C97.8357 105.04 97.8139 105.033 97.7945 105.021C97.7744 105.011 97.7568 104.997 97.7429 104.98C97.729 104.963 97.7191 104.944 97.7139 104.923C97.7086 104.902 97.7081 104.88 97.7124 104.858C97.7166 104.837 97.7256 104.816 97.7387 104.798L97.9232 104.529C98.158 104.202 98.5092 103.965 98.9098 103.863C99.1323 103.806 99.3637 103.793 99.5887 103.827C99.8137 103.861 100.027 103.94 100.215 104.058C100.558 104.262 100.801 104.586 100.892 104.962C100.946 105.172 100.953 105.392 100.912 105.607C100.871 105.823 100.783 106.029 100.654 106.214L99.1071 108.376L101.47 107.783C101.492 107.778 101.516 107.777 101.539 107.78C101.562 107.784 101.584 107.791 101.603 107.803C101.623 107.815 101.64 107.83 101.653 107.848C101.666 107.866 101.675 107.886 101.68 107.907C101.689 107.949 101.681 107.993 101.657 108.031C101.633 108.068 101.595 108.096 101.551 108.108L98.7874 108.802C98.7642 108.81 98.7395 108.812 98.7153 108.81C98.6911 108.807 98.668 108.799 98.6479 108.787C98.6262 108.776 98.6071 108.761 98.5918 108.743C98.5765 108.725 98.5652 108.704 98.5587 108.682C98.5521 108.659 98.5504 108.635 98.5537 108.612C98.5569 108.589 98.565 108.566 98.5775 108.545Z" fill="white"/>
<path d="M104.669 102.704L103.708 104.246C104.103 104.22 104.49 104.325 104.803 104.543C105.116 104.761 105.336 105.078 105.423 105.439C105.476 105.645 105.485 105.86 105.449 106.071C105.413 106.282 105.333 106.486 105.214 106.67C104.975 107.043 104.592 107.316 104.149 107.429C103.931 107.484 103.705 107.498 103.484 107.47C103.263 107.442 103.051 107.372 102.861 107.265C102.84 107.255 102.822 107.241 102.807 107.223C102.793 107.206 102.782 107.185 102.777 107.164C102.771 107.142 102.771 107.119 102.776 107.096C102.78 107.074 102.79 107.053 102.803 107.034C102.816 107.015 102.832 106.998 102.851 106.984C102.87 106.971 102.892 106.961 102.915 106.955C102.937 106.949 102.961 106.948 102.984 106.951C103.008 106.954 103.03 106.961 103.05 106.972C103.35 107.135 103.709 107.181 104.051 107.098C104.39 107.004 104.683 106.794 104.873 106.51C104.967 106.364 105.029 106.203 105.057 106.036C105.085 105.869 105.078 105.699 105.036 105.537C104.951 105.211 104.733 104.933 104.428 104.765C104.124 104.597 103.757 104.552 103.409 104.639C103.382 104.645 103.353 104.644 103.326 104.639C103.299 104.633 103.273 104.622 103.251 104.606C103.23 104.595 103.212 104.58 103.198 104.563C103.183 104.545 103.173 104.524 103.168 104.502C103.162 104.48 103.161 104.457 103.166 104.435C103.17 104.412 103.179 104.39 103.192 104.371L104.112 102.88L102.228 103.353C102.185 103.357 102.142 103.346 102.107 103.323C102.072 103.3 102.048 103.265 102.038 103.226C102.028 103.186 102.033 103.144 102.053 103.107C102.073 103.07 102.106 103.04 102.146 103.023L104.426 102.451C104.472 102.439 104.52 102.445 104.561 102.468C104.601 102.49 104.629 102.527 104.64 102.57C104.654 102.592 104.66 102.617 104.658 102.643C104.666 102.662 104.669 102.683 104.669 102.704Z" fill="white"/>
<path d="M109.65 105.029L106.987 105.698C106.949 105.709 106.908 105.707 106.873 105.69C106.852 105.682 106.833 105.67 106.817 105.654C106.801 105.639 106.789 105.62 106.782 105.6C106.774 105.579 106.772 105.557 106.774 105.535C106.776 105.514 106.783 105.492 106.794 105.473L108.795 101.432C108.805 101.412 108.819 101.394 108.836 101.379C108.853 101.364 108.873 101.352 108.894 101.345C108.916 101.337 108.939 101.334 108.962 101.335C108.985 101.336 109.007 101.341 109.027 101.351C109.06 101.366 109.087 101.389 109.107 101.417C109.107 101.417 109.107 101.417 109.113 101.443L109.119 101.464L109.913 104.627L110.246 104.543C110.29 104.532 110.337 104.538 110.377 104.559C110.416 104.581 110.443 104.617 110.454 104.659C110.465 104.701 110.457 104.746 110.433 104.783C110.409 104.821 110.37 104.848 110.325 104.86L109.992 104.943L110.191 105.735C110.194 105.775 110.182 105.814 110.157 105.847C110.131 105.88 110.095 105.904 110.054 105.914C110.013 105.924 109.97 105.921 109.932 105.904C109.895 105.887 109.865 105.857 109.849 105.821L109.65 105.029ZM109.571 104.712L108.893 102.012L107.255 105.298L109.571 104.712Z" fill="white"/>
<path d="M115.931 103.961C115.911 103.95 115.894 103.935 115.88 103.918C115.866 103.9 115.856 103.88 115.851 103.859C115.845 103.837 115.845 103.815 115.848 103.793C115.852 103.771 115.861 103.749 115.873 103.73C115.899 103.69 115.941 103.661 115.989 103.649C116.036 103.637 116.087 103.643 116.128 103.666C116.429 103.829 116.787 103.874 117.13 103.792C117.473 103.701 117.767 103.487 117.95 103.195C118.043 103.053 118.106 102.896 118.135 102.732C118.164 102.569 118.158 102.402 118.118 102.243C118.034 101.924 117.821 101.651 117.524 101.482C117.219 101.316 116.852 101.271 116.504 101.359C116.156 101.446 115.854 101.658 115.664 101.949C115.651 101.969 115.635 101.986 115.616 101.999C115.597 102.013 115.576 102.023 115.553 102.029C115.53 102.034 115.506 102.036 115.483 102.033C115.46 102.03 115.437 102.022 115.417 102.011C115.394 102.004 115.374 101.99 115.359 101.971C115.349 101.954 115.345 101.935 115.345 101.916C115.344 101.905 115.341 101.895 115.337 101.886L115.103 99.9659C115.096 99.9422 115.097 99.9172 115.103 99.8933C115.11 99.8694 115.123 99.8472 115.141 99.8289C115.166 99.7956 115.204 99.7718 115.245 99.7618L117.526 99.1893C117.55 99.1791 117.576 99.1739 117.603 99.1742C117.629 99.1745 117.655 99.1802 117.679 99.1909C117.702 99.2017 117.723 99.2172 117.739 99.2364C117.756 99.2557 117.767 99.2781 117.773 99.3023C117.779 99.3265 117.78 99.3518 117.774 99.3764C117.769 99.4011 117.758 99.4245 117.743 99.4451C117.727 99.4657 117.707 99.4829 117.684 99.4957C117.66 99.5084 117.635 99.5163 117.608 99.5188L115.524 100.042L115.695 101.455C115.914 101.253 116.183 101.109 116.477 101.036C116.695 100.979 116.921 100.963 117.143 100.989C117.365 101.016 117.578 101.084 117.769 101.191C117.96 101.297 118.126 101.439 118.256 101.608C118.386 101.778 118.479 101.971 118.528 102.177C118.585 102.379 118.599 102.591 118.568 102.801C118.538 103.011 118.464 103.215 118.35 103.399C118.105 103.767 117.723 104.037 117.284 104.154C117.054 104.212 116.815 104.225 116.582 104.192C116.349 104.159 116.127 104.08 115.931 103.961Z" fill="white"/>
<path d="M119.812 99.6253C119.903 99.2878 120.087 98.9767 120.345 98.724C120.603 98.4714 120.926 98.2864 121.279 98.188C121.323 98.1756 121.37 98.1796 121.411 98.1992C121.451 98.2187 121.481 98.2524 121.495 98.2931C121.506 98.3368 121.499 98.3833 121.476 98.4236C121.453 98.4639 121.415 98.495 121.37 98.5109C121.073 98.594 120.803 98.7508 120.589 98.9648C120.375 99.1788 120.224 99.4419 120.153 99.7263C120.056 100.057 120.017 100.398 120.038 100.738C120.221 100.411 120.517 100.152 120.874 100.005C121.232 99.8578 121.629 99.8314 121.997 99.9304C122.365 100.029 122.681 100.248 122.89 100.548C123.1 100.848 123.191 101.211 123.146 101.574C123.101 101.937 122.925 102.278 122.646 102.539C122.368 102.799 122.005 102.962 121.62 102.999C121.235 103.037 120.853 102.947 120.538 102.745C120.224 102.543 119.997 102.241 119.897 101.892C119.865 101.794 119.84 101.694 119.821 101.593C119.643 100.953 119.64 100.276 119.812 99.6253ZM120.228 101.764C120.232 101.793 120.239 101.821 120.249 101.849C120.256 101.864 120.26 101.88 120.261 101.896C120.362 102.205 120.588 102.462 120.89 102.611C121.192 102.761 121.548 102.791 121.881 102.697C122.214 102.602 122.5 102.39 122.677 102.104C122.854 101.819 122.908 101.483 122.829 101.167C122.75 100.852 122.543 100.582 122.252 100.414C121.962 100.246 121.61 100.193 121.271 100.267C120.933 100.341 120.634 100.536 120.438 100.811C120.242 101.085 120.164 101.418 120.222 101.738L120.228 101.764Z" fill="white"/>
<path d="M125.247 101.845L126.054 97.335L123.683 97.9303C123.638 97.9404 123.592 97.934 123.553 97.9124C123.514 97.8908 123.486 97.8557 123.474 97.8144C123.464 97.7731 123.471 97.7292 123.494 97.6919C123.518 97.6546 123.555 97.627 123.599 97.6148L126.198 96.9622C126.23 96.9429 126.267 96.9336 126.303 96.9359C126.352 96.9453 126.395 96.9718 126.424 97.0103C126.431 97.0282 126.435 97.0469 126.438 97.0659C126.445 97.0963 126.443 97.1285 126.432 97.1583L125.606 101.883C125.6 101.915 125.585 101.945 125.562 101.969C125.538 101.993 125.509 102.011 125.476 102.02C125.455 102.032 125.431 102.038 125.407 102.037C125.359 102.031 125.316 102.008 125.286 101.972C125.257 101.937 125.243 101.891 125.247 101.845Z" fill="white"/>
<path d="M128.985 96.2261C129.256 96.1568 129.541 96.1911 129.78 96.3215C130.018 96.4518 130.189 96.6676 130.255 96.9216C130.292 97.0733 130.291 97.232 130.252 97.3854C130.213 97.5388 130.137 97.6827 130.031 97.8058C130.405 97.852 130.746 98.0199 130.996 98.2809C131.247 98.5419 131.391 98.8798 131.405 99.2369C131.419 99.594 131.3 99.9483 131.071 100.239C130.841 100.53 130.514 100.74 130.146 100.832C129.777 100.925 129.39 100.894 129.05 100.746C128.71 100.598 128.439 100.342 128.282 100.021C128.126 99.6997 128.093 99.3336 128.191 98.9852C128.289 98.6368 128.51 98.3276 128.818 98.1103C128.667 98.0512 128.534 97.9594 128.429 97.8421C128.323 97.7249 128.249 97.5854 128.212 97.4345C128.18 97.3096 128.174 97.1791 128.196 97.0506C128.217 96.9222 128.265 96.7983 128.337 96.686C128.409 96.5737 128.503 96.4753 128.614 96.3963C128.725 96.3174 128.851 96.2596 128.985 96.2261ZM130.059 100.505C130.308 100.443 130.534 100.312 130.709 100.13C130.883 99.9483 130.998 99.7231 131.039 99.4832C131.08 99.2432 131.045 98.9994 130.938 98.7824C130.832 98.5655 130.659 98.3853 130.441 98.2646C130.223 98.1439 129.97 98.0881 129.714 98.1044C129.458 98.1207 129.211 98.2083 129.004 98.356C128.797 98.5038 128.638 98.7051 128.55 98.9345C128.461 99.1639 128.445 99.411 128.505 99.6445C128.541 99.8029 128.611 99.9517 128.711 100.082C128.81 100.212 128.937 100.322 129.084 100.403C129.231 100.485 129.394 100.537 129.565 100.557C129.735 100.577 129.91 100.564 130.077 100.519L130.059 100.505ZM129.384 97.818C129.566 97.7687 129.723 97.6545 129.821 97.4999C129.919 97.3453 129.95 97.1625 129.908 96.9904C129.874 96.8648 129.801 96.7528 129.698 96.6683C129.596 96.5837 129.468 96.5304 129.331 96.5151C129.195 96.4997 129.055 96.5229 128.93 96.5818C128.805 96.6407 128.7 96.7327 128.628 96.8463C128.556 96.9598 128.52 97.0899 128.525 97.2203C128.531 97.3506 128.577 97.4754 128.657 97.5791C128.738 97.6828 128.85 97.7608 128.979 97.8033C129.109 97.8458 129.249 97.8509 129.384 97.818Z" fill="white"/>
<path d="M137.722 94.0104C138.119 93.9078 138.538 93.9463 138.899 94.1184C139.26 94.2905 139.537 94.5842 139.677 94.9434C139.677 94.9553 139.68 94.967 139.686 94.9776C139.716 95.1003 139.75 95.2329 139.785 95.3756C139.961 96.0113 139.963 96.6836 139.791 97.3301C139.697 97.6663 139.512 97.9758 139.255 98.228C138.997 98.4802 138.677 98.6662 138.324 98.7674C138.302 98.7742 138.279 98.7768 138.256 98.7749C138.233 98.7731 138.21 98.7669 138.19 98.7567C138.17 98.7465 138.152 98.7325 138.138 98.7155C138.124 98.6986 138.114 98.679 138.108 98.658C138.097 98.6148 138.104 98.5687 138.127 98.5291C138.15 98.4895 138.188 98.4592 138.234 98.4444C138.53 98.3605 138.799 98.2034 139.013 97.9896C139.228 97.7757 139.379 97.513 139.451 97.2291C139.551 96.8991 139.59 96.5568 139.565 96.2178C139.454 96.4179 139.299 96.5943 139.111 96.735C138.923 96.8756 138.706 96.9771 138.476 97.0327C138.046 97.1405 137.594 97.0838 137.219 96.8751C136.844 96.6665 136.576 96.3229 136.475 95.92C136.374 95.5171 136.448 95.0879 136.68 94.7268C136.912 94.3657 137.283 94.1022 137.713 93.9944L137.722 94.0104ZM139.393 95.2012C139.334 94.9622 139.2 94.7472 139.009 94.5835C138.819 94.4198 138.579 94.3148 138.321 94.2818C138.063 94.2488 137.798 94.2892 137.56 94.398C137.322 94.5068 137.121 94.679 136.983 94.8929C136.845 95.1068 136.776 95.3526 136.785 95.5994C136.794 95.8462 136.88 96.0827 137.032 96.279C137.185 96.4754 137.397 96.6227 137.642 96.7024C137.887 96.7821 138.154 96.7905 138.408 96.7266C138.577 96.6853 138.737 96.613 138.879 96.5138C139.02 96.4146 139.14 96.2905 139.231 96.1486C139.323 96.0067 139.384 95.85 139.412 95.6874C139.439 95.5247 139.433 95.3595 139.393 95.2012Z" fill="white"/>
<path d="M141.183 95.5887C141.023 95.0239 141.04 94.4224 141.233 93.8566C141.3 93.6183 141.434 93.3997 141.62 93.224C141.806 93.0483 142.037 92.9221 142.289 92.8588C142.541 92.7955 142.805 92.7975 143.052 92.8645C143.298 92.9316 143.519 93.0612 143.691 93.2395C144.126 93.647 144.432 94.1626 144.574 94.7305C144.717 95.2985 144.691 95.8971 144.5 96.4618C144.442 96.7059 144.313 96.9318 144.127 97.1136C143.942 97.2954 143.708 97.4258 143.452 97.4901C143.196 97.5544 142.928 97.55 142.678 97.4773C142.429 97.4046 142.209 97.2665 142.042 97.0789C141.606 96.6763 141.307 96.1583 141.183 95.5887ZM141.53 95.5017C141.645 96.0083 141.914 96.4684 142.303 96.8267C142.43 96.972 142.599 97.0791 142.791 97.1357C142.982 97.1923 143.188 97.1961 143.385 97.1467C143.582 97.0972 143.762 96.9966 143.903 96.8563C144.045 96.716 144.144 96.5419 144.187 96.3539C144.356 95.853 144.379 95.3219 144.253 94.8181C144.126 94.3143 143.855 93.8569 143.469 93.4954C143.342 93.3514 143.174 93.2454 142.983 93.1895C142.792 93.1336 142.587 93.1301 142.391 93.1793C142.195 93.2285 142.016 93.3285 141.875 93.4678C141.733 93.6071 141.634 93.7801 141.59 93.9671C141.413 94.465 141.393 94.9967 141.533 95.4962L141.53 95.5017Z" fill="white"/>
<path d="M146.391 92.3118L145.793 92.8667C145.773 92.8889 145.748 92.9063 145.719 92.9172C145.688 92.925 145.657 92.925 145.627 92.9174C145.597 92.9097 145.569 92.8947 145.548 92.8737C145.531 92.859 145.517 92.841 145.508 92.8207C145.499 92.8004 145.495 92.7784 145.496 92.7562C145.497 92.734 145.503 92.7121 145.513 92.6919C145.524 92.6718 145.539 92.6539 145.557 92.6394L146.365 91.859C146.4 91.8297 146.444 91.8137 146.49 91.814C146.536 91.8142 146.58 91.8309 146.612 91.8605C146.644 91.8907 146.663 91.9313 146.665 91.9746L147.729 96.211C147.739 96.253 147.732 96.2978 147.707 96.3354C147.683 96.373 147.644 96.4005 147.6 96.4117C147.555 96.423 147.508 96.4171 147.469 96.3953C147.43 96.3736 147.402 96.3377 147.391 96.2958L146.391 92.3118Z" fill="white"/>
<path d="M148.914 95.7766L150.705 93.2571C150.853 93.0489 150.933 92.805 150.933 92.5576C150.933 92.3101 150.854 92.0706 150.707 91.8705C150.559 91.6704 150.349 91.5191 150.105 91.4365C149.861 91.3538 149.594 91.3437 149.339 91.4075C149.023 91.4866 148.745 91.6711 148.558 91.9265L148.372 92.1915C148.361 92.211 148.345 92.2282 148.327 92.242C148.308 92.2558 148.287 92.2659 148.264 92.2716C148.241 92.2773 148.218 92.2785 148.195 92.2752C148.172 92.2718 148.15 92.264 148.131 92.2521C148.11 92.2423 148.093 92.2284 148.079 92.2116C148.065 92.1947 148.055 92.1751 148.05 92.1541C148.045 92.1332 148.044 92.1112 148.048 92.0898C148.053 92.0683 148.062 92.0478 148.075 92.0296L148.258 91.7561C148.495 91.4314 148.846 91.196 149.246 91.0942C149.67 90.9889 150.116 91.0448 150.487 91.2498C150.858 91.4547 151.124 91.7922 151.227 92.1889C151.281 92.3992 151.288 92.6191 151.247 92.8346C151.206 93.0501 151.118 93.2565 150.989 93.4406L149.443 95.6073L151.769 95.0234C151.792 95.0182 151.816 95.0173 151.839 95.0208C151.862 95.0243 151.883 95.032 151.903 95.0436C151.923 95.0551 151.939 95.0703 151.953 95.0882C151.966 95.1061 151.975 95.1264 151.98 95.1479C151.989 95.1898 151.981 95.234 151.957 95.2714C151.933 95.3087 151.895 95.3364 151.851 95.3486L149.087 96.0424C149.064 96.0502 149.039 96.0529 149.015 96.0503C148.991 96.0477 148.968 96.0399 148.947 96.0274C148.908 95.999 148.883 95.9569 148.876 95.9101C148.87 95.8632 148.883 95.8153 148.914 95.7766Z" fill="white"/>
<path d="M159.213 88.8698L158.253 90.4163C158.648 90.3887 159.036 90.4932 159.35 90.7114C159.663 90.9296 159.882 91.2476 159.968 91.6096C160.022 91.8151 160.031 92.03 159.995 92.2414C159.959 92.4529 159.879 92.6566 159.758 92.8405C159.641 93.025 159.487 93.1869 159.305 93.3167C159.123 93.4465 158.916 93.5416 158.697 93.5965C158.479 93.6514 158.252 93.6651 158.03 93.6368C157.808 93.6084 157.596 93.5385 157.405 93.4312C157.385 93.4202 157.368 93.4055 157.354 93.3878C157.34 93.3702 157.33 93.3501 157.325 93.3286C157.319 93.3071 157.319 93.2847 157.322 93.2626C157.326 93.2406 157.335 93.2194 157.347 93.2002C157.359 93.1804 157.375 93.163 157.394 93.1491C157.413 93.1351 157.435 93.125 157.458 93.1192C157.481 93.1134 157.505 93.1121 157.528 93.1154C157.551 93.1187 157.574 93.1265 157.593 93.1383C157.893 93.3012 158.252 93.3449 158.594 93.2603C158.933 93.1694 159.228 92.9605 159.417 92.6761C159.554 92.4581 159.622 92.2089 159.612 91.9591C159.603 91.7092 159.516 91.4697 159.363 91.2699C159.21 91.0701 158.997 90.9187 158.75 90.8344C158.503 90.7501 158.234 90.7366 157.975 90.7954C157.948 90.8035 157.919 90.8052 157.892 90.8001C157.864 90.7951 157.839 90.7836 157.817 90.7667C157.776 90.7438 157.747 90.7061 157.736 90.662C157.725 90.6179 157.733 90.5709 157.758 90.5314L158.678 89.0403L156.799 89.512C156.776 89.5184 156.752 89.5204 156.729 89.5179C156.705 89.5154 156.683 89.5084 156.662 89.4974C156.642 89.4864 156.624 89.4716 156.61 89.4539C156.596 89.4361 156.586 89.4158 156.581 89.3941C156.575 89.3725 156.573 89.3499 156.577 89.3275C156.58 89.3052 156.588 89.2836 156.6 89.264C156.613 89.2444 156.629 89.2272 156.648 89.2134C156.667 89.1996 156.689 89.1895 156.712 89.1837L158.992 88.6112C159.015 88.6048 159.039 88.6028 159.063 88.6053C159.086 88.6078 159.109 88.6148 159.13 88.6258C159.15 88.6368 159.168 88.6516 159.182 88.6693C159.196 88.6871 159.206 88.7074 159.211 88.7292C159.225 88.7509 159.231 88.7763 159.229 88.8019C159.233 88.8255 159.227 88.8497 159.213 88.8698Z" fill="white"/>
<path d="M164.208 91.1912L161.526 91.8644C161.508 91.8717 161.489 91.8752 161.469 91.8746C161.45 91.874 161.431 91.8692 161.414 91.8608C161.392 91.8529 161.373 91.8407 161.358 91.8252C161.342 91.8096 161.33 91.791 161.322 91.7705C161.315 91.7501 161.312 91.7282 161.314 91.7064C161.317 91.6846 161.324 91.6633 161.335 91.644L163.336 87.6026C163.345 87.5822 163.358 87.5638 163.375 87.5484C163.392 87.5331 163.412 87.5212 163.434 87.5136C163.456 87.5059 163.479 87.5027 163.502 87.5041C163.525 87.5055 163.548 87.5115 163.568 87.5217C163.598 87.5389 163.623 87.5619 163.643 87.5892C163.643 87.5892 163.643 87.5892 163.649 87.6149L163.655 87.6363L164.449 90.7987L164.777 90.7162C164.822 90.705 164.869 90.7109 164.908 90.7326C164.947 90.7544 164.975 90.7902 164.985 90.8322C164.996 90.8742 164.988 90.9189 164.964 90.9566C164.94 90.9942 164.901 91.0217 164.856 91.0329L164.528 91.1153L164.727 91.907C164.732 91.9281 164.733 91.9502 164.729 91.9719C164.725 91.9936 164.717 92.0145 164.704 92.0333C164.692 92.0521 164.676 92.0685 164.657 92.0815C164.637 92.0944 164.616 92.1037 164.593 92.1088C164.549 92.1189 164.502 92.1125 164.463 92.0909C164.424 92.0693 164.396 92.0342 164.385 91.9928L164.208 91.1912ZM164.128 90.8745L163.45 88.1743L161.794 91.4833L164.128 90.8745Z" fill="white"/>
<path d="M166.268 91.1929C166.248 91.1819 166.231 91.1671 166.217 91.1495C166.203 91.1319 166.193 91.1118 166.188 91.0903C166.182 91.0688 166.182 91.0464 166.186 91.0243C166.189 91.0023 166.198 90.9811 166.21 90.9619C166.236 90.9219 166.278 90.8929 166.326 90.8809C166.373 90.8689 166.424 90.8749 166.466 90.8977C166.616 90.9813 166.783 91.0356 166.957 91.0575C167.132 91.0794 167.31 91.0685 167.482 91.0253C167.654 90.9821 167.816 90.9076 167.959 90.8059C168.103 90.7043 168.224 90.5775 168.317 90.4329C168.41 90.2908 168.473 90.1334 168.502 89.97C168.531 89.8066 168.525 89.6403 168.486 89.4809C168.447 89.3183 168.375 89.1657 168.272 89.0319C168.17 88.8982 168.039 88.7861 167.888 88.7022C167.738 88.6183 167.57 88.5644 167.394 88.5437C167.219 88.5229 167.04 88.5357 166.868 88.5813C166.699 88.6253 166.539 88.7003 166.398 88.802C166.257 88.9037 166.138 89.0301 166.047 89.174C166.036 89.1943 166.021 89.2122 166.002 89.2265C165.983 89.2408 165.961 89.2513 165.937 89.2571C165.914 89.263 165.89 89.2641 165.866 89.2604C165.843 89.2568 165.821 89.2484 165.801 89.2359C165.777 89.2296 165.756 89.2155 165.743 89.196C165.739 89.1894 165.737 89.1821 165.737 89.1746C165.728 89.159 165.724 89.1413 165.724 89.1232C165.724 89.1232 165.719 89.1018 165.716 89.089L165.481 87.1691C165.475 87.146 165.476 87.1217 165.483 87.0985C165.49 87.0753 165.503 87.0539 165.521 87.0364C165.532 87.0185 165.547 87.0028 165.564 86.9905C165.582 86.9782 165.602 86.9695 165.624 86.965L167.904 86.3925C167.929 86.3823 167.955 86.3771 167.981 86.3774C168.008 86.3777 168.034 86.3834 168.057 86.3941C168.081 86.4049 168.101 86.4204 168.118 86.4396C168.134 86.4589 168.146 86.4813 168.152 86.5055C168.158 86.5297 168.158 86.555 168.153 86.5796C168.148 86.6043 168.137 86.6277 168.121 86.6483C168.105 86.6689 168.085 86.6862 168.062 86.6989C168.039 86.7116 168.013 86.7195 167.987 86.7221L165.848 87.259L166.019 88.6762C166.236 88.474 166.504 88.3281 166.796 88.2533C167.088 88.1786 167.393 88.1776 167.681 88.2504C167.968 88.3233 168.228 88.4674 168.434 88.6682C168.639 88.869 168.784 89.1192 168.851 89.3936C168.906 89.5981 168.917 89.8123 168.882 90.0233C168.848 90.2343 168.769 90.4379 168.651 90.6221C168.409 90.9925 168.026 91.2632 167.585 91.3765C167.361 91.4315 167.129 91.4435 166.903 91.412C166.676 91.3804 166.461 91.3059 166.268 91.1929Z" fill="white"/>
<path d="M170.15 86.8609C170.24 86.5226 170.424 86.2105 170.681 85.957C170.939 85.7035 171.262 85.5178 171.616 85.4194C171.661 85.4081 171.707 85.4134 171.747 85.4339C171.786 85.4545 171.815 85.4889 171.828 85.5299C171.84 85.5724 171.834 85.6182 171.812 85.6578C171.789 85.6973 171.752 85.7276 171.707 85.7423C171.411 85.8262 171.141 85.9833 170.927 86.1972C170.713 86.411 170.562 86.6737 170.49 86.9576C170.393 87.2886 170.353 87.6304 170.371 87.9701C170.552 87.6422 170.848 87.3811 171.205 87.2316C171.563 87.0822 171.961 87.0538 172.331 87.1514C172.7 87.2489 173.018 87.4663 173.23 87.7661C173.442 88.0659 173.535 88.4293 173.492 88.7939C173.449 89.1585 173.274 89.5014 172.996 89.7636C172.718 90.0257 172.355 90.1908 171.969 90.2303C171.583 90.2698 171.199 90.1814 170.883 89.9802C170.566 89.7789 170.337 89.4775 170.235 89.1278C170.202 89.0284 170.177 88.9269 170.158 88.824C169.981 88.1856 169.978 87.5105 170.15 86.8609ZM170.565 88.9949C170.569 89.0241 170.576 89.0527 170.586 89.0805C170.593 89.0954 170.597 89.1113 170.598 89.1275C170.699 89.4368 170.925 89.6933 171.227 89.8427C171.529 89.992 171.885 90.0226 172.218 89.928C172.551 89.8333 172.837 89.6209 173.014 89.3355C173.191 89.0501 173.245 88.7142 173.166 88.3988C173.087 88.0833 172.88 87.813 172.589 87.645C172.299 87.4771 171.947 87.4246 171.608 87.4987C171.269 87.5727 170.971 87.7676 170.775 88.042C170.579 88.3164 170.501 88.6489 170.558 88.9692L170.565 88.9949Z" fill="white"/>
<path d="M142.599 106.094L99.7422 116.965L100.244 118.941L143.101 108.07L142.599 106.094Z" fill="#A6A6A6"/>
<path d="M131.194 113.662L100.853 121.358L101.354 123.334L131.696 115.637L131.194 113.662Z" fill="#A6A6A6"/>
<path d="M149.747 69.1009L128.375 74.522L128.877 76.4976L150.248 71.0765L149.747 69.1009Z" fill="#A6A6A6"/>
<path d="M177.993 67.6791L82.5293 91.6445L93.5502 135.545L189.014 111.58L177.993 67.6791Z" fill="#DA9CF1"/>
<path opacity="0.2" d="M177.993 67.6791L82.5293 91.6445L93.5502 135.545L189.014 111.58L177.993 67.6791Z" fill="black"/>
<path d="M179.951 75.4799L84.4873 99.4453L95.5082 143.346L190.972 119.381L179.951 75.4799Z" fill="#DA9CF1"/>
<path opacity="0.3" d="M179.951 75.4799L84.4873 99.4453L95.5082 143.346L190.972 119.381L179.951 75.4799Z" fill="black"/>
<path d="M181.971 83.5248L86.5068 107.49L95.5092 143.35L190.973 119.385L181.971 83.5248Z" fill="#DA9CF1"/>
<path opacity="0.2" d="M181.971 83.5248L86.5068 107.49L95.5092 143.35L190.973 119.385L181.971 83.5248Z" fill="black"/>
<path d="M193.136 140.476L90.3427 152.18L71.1133 75.582L74.8622 76.9972C76.6624 77.682 78.6388 77.8912 80.5848 77.6031L173.907 63.8781L193.136 140.476Z" fill="#DA9CF1"/>
<path d="M72.0733 78.8146L71.877 79.2222L72.7278 79.5691L72.9241 79.1615L72.0733 78.8146Z" fill="white"/>
<path d="M168.313 68.9217L166.441 69.1871L166.384 68.7466L168.256 68.4812L168.313 68.9217ZM165.009 69.392L163.136 69.6574L163.079 69.2169L164.951 68.9515L165.009 69.392ZM161.704 69.8623L159.831 70.1277L159.774 69.6871L161.648 69.426L161.704 69.8623ZM158.399 70.3325L156.527 70.5979L156.47 70.1574L158.342 69.892L158.399 70.3325ZM155.095 70.8028L153.222 71.0682L153.165 70.6276L155.037 70.3622L155.095 70.8028ZM151.817 71.2661L149.945 71.5315L149.887 71.091L151.76 70.8256L151.817 71.2661ZM148.514 71.7407L146.64 72.0018L146.583 71.5613L148.455 71.2959L148.514 71.7407ZM145.209 72.2109L143.336 72.4763L143.279 72.0358L145.152 71.7704L145.209 72.2109ZM141.904 72.6812L140.032 72.9466L139.974 72.5061L141.847 72.2407L141.904 72.6812ZM138.604 73.1503L136.732 73.4157L136.674 72.9752L138.547 72.7098L138.604 73.1503ZM135.3 73.6205L133.427 73.8859L133.374 73.4443L135.247 73.1789L135.3 73.6205ZM131.995 74.0908L130.122 74.3562L130.065 73.9157L131.938 73.6503L131.995 74.0908ZM128.69 74.561L126.818 74.8264L126.76 74.3859L128.633 74.1205L128.69 74.561ZM125.387 75.0356L123.513 75.2967L123.456 74.8562L125.328 74.5908L125.387 75.0356ZM122.072 75.5264L120.2 75.7918L120.143 75.3513L122.015 75.0859L122.072 75.5264ZM118.768 75.9966L116.895 76.262L116.838 75.8215L118.711 75.5561L118.768 75.9966ZM115.463 76.4669L113.59 76.7323L113.533 76.2918L115.407 76.0306L115.463 76.4669ZM112.158 76.9371L110.286 77.2025L110.229 76.762L112.101 76.4966L112.158 76.9371ZM108.868 77.3857L106.995 77.6511L106.938 77.2106L108.81 76.9452L108.868 77.3857ZM105.568 77.8548L103.695 78.1202L103.642 77.6785L105.515 77.4131L105.568 77.8548ZM102.264 78.3293L100.39 78.5905L100.333 78.1499L102.206 77.8845L102.264 78.3293ZM98.9592 78.7996L97.0866 79.065L97.0293 78.6245L98.9019 78.3591L98.9592 78.7996ZM95.6545 79.2698L93.7819 79.5352L93.7246 79.0947L95.5972 78.8293L95.6545 79.2698ZM92.3772 79.7332L90.5046 79.9986L90.4473 79.5581L92.321 79.297L92.3772 79.7332ZM89.0725 80.2035L87.1999 80.4689L87.1426 80.0284L89.0152 79.763L89.0725 80.2035ZM85.7678 80.6737L83.8952 80.9391L83.8379 80.4986L85.7105 80.2332L85.7678 80.6737ZM82.4631 81.144L81.3406 81.3075C81.0777 81.3417 80.8183 81.3704 80.5567 81.3906L80.5314 80.9421C80.7827 80.9199 81.033 80.8934 81.2812 80.8584L82.4048 80.6992L82.4631 81.144ZM79.1034 81.4143C78.4576 81.3821 77.8174 81.2994 77.1893 81.167L77.308 80.7323C77.9093 80.8609 78.5228 80.9397 79.1416 80.968L79.1034 81.4143ZM75.7828 80.7786C75.6065 80.7136 75.4302 80.6487 75.2483 80.5807L74.0331 80.0851L74.2264 79.6772L75.4417 80.1728C75.6088 80.24 75.7795 80.3018 75.9501 80.3635L75.7828 80.7786Z" fill="white"/>
<path d="M171.079 69.1645L170.623 69.279L170.457 68.6157L169.73 68.7161L169.674 68.2799L170.816 68.1161L171.079 69.1645Z" fill="white"/>
<path d="M187.82 135.848L187.364 135.963L186.929 134.229L187.385 134.115L187.82 135.848ZM187.058 132.814L186.602 132.929L186.167 131.195L186.623 131.081L187.058 132.814ZM186.297 129.784L185.841 129.899L185.406 128.166L185.862 128.051L186.297 129.784ZM185.537 126.755L185.081 126.869L184.646 125.136L185.102 125.022L185.537 126.755ZM184.775 123.721L184.319 123.835L183.889 122.123L184.345 122.009L184.775 123.721ZM184.015 120.691L183.559 120.805L183.123 119.072L183.58 118.958L184.015 120.691ZM183.254 117.661L182.798 117.776L182.363 116.043L182.819 115.928L183.254 117.661ZM182.492 114.627L182.036 114.742L181.607 113.03L182.063 112.916L182.492 114.627ZM181.732 111.598L181.276 111.712L180.841 109.979L181.297 109.864L181.732 111.598ZM180.971 108.568L180.515 108.682L180.08 106.949L180.536 106.835L180.971 108.568ZM180.211 105.538L179.755 105.653L179.318 103.915L179.774 103.801L180.211 105.538ZM179.449 102.504L178.993 102.619L178.563 100.907L179.019 100.793L179.449 102.504ZM178.688 99.4745L178.232 99.589L177.797 97.8559L178.253 97.7414L178.688 99.4745ZM177.928 96.4448L177.472 96.5593L177.037 94.8262L177.493 94.7117L177.928 96.4448ZM177.166 93.4108L176.71 93.5253L176.28 91.8136L176.736 91.6991L177.166 93.4108ZM176.406 90.3811L175.949 90.4956L175.514 88.7625L175.97 88.648L176.406 90.3811ZM175.645 87.3514L175.189 87.4659L174.754 85.7328L175.21 85.6183L175.645 87.3514ZM174.883 84.3174L174.427 84.4319L173.998 82.7202L174.454 82.6057L174.883 84.3174ZM174.123 81.2877L173.667 81.4022L173.232 79.6691L173.688 79.5547L174.123 81.2877ZM173.362 78.258L172.906 78.3725L172.471 76.6394L172.927 76.525L173.362 78.258ZM172.602 75.2283L172.145 75.3428L171.71 73.6097L172.166 73.4952L172.602 75.2283ZM171.84 72.1944L171.384 72.3089L170.954 70.5972L171.41 70.4827L171.84 72.1944Z" fill="white"/>
<path d="M188.422 138.248L187.214 138.379L187.176 137.938L187.842 137.867L187.689 137.259L188.145 137.144L188.422 138.248Z" fill="white"/>
<path d="M185.789 138.536L183.902 138.742L183.858 138.298L185.746 138.092L185.789 138.536ZM182.49 138.91L180.602 139.115L180.563 138.67L182.45 138.465L182.49 138.91ZM179.19 139.283L177.302 139.489L177.263 139.044L179.151 138.838L179.19 139.283ZM175.89 139.657L174.002 139.862L173.963 139.417L175.851 139.212L175.89 139.657ZM172.59 140.03L170.702 140.236L170.659 139.792L172.546 139.586L172.59 140.03ZM169.29 140.404L167.402 140.609L167.359 140.165L169.246 139.96L169.29 140.404ZM165.99 140.777L164.102 140.983L164.063 140.538L165.951 140.332L165.99 140.777ZM162.69 141.151L160.803 141.356L160.764 140.911L162.651 140.706L162.69 141.151ZM159.39 141.524L157.503 141.73L157.464 141.285L159.351 141.079L159.39 141.524ZM156.09 141.898L154.203 142.104L154.164 141.658L156.052 141.457L156.09 141.898ZM152.791 142.272L150.903 142.477L150.859 142.033L152.747 141.828L152.791 142.272ZM149.491 142.645L147.603 142.851L147.564 142.405L149.452 142.2L149.491 142.645ZM146.191 143.019L144.303 143.224L144.264 142.779L146.152 142.573L146.191 143.019ZM142.891 143.392L141.003 143.598L140.964 143.152L142.853 142.951L142.891 143.392ZM139.591 143.766L137.703 143.971L137.664 143.526L139.552 143.321L139.591 143.766ZM136.291 144.139L134.403 144.345L134.36 143.901L136.249 143.699L136.291 144.139ZM132.991 144.513L131.104 144.718L131.06 144.274L132.948 144.069L132.991 144.513ZM129.691 144.886L127.804 145.092L127.765 144.647L129.652 144.441L129.691 144.886ZM126.391 145.26L124.504 145.465L124.465 145.02L126.352 144.815L126.391 145.26ZM123.092 145.633L121.204 145.839L121.165 145.394L123.054 145.192L123.092 145.633ZM119.792 146.007L117.904 146.212L117.86 145.768L119.748 145.563L119.792 146.007ZM116.492 146.38L114.604 146.586L114.565 146.141L116.454 145.939L116.492 146.38ZM113.192 146.754L111.304 146.959L111.265 146.514L113.153 146.309L113.192 146.754ZM109.892 147.127L108.004 147.333L107.965 146.888L109.854 146.686L109.892 147.127ZM106.592 147.501L104.704 147.706L104.665 147.261L106.553 147.056L106.592 147.501ZM103.292 147.874L101.405 148.08L101.361 147.636L103.25 147.435L103.292 147.874ZM99.9923 148.248L98.1047 148.453L98.0656 148.008L99.9533 147.803L99.9923 148.248ZM96.6924 148.621L94.8048 148.827L94.7658 148.382L96.6545 148.181L96.6924 148.621ZM93.3925 148.995L91.5049 149.2L91.4659 148.755L93.3535 148.55L93.3925 148.995Z" fill="white"/>
<path d="M171.646 109.176C173.835 108.626 175.133 106.284 174.546 103.944C173.958 101.605 171.708 100.153 169.519 100.703C167.33 101.252 166.032 103.594 166.619 105.934C167.207 108.274 169.457 109.725 171.646 109.176Z" fill="#EBEBEB"/>
<path d="M172.429 104.475C172.467 104.819 172.399 105.17 172.232 105.485C172.066 105.799 171.809 106.064 171.491 106.249C171.174 106.433 170.81 106.528 170.442 106.523C170.075 106.518 169.72 106.413 169.421 106.22C169.121 106.028 168.889 105.756 168.752 105.437C168.616 105.118 168.581 104.766 168.651 104.423C168.722 104.08 168.895 103.761 169.149 103.503C169.404 103.245 169.73 103.06 170.088 102.97C170.618 102.872 171.162 102.975 171.601 103.257C172.04 103.539 172.337 103.977 172.429 104.475Z" fill="#DBDBDB"/>
</svg>
