<svg width="32" height="33" viewBox="0 0 32 33" fill="none" xmlns="http://www.w3.org/2000/svg">
<path d="M5 23.5474V8.54736C5 5.78593 7.23856 3.54736 10 3.54736H6.25C3.48856 3.54736 1.25 5.78593 1.25 8.54736V23.5474C1.25 26.3088 3.48856 28.5474 6.25 28.5474H10C7.23856 28.5474 5 26.3088 5 23.5474Z" fill="#CEE1F2"/>
<path d="M23.25 17.2974C23.9404 17.2974 24.5 16.7377 24.5 16.0474C24.5 15.357 23.9404 14.7974 23.25 14.7974C22.5596 14.7974 22 15.357 22 16.0474C22 16.7377 22.5596 17.2974 23.25 17.2974Z" fill="#FF5CF4"/>
<path d="M6.25 29.7974H23.25C25.4742 29.7974 27.5484 28.6003 28.6631 26.6733C29.0088 26.0757 28.8046 25.3111 28.207 24.9654C27.6094 24.6197 26.8447 24.8239 26.4991 25.4214C25.8298 26.5786 24.5847 27.2974 23.25 27.2974H6.25C4.18225 27.2974 2.5 25.6151 2.5 23.5474V8.54736C2.5 6.47961 4.18225 4.79736 6.25 4.79736H23.25C24.5847 4.79736 25.8298 5.51618 26.4991 6.6733C26.8447 7.27093 27.6094 7.47505 28.207 7.12936C28.8046 6.78368 29.0088 6.01905 28.6631 5.42143C27.5484 3.49443 25.4742 2.29736 23.25 2.29736H6.25C2.80375 2.29736 0 5.10111 0 8.54736V23.5474C0 26.9936 2.80375 29.7974 6.25 29.7974Z" fill="#0023C4"/>
<path d="M28.25 9.79736H23.25C19.8038 9.79736 17 12.6011 17 16.0474C17 19.4936 19.8038 22.2974 23.25 22.2974H28.25C30.3177 22.2974 32 20.6151 32 18.5474V13.5474C32 11.4796 30.3177 9.79736 28.25 9.79736ZM29.5 18.5474C29.5 19.2366 28.9392 19.7974 28.25 19.7974H23.25C21.1823 19.7974 19.5 18.1151 19.5 16.0474C19.5 13.9796 21.1823 12.2974 23.25 12.2974H28.25C28.9392 12.2974 29.5 12.8581 29.5 13.5474V18.5474Z" fill="#0023C4"/>
</svg>
