<svg width="25" height="25" viewBox="0 0 25 25" fill="none" xmlns="http://www.w3.org/2000/svg">
<g clip-path="url(#clip0_298_8532)">
<path d="M23.8331 9.70972C23.6866 9.8562 23.4947 9.92942 23.3028 9.92942C23.1109 9.92942 22.9189 9.8562 22.7725 9.70972C19.9091 6.84641 16.1021 5.26953 12.0528 5.26953C8.00343 5.26953 4.19643 6.84641 1.33307 9.70972C1.04019 10.0026 0.565301 10.0026 0.272426 9.70972C-0.0204961 9.41684 -0.0204961 8.94195 0.272426 8.64908C1.80219 7.11931 3.58382 5.91819 5.56771 5.07903C7.62214 4.21011 9.80404 3.76953 12.0528 3.76953C14.3015 3.76953 16.4834 4.21011 18.5378 5.07908C20.5217 5.91823 22.3033 7.11936 23.8331 8.64913C24.126 8.94195 24.126 9.41684 23.8331 9.70972ZM12.0528 8.76261C8.93643 8.76261 6.00664 9.9762 3.8031 12.1798C3.51018 12.4727 3.51018 12.9475 3.8031 13.2404C3.94954 13.3869 4.14149 13.4601 4.33339 13.4601C4.5253 13.4601 4.71725 13.3869 4.86369 13.2404C6.78393 11.3202 9.33707 10.2626 12.0527 10.2626C14.7684 10.2626 17.3215 11.3202 19.2418 13.2404C19.5346 13.5333 20.0095 13.5333 20.3024 13.2404C20.5953 12.9475 20.5953 12.4726 20.3024 12.1798C18.0989 9.9762 15.1691 8.76261 12.0528 8.76261ZM12.0528 13.7557C10.2702 13.7557 8.59424 14.4499 7.33372 15.7104C7.0408 16.0033 7.0408 16.4781 7.33372 16.771C7.62664 17.0639 8.10149 17.0639 8.39436 16.771C9.37157 15.7938 10.6708 15.2557 12.0528 15.2557C13.4347 15.2557 14.734 15.7938 15.7111 16.771C15.8576 16.9175 16.0495 16.9907 16.2414 16.9907C16.4333 16.9907 16.6253 16.9175 16.7717 16.771C17.0646 16.4781 17.0646 16.0032 16.7717 15.7104C15.5113 14.4499 13.8354 13.7557 12.0528 13.7557ZM13.7334 20.4294C13.7334 21.3561 12.9795 22.1101 12.0528 22.1101C11.1261 22.1101 10.3721 21.3561 10.3721 20.4294C10.3721 19.5027 11.1261 18.7488 12.0528 18.7488C12.9795 18.7488 13.7334 19.5027 13.7334 20.4294ZM12.2334 20.4294C12.2334 20.3315 12.1507 20.2488 12.0528 20.2488C11.9548 20.2488 11.8721 20.3315 11.8721 20.4294C11.8721 20.5273 11.9548 20.6101 12.0528 20.6101C12.1507 20.6101 12.2334 20.5273 12.2334 20.4294Z" fill="#323232"/>
</g>
<defs>
<clipPath id="clip0_298_8532">
<rect width="24" height="24" fill="white" transform="translate(0.0527344 0.939453)"/>
</clipPath>
</defs>
</svg>
